<svg xmlns="http://www.w3.org/2000/svg" height="512pt" version="1.1" viewBox="0 0 512 512" width="512pt">
<g id="surface1">
<path d="M 256 0 C 223 0 196 28 196 61 C 196 94 223 121 256 121 C 289 121 316 94 316 61 C 316 28 289 0 256 0 Z M 256 0 " style=" stroke:none;fill-rule:nonzero;fill:rgb(70.980392%,72.941176%,95.294118%);fill-opacity:1;" />
<path d="M 256 121 C 206.5 121 166 161.5 166 211 L 166 241 L 346 241 L 346 211 C 346 161.5 305.5 121 256 121 Z M 256 121 " style=" stroke:none;fill-rule:nonzero;fill:rgb(59.215686%,62.352941%,93.72549%);fill-opacity:1;" />
<path d="M 316 61 C 316 94 289 121 256 121 L 256 0 C 289 0 316 28 316 61 Z M 316 61 " style=" stroke:none;fill-rule:nonzero;fill:rgb(59.215686%,62.352941%,93.72549%);fill-opacity:1;" />
<path d="M 346 211 L 346 241 L 256 241 L 256 121 C 305.5 121 346 161.5 346 211 Z M 346 211 " style=" stroke:none;fill-rule:nonzero;fill:rgb(47.45098%,51.764706%,92.156863%);fill-opacity:1;" />
<path d="M 421 181 C 387.914062 181 361 154.085938 361 121 C 361 87.914062 387.914062 61 421 61 C 454.085938 61 481 87.914062 481 121 C 481 154.085938 454.085938 181 421 181 Z M 421 181 " style=" stroke:none;fill-rule:nonzero;fill:rgb(70.980392%,72.941176%,95.294118%);fill-opacity:1;" />
<path d="M 481 121 C 481 87.914062 454.085938 61 421 61 L 421 181 C 454.085938 181 481 154.085938 481 121 Z M 481 121 " style=" stroke:none;fill-rule:nonzero;fill:rgb(59.215686%,62.352941%,93.72549%);fill-opacity:1;" />
<path d="M 481 301 L 361 301 L 361 241 C 361 207.914062 387.914062 181 421 181 C 454.085938 181 481 207.914062 481 241 Z M 481 301 " style=" stroke:none;fill-rule:nonzero;fill:rgb(59.215686%,62.352941%,93.72549%);fill-opacity:1;" />
<path d="M 481 301 L 481 241 C 481 207.914062 454.085938 181 421 181 L 421 301 Z M 481 301 " style=" stroke:none;fill-rule:nonzero;fill:rgb(47.45098%,51.764706%,92.156863%);fill-opacity:1;" />
<path d="M 451 391 C 417.914062 391 391 364.085938 391 331 C 391 297.914062 417.914062 271 451 271 C 467.003906 271 482.191406 277.183594 493.765625 288.414062 C 505.523438 299.824219 512 314.945312 512 331 C 512 347.054688 505.523438 362.175781 493.765625 373.585938 C 482.191406 384.816406 467.003906 391 451 391 Z M 451 391 " style=" stroke:none;fill-rule:nonzero;fill:rgb(70.980392%,72.941176%,95.294118%);fill-opacity:1;" />
<path d="M 493.765625 373.585938 C 505.523438 362.175781 512 347.054688 512 331 C 512 314.945312 505.523438 299.824219 493.765625 288.414062 C 482.191406 277.183594 467.003906 271 451 271 L 451 391 C 467.003906 391 482.191406 384.816406 493.765625 373.585938 Z M 493.765625 373.585938 " style=" stroke:none;fill-rule:nonzero;fill:rgb(59.215686%,62.352941%,93.72549%);fill-opacity:1;" />
<path d="M 512 512 L 391 512 L 391 451 C 391 417.914062 417.914062 391 451 391 C 467.003906 391 482.191406 397.183594 493.765625 408.414062 C 505.523438 419.824219 512 434.945312 512 451 Z M 512 512 " style=" stroke:none;fill-rule:nonzero;fill:rgb(59.215686%,62.352941%,93.72549%);fill-opacity:1;" />
<path d="M 512 512 L 512 451 C 512 434.945312 505.523438 419.824219 493.765625 408.414062 C 482.191406 397.183594 467.003906 391 451 391 L 451 512 Z M 512 512 " style=" stroke:none;fill-rule:nonzero;fill:rgb(47.45098%,51.764706%,92.156863%);fill-opacity:1;" />
<path d="M 91 181 C 57.914062 181 31 154.085938 31 121 C 31 87.914062 57.914062 61 91 61 C 124.085938 61 151 87.914062 151 121 C 151 154.085938 124.085938 181 91 181 Z M 91 181 " style=" stroke:none;fill-rule:nonzero;fill:rgb(70.980392%,72.941176%,95.294118%);fill-opacity:1;" />
<path d="M 151 121 C 151 87.914062 124.085938 61 91 61 L 91 181 C 124.085938 181 151 154.085938 151 121 Z M 151 121 " style=" stroke:none;fill-rule:nonzero;fill:rgb(59.215686%,62.352941%,93.72549%);fill-opacity:1;" />
<path d="M 151 301 L 31 301 L 31 241 C 31 207.914062 57.914062 181 91 181 C 124.085938 181 151 207.914062 151 241 Z M 151 301 " style=" stroke:none;fill-rule:nonzero;fill:rgb(59.215686%,62.352941%,93.72549%);fill-opacity:1;" />
<path d="M 151 301 L 151 241 C 151 207.914062 124.085938 181 91 181 L 91 301 Z M 151 301 " style=" stroke:none;fill-rule:nonzero;fill:rgb(47.45098%,51.764706%,92.156863%);fill-opacity:1;" />
<path d="M 61 391 C 44.996094 391 29.808594 384.816406 18.234375 373.585938 C 6.476562 362.175781 0 347.054688 0 331 C 0 314.945312 6.476562 299.824219 18.234375 288.414062 C 29.808594 277.183594 44.996094 271 61 271 C 94.085938 271 121 297.914062 121 331 C 121 364.085938 94.085938 391 61 391 Z M 61 391 " style=" stroke:none;fill-rule:nonzero;fill:rgb(70.980392%,72.941176%,95.294118%);fill-opacity:1;" />
<path d="M 121 331 C 121 297.914062 94.085938 271 61 271 L 61 391 C 94.085938 391 121 364.085938 121 331 Z M 121 331 " style=" stroke:none;fill-rule:nonzero;fill:rgb(59.215686%,62.352941%,93.72549%);fill-opacity:1;" />
<path d="M 121 512 L 0 512 L 0 451 C 0 434.945312 6.476562 419.824219 18.234375 408.414062 C 29.808594 397.183594 44.996094 391 61 391 C 94.085938 391 121 417.914062 121 451 Z M 121 512 " style=" stroke:none;fill-rule:nonzero;fill:rgb(59.215686%,62.352941%,93.72549%);fill-opacity:1;" />
<path d="M 121 451 C 121 417.914062 94.085938 391 61 391 L 61 512 L 121 512 Z M 121 451 " style=" stroke:none;fill-rule:nonzero;fill:rgb(47.45098%,51.764706%,92.156863%);fill-opacity:1;" />
<path d="M 421 512 L 331 512 L 316 490.699219 L 301 512 L 211 512 L 196 490.699219 L 181 512 L 91 512 L 166 211 L 346 211 Z M 421 512 " style=" stroke:none;fill-rule:nonzero;fill:rgb(29.019608%,41.176471%,43.529412%);fill-opacity:1;" />
<path d="M 421 512 L 331 512 L 316 490.699219 L 301 512 L 256 512 L 256 211 L 346 211 Z M 421 512 " style=" stroke:none;fill-rule:nonzero;fill:rgb(24.313725%,34.901961%,34.901961%);fill-opacity:1;" />
<path d="M 241 361 L 211 361 L 211 322.210938 L 185.394531 296.605469 L 206.605469 275.394531 L 241 309.789062 Z M 241 361 " style=" stroke:none;fill-rule:nonzero;fill:rgb(21.960784%,28.627451%,28.627451%);fill-opacity:1;" />
<path d="M 301 361 L 271 361 L 271 309.789062 L 305.394531 275.394531 L 326.605469 296.605469 L 301 322.210938 Z M 301 361 " style=" stroke:none;fill-rule:nonzero;fill:rgb(16.078431%,22.352941%,22.352941%);fill-opacity:1;" />
<path d="M 176.605469 395.394531 L 155.394531 416.605469 L 181 442.210938 L 181 512 L 211 512 L 211 429.789062 Z M 176.605469 395.394531 " style=" stroke:none;fill-rule:nonzero;fill:rgb(21.960784%,28.627451%,28.627451%);fill-opacity:1;" />
<path d="M 331 442.210938 L 356.605469 416.605469 L 335.394531 395.394531 L 301 429.789062 L 301 512 L 331 512 Z M 331 442.210938 " style=" stroke:none;fill-rule:nonzero;fill:rgb(16.078431%,22.352941%,22.352941%);fill-opacity:1;" />
</g>
</svg>