<svg xmlns="http://www.w3.org/2000/svg" viewBox="0 0 334.23 351.69"><defs><style>.cls-1{fill:#8b71dc;}.cls-2,.cls-7{fill:#fff;}.cls-2{opacity:0.77;}.cls-3{fill:#48338a;}.cls-4{fill:#8870d9;}.cls-5{fill:#ffc7aa;}.cls-6{fill:#eab096;}.cls-8{fill:#b8aed6;}.cls-9{fill:none;stroke:#fff;stroke-linecap:round;stroke-linejoin:round;stroke-width:0.92px;}.cls-10{fill:#d3c9ec;}.cls-11{fill:#7364bf;}.cls-12{fill:#ff6fa2;}.cls-13{fill:#f2c18f;}.cls-14{fill:#5c46a5;}.cls-15{fill:#ffce96;}.cls-16{fill:#6348b6;}.cls-17{fill:#ff5367;}.cls-18{fill:#e8649a;}</style></defs><title>Asset 1</title><g id="Layer_2" data-name="Layer 2"><g id="OBJECTS"><path class="cls-1" d="M50.51,2.71V157.27a2.72,2.72,0,0,0,1.36,2.35L254.1,276a2.71,2.71,0,0,0,4.06-2.35v-154a2.68,2.68,0,0,0-1.35-2.34L54.58.37A2.71,2.71,0,0,0,50.51,2.71Z"/><path class="cls-2" d="M40.31,6.9V161.46a2.72,2.72,0,0,0,1.36,2.35L243.9,280.23a2.71,2.71,0,0,0,4.06-2.35v-154a2.68,2.68,0,0,0-1.35-2.34L44.37,4.56A2.7,2.7,0,0,0,40.31,6.9Z"/><polygon class="cls-3" points="81.48 186.73 81.48 26.03 40.31 2.21 40.31 163.03 81.48 186.73"/><path class="cls-4" d="M94.71,51.69v7.46a1,1,0,0,0,.48.83l94.46,55a1,1,0,0,0,1.44-.83V106a1,1,0,0,0-.48-.83L96.14,50.86A1,1,0,0,0,94.71,51.69Z"/><path class="cls-4" d="M94.71,66.05v7.46a.94.94,0,0,0,.48.83l94.46,54.95a1,1,0,0,0,1.44-.83v-8.13a1,1,0,0,0-.48-.83L96.14,65.22A1,1,0,0,0,94.71,66.05Z"/><path class="cls-4" d="M94.71,80.3v7.46a1,1,0,0,0,.48.83l68.76,40a1,1,0,0,0,1.43-.83v-8a1,1,0,0,0-.48-.83L96.14,79.47A1,1,0,0,0,94.71,80.3Z"/><path class="cls-4" d="M164.71,140.55v6.16a1.51,1.51,0,0,0,.76,1.31l25.05,14.58a1.52,1.52,0,0,0,2.29-1.32V155a1.53,1.53,0,0,0-.76-1.33L167,139.23A1.53,1.53,0,0,0,164.71,140.55Z"/><path class="cls-4" d="M164.71,155.14v6.16a1.54,1.54,0,0,0,.76,1.32l25.05,14.57a1.52,1.52,0,0,0,2.29-1.32v-6.33a1.52,1.52,0,0,0-.76-1.32L167,153.82A1.53,1.53,0,0,0,164.71,155.14Z"/><path class="cls-4" d="M94.71,145.5V153a1,1,0,0,0,.48.83l68.76,40a1,1,0,0,0,1.43-.83v-8a1,1,0,0,0-.48-.83L96.14,144.67A1,1,0,0,0,94.71,145.5Z"/><path class="cls-4" d="M94.71,162.4v7.46a.94.94,0,0,0,.48.83l68.76,40a1,1,0,0,0,1.43-.82v-8a.94.94,0,0,0-.48-.83L96.14,161.57A1,1,0,0,0,94.71,162.4Z"/><path class="cls-4" d="M95.77,101v27.89a1.71,1.71,0,0,0,.85,1.48L121,144.31a1.7,1.7,0,0,0,2.54-1.48V115.32a1.68,1.68,0,0,0-.83-1.46L98.33,99.53A1.7,1.7,0,0,0,95.77,101Z"/><path class="cls-4" d="M128.27,119.76v27.89a1.72,1.72,0,0,0,.86,1.48l24.32,13.94A1.7,1.7,0,0,0,156,161.6V134.08a1.69,1.69,0,0,0-.84-1.46l-24.32-14.33A1.7,1.7,0,0,0,128.27,119.76Z"/><path class="cls-4" d="M206.37,116.63v27.89a1.71,1.71,0,0,0,.86,1.48L231.55,160a1.7,1.7,0,0,0,2.55-1.48V131a1.7,1.7,0,0,0-.84-1.47l-24.32-14.32A1.7,1.7,0,0,0,206.37,116.63Z"/><path class="cls-5" d="M47,60.86v4.68a1,1,0,0,0,.47.82l21.91,13a1,1,0,0,0,1.43-.82V73.71a1,1,0,0,0-.47-.82L48.45,60A1,1,0,0,0,47,60.86Z"/><path class="cls-5" d="M47,71.42v4.69a.94.94,0,0,0,.47.81l21.91,13a.94.94,0,0,0,1.43-.81V84.27a.94.94,0,0,0-.47-.81L48.45,70.6A1,1,0,0,0,47,71.42Z"/><path class="cls-5" d="M47,81.81V86.5a.94.94,0,0,0,.47.81l21.91,13a.94.94,0,0,0,1.43-.81V94.66a.94.94,0,0,0-.47-.81L48.45,81A1,1,0,0,0,47,81.81Z"/><path class="cls-5" d="M68.94,38.09c.89,8-2.87,15.07-8.4,15.68S49.8,48.35,48.92,40.29s2.87-15.07,8.4-15.68S68.05,30,68.94,38.09Z"/><polygon class="cls-5" points="165.39 292.39 179.26 300.55 179.26 204.28 165.39 195.96 165.39 292.39"/><polygon class="cls-6" points="192.81 292.39 179.26 300.55 179.26 204.28 192.81 195.96 192.81 292.39"/><polygon class="cls-7" points="179.26 188.25 165.39 195.96 179.26 204.28 192.81 195.96 179.26 188.25"/><polygon class="cls-5" points="192.81 308.41 192.81 228.31 207.29 236.62 207.29 316.73 192.81 308.41"/><polygon class="cls-6" points="220.23 228.31 207.29 236.62 207.29 316.73 220.23 309.02 220.23 228.31"/><polygon class="cls-7" points="207.29 219.68 192.81 228.31 207.29 236.62 220.23 228.31 207.29 219.68"/><path class="cls-8" d="M287.22,303.55c-1.14,2.36-7,1.88-13.2-1.08s-10.22-7.27-9.08-9.63,7-1.88,13.2,1.08S288.36,301.19,287.22,303.55Z"/><path class="cls-8" d="M292,313.3c-.51,1.06-3.15.84-5.91-.48s-4.58-3.26-4.07-4.32,3.16-.84,5.91.49S292.51,312.24,292,313.3Z"/><path class="cls-8" d="M305.58,308.91c-.34.72-2.14.57-4-.33s-3.11-2.21-2.76-2.93,2.14-.57,4,.33S305.93,308.19,305.58,308.91Z"/><path class="cls-8" d="M328.11,327.48c-1.13,2.37-7,1.88-13.19-1.08s-10.22-7.27-9.09-9.63,7.05-1.88,13.2,1.08S329.25,325.12,328.11,327.48Z"/><path class="cls-3" d="M276.6,162.72s-3.46.31-4.26,16.33-6.93,19.71-6.93,24.95,5.06,8.94,2.4,15.41-5,11.07-5.06,20.33c-.06,14.48,12.94,29.27,12.94,29.27s18.76-10.17,17.16-31.12c-2.93-13.56,0-15.4-1.33-22.34s-8.26-.46-6.93-19.87S283.53,160.87,276.6,162.72Z"/><line class="cls-9" x1="275.69" y1="297.97" x2="275.69" y2="232.35"/><path class="cls-3" d="M317.89,186.88s-3.47.31-4.27,16.33-6.92,19.71-6.92,24.95,5.06,8.94,2.39,15.4-5,11.08-5.06,20.34C304,278.38,317,293.17,317,293.17s18.76-10.17,17.17-31.12c-2.93-13.56,0-15.4-1.34-22.34s-8.25-.46-6.92-19.87S324.81,185,317.89,186.88Z"/><line class="cls-9" x1="316.97" y1="322.13" x2="316.97" y2="256.5"/><path class="cls-8" d="M134.87,259.25S133.66,224,126,203.74c-4.5-11.84-13.16-23.26-23.22-28.12h0c-7.14-3.45-15-3.59-22.54,1.79-18.24,13-17.83,20.66-30.8,17.42s-18.63-7.3-23.9,1.62L126,254.13l4.69,9.35Z"/><path class="cls-10" d="M21.25,200.68l109.39,62.8s-1.22-35.25-8.92-55.51-27.55-39.29-45.78-26.33S58.12,202.3,45.15,199.06,26.52,191.77,21.25,200.68Z"/><path class="cls-11" d="M113.62,285.46s-1.21-35.25-8.91-55.51c-4.5-11.84-13.16-23.26-23.22-28.11v0h0c-7.14-3.44-15-3.59-22.55,1.79C40.7,216.58,41.1,224.28,28.14,221S9.5,213.75,4.23,222.66l100.48,57.68,4.68,9.35Z"/><path class="cls-4" d="M0,226.89l109.39,62.8s-1.22-35.25-8.91-55.5-27.55-39.3-45.79-26.34S36.87,228.51,23.9,225.27,5.27,218,0,226.89Z"/><path class="cls-12" d="M35.18,108.79s-2.16,1.9-1,6.51,6.15,7.84,6.15,7.84l0-17.22S39.45,108.49,35.18,108.79Z"/><path class="cls-13" d="M27.92,103.66a7.94,7.94,0,0,0,2.19,3.23,7.35,7.35,0,0,0,7.61,1.38c2.88-1.15,4.26-4.84,2.3-8.64s-4.38-4.38-4.38-4.38-1,1.61-4.84,3.11S26.93,101.8,27.92,103.66Z"/><path class="cls-14" d="M25.15,99.05S24.23,90.17,31,87.52s9.45,4.61,4.61,7.73c0,0-.8,1.72-4.84,3.11s-3.33,4.14-3.33,4.14a13.19,13.19,0,0,0,2.64,4.39S21.46,103.89,25.15,99.05Z"/><path class="cls-15" d="M39.66,111.76c0,.66.36.66-.1,1.7s-.57,2.88,1,3.11,4,.12,3.46-1.5-2.55-1.26-3.12-3S39.65,111.3,39.66,111.76Z"/><path class="cls-15" d="M39.66,105.84c0-.66.36-.66-.1-1.7s-.57-2.88,1-3.11,4-.11,3.46,1.5-2.55,1.27-3.12,3S39.65,106.3,39.66,105.84Z"/><path class="cls-12" d="M38.91,239.22s-5.16,3.21-6.28,11.3a81.29,81.29,0,0,0,0,17.58s14.37,2.37,17-5.3c0,0-1.12-6-1-8.23,0,0,11.58,2.09,13.95-7.68l-2.09-2.23s-4.74,9.49-12,2.65c0,0-.69-4.6-3.76-5.58C44.77,241.73,40,241.45,38.91,239.22Z"/><path class="cls-16" d="M36,279.82a35.22,35.22,0,0,1-3.35-11.72s13.25,1.53,17-5.3c0,0,13-2.37,14,1.39s-1,18.14-1,18.14-4.74.7-6.27,0l.55-11.58s-9.76,2.09-13.25,2.65c0,0,3.91,13.39-4.88,13a110,110,0,0,1-14.51-1.53v-4S34.16,279.82,36,279.82Z"/><polygon class="cls-15" points="57.95 285.19 58.19 282.63 61.58 282.46 61.37 285.19 57.95 285.19"/><path class="cls-17" d="M58,287.46a3.17,3.17,0,0,1,0-2.27h3.42a17.41,17.41,0,0,0,4.29.94c1.32-.07,1.53,1,1,1.33S58,287.46,58,287.46Z"/><path class="cls-15" d="M24.26,280.79H21.43s-.41,3.06,0,3.11,2.83,0,2.83,0Z"/><path class="cls-17" d="M19,280.79s.11,3,.35,4.36.73,2.2,1.29,2.34a16.84,16.84,0,0,0,2.69,0s.42-.68-.77-1.11-1.12-2.48-1.12-2.48v-3.11A2.53,2.53,0,0,0,19,280.79Z"/><path class="cls-14" d="M38.44,228.52s-.56-3.62,2.57-3.88,7.83-.26,9.06-1.83,4.56,2.21,1.5,6.36L43,239.22,38.91,237S35.65,230.19,38.44,228.52Z"/><path class="cls-15" d="M38.91,239.22V237s4,2.91,5.16,0c1-2.45,0-2.4,0-2.4s-1.6-.67-1.27-2.12,1.21-1.16,2.35-.78a6.13,6.13,0,0,0,4.91-1c1.56-1.23,1.51-1.44,1.51-1.44a9.77,9.77,0,0,1-.36,7c-2.15,5-6.51,3.91-6.51,3.91l.07,1.7S40.49,241.43,38.91,239.22Z"/><path class="cls-18" d="M34.62,244.24a46.26,46.26,0,0,0-6.16,10.16c-1.93,5,3.67,5.87,3.67,5.87S31.81,249.76,34.62,244.24Z"/><path class="cls-15" d="M60.53,244.66a16.66,16.66,0,0,1,.59-4.1c.47-.83,3.07-2.43,3.4-2.18s-1.17,1.43-1.17,1.43,1.93.63,1.76,1.7-.71.9-1.24,2.07-1.25,3.31-1.25,3.31Z"/><path class="cls-15" d="M148.49,341.21c.79,2.29,1.84,5.08,2.79,7.11h2s-.24-4-.57-7.87"/><path class="cls-15" d="M132.24,341a31.31,31.31,0,0,0,.7,5.18l.47,2.1h2.35a53.25,53.25,0,0,0,1-7.28"/><path class="cls-15" d="M128.7,282.2s-6.67,8.65-7.24,15.8,8.68,9.95,8.68,9.95l.94-2.56s-8.91-4.68-1.74-14.83A34.73,34.73,0,0,1,128.7,282.2Z"/><path class="cls-3" d="M127.89,307a50.58,50.58,0,0,0,2.69,21.15,23.57,23.57,0,0,1,1.56,5.47c.07,1.86.1,7.4.1,7.4a16.87,16.87,0,0,0,4.55,0,37.68,37.68,0,0,0-.52-6.74,17.23,17.23,0,0,1,.16-5.61,18.9,18.9,0,0,0,.36-3.05,41.82,41.82,0,0,0-1-10.94s5.44,10.94,9.4,16.87a17.25,17.25,0,0,1,1.37,3.55c.77,2.56,1.92,6.09,1.92,6.09s3.59.74,4.19-.76c0,0-.82-8-1.4-9.75s-1.88-5.22-1.88-5.22-2.23-12.34-5.68-19.71C143.72,305.77,142.24,307.08,127.89,307Z"/><path class="cls-17" d="M131,281.45s3.9,4.4,7.28-.31l2.5.73s-4.27,5.76,1.09,7.53c0,0,.55,5.13-2.69,7.81a36.39,36.39,0,0,1,4.58,8.56s-2.85,3.51-15.83,1.25a69,69,0,0,1,3.19-9.3s-2.19-2.54-2.38-15.52C128.7,282.2,130.11,281.68,131,281.45Z"/><path class="cls-15" d="M140.74,281.87s8.42,3.72,12.37-1.64a15.51,15.51,0,0,0,2.68-11.43s-1.34,0-1.76-2.12S154,264,154,264s.63-.21.84.78l.21,1a29.1,29.1,0,0,0,.39-4.84c0-.54.77-1,.91-.27a7.85,7.85,0,0,1,.05,2.24s1.41,0,1.83,1.1-.28,4.3-.49,4.45c0,0,5.12,20.95-15.87,20.95a3.84,3.84,0,0,1-2.57-2.3A4.75,4.75,0,0,1,140.74,281.87Z"/><path class="cls-15" d="M139.93,268.4c1.82,5-.14,8.35-.14,8.35a2.75,2.75,0,0,1-3.19.83,3.54,3.54,0,0,0,0,2.27,3.49,3.49,0,0,0,1.64,1.29s-2.79,4.8-7.28.31a7.56,7.56,0,0,0,.63-4.18Z"/><path class="cls-14" d="M134.44,262.36s-5.61-3.48-8.37,1.69c-4.63,8.68,4.1,13.45,4.1,13.45s-9.18,9.34-3.91,16.68,13.14,2.47,12.58-4.78a19.06,19.06,0,0,0-5.32-12c-.46-.28,4.51-.63,6.27-7.78C140.64,266.15,137.64,261.42,134.44,262.36Z"/><path class="cls-14" d="M133.41,348.32s-.41,1.13-.76,2.19,1,1.18,2.61,1.18,2.18-.06,1.69-1.07-1.19-2.3-1.19-2.3Z"/><path class="cls-14" d="M151.28,348.32s-.63,1.71,0,2.63,7.68,0,7.68,0,1.27-1.27-1.48-1.42a8.34,8.34,0,0,1-4.23-1.21Z"/></g></g></svg>