<svg xmlns="http://www.w3.org/2000/svg" xmlns:xlink="http://www.w3.org/1999/xlink" viewBox="0 0 426.17 380.67"><defs><style>.cls-1{isolation:isolate;}.cls-13,.cls-2,.cls-3,.cls-49,.cls-50,.cls-51,.cls-52,.cls-53,.cls-54{fill:none;stroke-miterlimit:10;}.cls-13,.cls-2{stroke-width:0.26px;}.cls-2{stroke:url(#Degradado_sin_nombre_5);}.cls-3{stroke-width:0.51px;stroke:url(#Degradado_sin_nombre_5-2);}.cls-4{opacity:0.25;fill:url(#Degradado_sin_nombre_64);}.cls-4,.cls-9{mix-blend-mode:multiply;}.cls-5{fill:url(#Degradado_sin_nombre_2);}.cls-6{fill:url(#Degradado_sin_nombre_64-2);}.cls-7{fill:url(#Degradado_sin_nombre_3);}.cls-8{fill:url(#Degradado_sin_nombre_7);}.cls-52,.cls-9{opacity:0.4;}.cls-9{fill:url(#Degradado_sin_nombre_64-3);}.cls-10{fill:url(#Degradado_sin_nombre_28);}.cls-11{fill:url(#Degradado_sin_nombre_4);}.cls-12{fill:url(#Degradado_sin_nombre_2-2);}.cls-13{stroke:#47e2e2;}.cls-14{fill:url(#Degradado_sin_nombre_70);}.cls-15{fill:url(#Degradado_sin_nombre_71);}.cls-16{fill:url(#Degradado_sin_nombre_5-3);}.cls-17{fill:url(#Degradado_sin_nombre_2-3);}.cls-18{fill:url(#Degradado_sin_nombre_10);}.cls-19{fill:url(#Degradado_sin_nombre_11);}.cls-20{fill:#e8e8e8;}.cls-21{fill:url(#Degradado_sin_nombre_6);}.cls-22{fill:url(#Degradado_sin_nombre_6-2);}.cls-23{fill:#fff;}.cls-24{fill:url(#Degradado_sin_nombre_59);}.cls-25{fill:url(#Degradado_sin_nombre_9);}.cls-26{fill:url(#Degradado_sin_nombre_59-2);}.cls-27{fill:url(#Degradado_sin_nombre_9-2);}.cls-28{fill:url(#Degradado_sin_nombre_59-3);}.cls-29{fill:url(#Degradado_sin_nombre_59-4);}.cls-30{fill:url(#Degradado_sin_nombre_59-5);}.cls-31{fill:url(#Degradado_sin_nombre_9-3);}.cls-32{fill:url(#Degradado_sin_nombre_59-6);}.cls-33{fill:url(#Degradado_sin_nombre_6-3);}.cls-34{fill:url(#Degradado_sin_nombre_6-4);}.cls-35{fill:url(#Degradado_sin_nombre_6-5);}.cls-36{fill:url(#Degradado_sin_nombre_85);}.cls-37{fill:url(#Degradado_sin_nombre_85-2);}.cls-38{fill:#fecfae;}.cls-39{fill:url(#Degradado_sin_nombre_54);}.cls-40{fill:url(#Degradado_sin_nombre_54-2);}.cls-41{fill:url(#Degradado_sin_nombre_53);}.cls-42{fill:url(#Degradado_sin_nombre_88);}.cls-43{fill:url(#Degradado_sin_nombre_54-3);}.cls-44{fill:url(#Degradado_sin_nombre_5-4);}.cls-45{fill:url(#Degradado_sin_nombre_5-5);}.cls-46{fill:url(#Degradado_sin_nombre_79);}.cls-47{fill:url(#Degradado_sin_nombre_72);}.cls-48{fill:url(#Degradado_sin_nombre_59-7);}.cls-49,.cls-50,.cls-51,.cls-52,.cls-53,.cls-54{stroke:#fff;stroke-width:0.19px;}.cls-50{opacity:0.8;}.cls-51{opacity:0.6;}.cls-53{opacity:0.2;}.cls-54{opacity:0.05;}.cls-55{fill:url(#Degradado_sin_nombre_59-8);}.cls-56{fill:url(#Degradado_sin_nombre_79-2);}.cls-57{fill:url(#Degradado_sin_nombre_72-2);}.cls-58{fill:url(#Degradado_sin_nombre_59-9);}.cls-59{fill:url(#Degradado_sin_nombre_59-10);}.cls-60{fill:url(#Degradado_sin_nombre_79-3);}.cls-61{fill:url(#Degradado_sin_nombre_72-3);}.cls-62{fill:url(#Degradado_sin_nombre_59-11);}.cls-63{fill:url(#Degradado_sin_nombre_59-12);}.cls-64{fill:url(#Degradado_sin_nombre_79-4);}.cls-65{fill:url(#Degradado_sin_nombre_72-4);}.cls-66{fill:url(#Degradado_sin_nombre_59-13);}.cls-67{fill:url(#Degradado_sin_nombre_59-14);}.cls-68{fill:url(#Degradado_sin_nombre_79-5);}.cls-69{fill:url(#Degradado_sin_nombre_72-5);}.cls-70{fill:url(#Degradado_sin_nombre_59-15);}.cls-71{fill:url(#Degradado_sin_nombre_59-16);}</style><linearGradient id="Degradado_sin_nombre_5" y1="237.24" x2="426.17" y2="237.24" gradientUnits="userSpaceOnUse"><stop offset="0" stop-color="#5c5ce0"/><stop offset="1" stop-color="#47e2e2"/></linearGradient><linearGradient id="Degradado_sin_nombre_5-2" x1="22.15" y1="237.24" x2="404.02" y2="237.24" xlink:href="#Degradado_sin_nombre_5"/><linearGradient id="Degradado_sin_nombre_64" x1="175" y1="212.65" x2="247.76" y2="338.66" gradientUnits="userSpaceOnUse"><stop offset="0" stop-color="#5c5ce0"/><stop offset="1" stop-color="#302c68"/></linearGradient><linearGradient id="Degradado_sin_nombre_2" x1="29.5" y1="229.75" x2="393.27" y2="229.75" gradientUnits="userSpaceOnUse"><stop offset="0" stop-color="#4848a3"/><stop offset="1" stop-color="#2f2f72"/></linearGradient><linearGradient id="Degradado_sin_nombre_64-2" x1="175" y1="166.74" x2="247.76" y2="292.76" xlink:href="#Degradado_sin_nombre_64"/><linearGradient id="Degradado_sin_nombre_3" x1="29.5" y1="295.56" x2="175" y2="295.56" gradientUnits="userSpaceOnUse"><stop offset="0" stop-color="#5d5ddb"/><stop offset="1" stop-color="#2f2f72"/></linearGradient><linearGradient id="Degradado_sin_nombre_7" x1="175" y1="274.56" x2="393.27" y2="274.56" gradientUnits="userSpaceOnUse"><stop offset="0" stop-color="#37378c"/><stop offset="1" stop-color="#5d5ddb"/></linearGradient><linearGradient id="Degradado_sin_nombre_64-3" x1="235.87" y1="215.43" x2="350.23" y2="215.43" xlink:href="#Degradado_sin_nombre_64"/><linearGradient id="Degradado_sin_nombre_28" x1="227.41" y1="191.96" x2="276.14" y2="276.37" gradientUnits="userSpaceOnUse"><stop offset="0" stop-color="#47e2e2"/><stop offset="0.07" stop-color="#47e2e2" stop-opacity="0.8"/><stop offset="0.14" stop-color="#47e2e2" stop-opacity="0.61"/><stop offset="0.22" stop-color="#47e2e2" stop-opacity="0.45"/><stop offset="0.3" stop-color="#47e2e2" stop-opacity="0.31"/><stop offset="0.39" stop-color="#47e2e2" stop-opacity="0.19"/><stop offset="0.49" stop-color="#47e2e2" stop-opacity="0.11"/><stop offset="0.6" stop-color="#47e2e2" stop-opacity="0.05"/><stop offset="0.75" stop-color="#47e2e2" stop-opacity="0.01"/><stop offset="1" stop-color="#47e2e2" stop-opacity="0"/></linearGradient><linearGradient id="Degradado_sin_nombre_4" x1="100.72" y1="275.52" x2="264.12" y2="-7.5" gradientUnits="userSpaceOnUse"><stop offset="0" stop-color="#5d5ddb"/><stop offset="1" stop-color="#4e4edd"/></linearGradient><linearGradient id="Degradado_sin_nombre_2-2" x1="89.27" y1="136.13" x2="282.96" y2="136.13" xlink:href="#Degradado_sin_nombre_2"/><linearGradient id="Degradado_sin_nombre_70" x1="109.67" y1="-24.42" x2="113.48" y2="-17.83" gradientTransform="translate(143.97 72.52) rotate(119.92)" gradientUnits="userSpaceOnUse"><stop offset="0" stop-color="#47e2e2"/><stop offset="0.01" stop-color="#47e2e2" stop-opacity="0.88"/><stop offset="0.04" stop-color="#47e2e2" stop-opacity="0.69"/><stop offset="0.06" stop-color="#47e2e2" stop-opacity="0.53"/><stop offset="0.09" stop-color="#47e2e2" stop-opacity="0.38"/><stop offset="0.12" stop-color="#47e2e2" stop-opacity="0.26"/><stop offset="0.16" stop-color="#47e2e2" stop-opacity="0.17"/><stop offset="0.2" stop-color="#47e2e2" stop-opacity="0.09"/><stop offset="0.25" stop-color="#47e2e2" stop-opacity="0.04"/><stop offset="0.33" stop-color="#47e2e2" stop-opacity="0.01"/><stop offset="0.53" stop-color="#47e2e2" stop-opacity="0"/></linearGradient><linearGradient id="Degradado_sin_nombre_71" x1="-64.24" y1="-125.48" x2="-60.44" y2="-118.89" gradientTransform="translate(143.97 72.52) rotate(119.92)" gradientUnits="userSpaceOnUse"><stop offset="0.47" stop-color="#47e2e2" stop-opacity="0"/><stop offset="0.67" stop-color="#47e2e2" stop-opacity="0.01"/><stop offset="0.75" stop-color="#47e2e2" stop-opacity="0.04"/><stop offset="0.8" stop-color="#47e2e2" stop-opacity="0.09"/><stop offset="0.84" stop-color="#47e2e2" stop-opacity="0.17"/><stop offset="0.88" stop-color="#47e2e2" stop-opacity="0.26"/><stop offset="0.91" stop-color="#47e2e2" stop-opacity="0.38"/><stop offset="0.94" stop-color="#47e2e2" stop-opacity="0.53"/><stop offset="0.96" stop-color="#47e2e2" stop-opacity="0.69"/><stop offset="0.99" stop-color="#47e2e2" stop-opacity="0.88"/><stop offset="1" stop-color="#47e2e2"/></linearGradient><linearGradient id="Degradado_sin_nombre_5-3" x1="110.32" y1="129.94" x2="276.31" y2="129.94" xlink:href="#Degradado_sin_nombre_5"/><linearGradient id="Degradado_sin_nombre_2-3" x1="131.37" y1="127.38" x2="257.7" y2="127.38" xlink:href="#Degradado_sin_nombre_2"/><linearGradient id="Degradado_sin_nombre_10" x1="130.51" y1="227.05" x2="130.51" y2="99.64" gradientUnits="userSpaceOnUse"><stop offset="0" stop-color="#5151f2"/><stop offset="1" stop-color="#8383ff"/></linearGradient><linearGradient id="Degradado_sin_nombre_11" x1="129.65" y1="63.67" x2="257.7" y2="63.67" gradientUnits="userSpaceOnUse"><stop offset="0" stop-color="#7676ff"/><stop offset="1" stop-color="#78acff"/></linearGradient><linearGradient id="Degradado_sin_nombre_6" x1="224.01" y1="92.13" x2="261.91" y2="92.13" gradientUnits="userSpaceOnUse"><stop offset="0" stop-color="#ad39ff"/><stop offset="1" stop-color="#f44a9b"/></linearGradient><linearGradient id="Degradado_sin_nombre_6-2" x1="223.84" y1="120.09" x2="223.84" y2="85.85" xlink:href="#Degradado_sin_nombre_6"/><linearGradient id="Degradado_sin_nombre_59" x1="156.29" y1="107.83" x2="215.59" y2="107.83" gradientUnits="userSpaceOnUse"><stop offset="0" stop-color="#ff8948"/><stop offset="1" stop-color="#ffe4a9"/></linearGradient><linearGradient id="Degradado_sin_nombre_9" x1="156.64" y1="146.83" x2="215.59" y2="146.83" gradientUnits="userSpaceOnUse"><stop offset="0" stop-color="#ffc536"/><stop offset="1" stop-color="#ff8948"/></linearGradient><linearGradient id="Degradado_sin_nombre_59-2" x1="156.47" y1="202.74" x2="156.47" y2="124.74" xlink:href="#Degradado_sin_nombre_59"/><linearGradient id="Degradado_sin_nombre_9-2" x1="163.14" y1="79.43" x2="268.4" y2="79.43" xlink:href="#Degradado_sin_nombre_9"/><linearGradient id="Degradado_sin_nombre_59-3" x1="162.96" y1="121.98" x2="162.96" y2="97.46" xlink:href="#Degradado_sin_nombre_59"/><linearGradient id="Degradado_sin_nombre_59-4" x1="162.78" y1="67.18" x2="268.4" y2="67.18" xlink:href="#Degradado_sin_nombre_59"/><linearGradient id="Degradado_sin_nombre_59-5" x1="156.29" y1="177.11" x2="261.91" y2="177.11" xlink:href="#Degradado_sin_nombre_59"/><linearGradient id="Degradado_sin_nombre_9-3" x1="156.64" y1="182.08" x2="261.91" y2="182.08" xlink:href="#Degradado_sin_nombre_9"/><linearGradient id="Degradado_sin_nombre_59-6" x1="156.47" y1="217.33" x2="156.47" y2="207.4" xlink:href="#Degradado_sin_nombre_59"/><linearGradient id="Degradado_sin_nombre_6-3" x1="224.01" y1="133.46" x2="261.91" y2="133.46" xlink:href="#Degradado_sin_nombre_6"/><linearGradient id="Degradado_sin_nombre_6-4" x1="223.84" y1="163.86" x2="223.84" y2="124.74" xlink:href="#Degradado_sin_nombre_6"/><linearGradient id="Degradado_sin_nombre_6-5" x1="223.66" y1="113.9" x2="261.91" y2="113.9" xlink:href="#Degradado_sin_nombre_6"/><linearGradient id="Degradado_sin_nombre_85" x1="233.24" y1="196.75" x2="247.29" y2="196.75" gradientUnits="userSpaceOnUse"><stop offset="0" stop-color="#d16822"/><stop offset="0.11" stop-color="#ab582c"/><stop offset="0.24" stop-color="#844737"/><stop offset="0.38" stop-color="#633940"/><stop offset="0.52" stop-color="#492e46"/><stop offset="0.67" stop-color="#37264b"/><stop offset="0.82" stop-color="#2c214e"/><stop offset="1" stop-color="#29204f"/></linearGradient><linearGradient id="Degradado_sin_nombre_85-2" x1="245.69" y1="189.09" x2="259.73" y2="189.09" xlink:href="#Degradado_sin_nombre_85"/><linearGradient id="Degradado_sin_nombre_54" x1="254.77" y1="100.43" x2="260.34" y2="100.43" gradientUnits="userSpaceOnUse"><stop offset="0" stop-color="#5959e2"/><stop offset="1" stop-color="#34283a"/></linearGradient><linearGradient id="Degradado_sin_nombre_54-2" x1="238.76" y1="165.37" x2="260.93" y2="165.37" xlink:href="#Degradado_sin_nombre_54"/><linearGradient id="Degradado_sin_nombre_53" x1="236.75" y1="118.24" x2="260.15" y2="118.24" gradientUnits="userSpaceOnUse"><stop offset="0" stop-color="#ff8fa7"/><stop offset="1" stop-color="#bc3b66"/></linearGradient><linearGradient id="Degradado_sin_nombre_88" x1="239.63" y1="83.16" x2="258.6" y2="83.16" gradientUnits="userSpaceOnUse"><stop offset="0" stop-color="#ff953e"/><stop offset="0.07" stop-color="#e8883a"/><stop offset="0.25" stop-color="#b1692f"/><stop offset="0.42" stop-color="#834f27"/><stop offset="0.59" stop-color="#5f3a20"/><stop offset="0.75" stop-color="#452c1b"/><stop offset="0.89" stop-color="#352318"/><stop offset="1" stop-color="#302017"/></linearGradient><linearGradient id="Degradado_sin_nombre_54-3" x1="230.18" y1="109.65" x2="243.49" y2="109.65" xlink:href="#Degradado_sin_nombre_54"/><linearGradient id="Degradado_sin_nombre_5-4" x1="96.5" y1="182.31" x2="105.12" y2="182.31" xlink:href="#Degradado_sin_nombre_5"/><linearGradient id="Degradado_sin_nombre_5-5" x1="280.04" y1="98.04" x2="280.04" y2="82.21" xlink:href="#Degradado_sin_nombre_5"/><linearGradient id="Degradado_sin_nombre_79" x1="440.05" y1="58.63" x2="484.32" y2="58.63" gradientTransform="matrix(-1, 0, 0, 1, 815.97, 0)" gradientUnits="userSpaceOnUse"><stop offset="0" stop-color="#fff" stop-opacity="0"/><stop offset="0.37" stop-color="#fff" stop-opacity="0.01"/><stop offset="0.51" stop-color="#fff" stop-opacity="0.03"/><stop offset="0.6" stop-color="#fff" stop-opacity="0.08"/><stop offset="0.68" stop-color="#fff" stop-opacity="0.15"/><stop offset="0.75" stop-color="#fff" stop-opacity="0.23"/><stop offset="0.8" stop-color="#fff" stop-opacity="0.34"/><stop offset="0.86" stop-color="#fff" stop-opacity="0.47"/><stop offset="0.91" stop-color="#fff" stop-opacity="0.61"/><stop offset="0.95" stop-color="#fff" stop-opacity="0.78"/><stop offset="0.99" stop-color="#fff" stop-opacity="0.96"/><stop offset="1" stop-color="#fff"/></linearGradient><linearGradient id="Degradado_sin_nombre_72" x1="484.32" y1="38.46" x2="513.31" y2="38.46" gradientTransform="matrix(-1, 0, 0, 1, 815.97, 0)" gradientUnits="userSpaceOnUse"><stop offset="0" stop-color="#5c5ce0"/><stop offset="1" stop-color="#bc56e2"/></linearGradient><linearGradient id="Degradado_sin_nombre_59-7" x1="483.36" y1="63.09" x2="483.36" y2="29.24" gradientTransform="matrix(-1, 0, 0, 1, 815.97, 0)" xlink:href="#Degradado_sin_nombre_59"/><linearGradient id="Degradado_sin_nombre_59-8" x1="482.39" y1="21.53" x2="513.31" y2="21.53" gradientTransform="matrix(-1, 0, 0, 1, 815.97, 0)" xlink:href="#Degradado_sin_nombre_59"/><linearGradient id="Degradado_sin_nombre_79-2" x1="440.05" y1="104.21" x2="484.32" y2="104.21" xlink:href="#Degradado_sin_nombre_79"/><linearGradient id="Degradado_sin_nombre_72-2" x1="484.32" y1="84.03" x2="513.31" y2="84.03" xlink:href="#Degradado_sin_nombre_72"/><linearGradient id="Degradado_sin_nombre_59-9" x1="483.36" y1="108.67" x2="483.36" y2="74.82" gradientTransform="matrix(-1, 0, 0, 1, 815.97, 0)" xlink:href="#Degradado_sin_nombre_59"/><linearGradient id="Degradado_sin_nombre_59-10" x1="482.39" y1="67.11" x2="513.31" y2="67.11" gradientTransform="matrix(-1, 0, 0, 1, 815.97, 0)" xlink:href="#Degradado_sin_nombre_59"/><linearGradient id="Degradado_sin_nombre_79-3" x1="390.98" y1="86.66" x2="435.25" y2="86.66" xlink:href="#Degradado_sin_nombre_79"/><linearGradient id="Degradado_sin_nombre_72-3" x1="435.25" y1="66.49" x2="464.24" y2="66.49" xlink:href="#Degradado_sin_nombre_72"/><linearGradient id="Degradado_sin_nombre_59-11" x1="434.29" y1="91.12" x2="434.29" y2="57.27" gradientTransform="matrix(-1, 0, 0, 1, 815.97, 0)" xlink:href="#Degradado_sin_nombre_59"/><linearGradient id="Degradado_sin_nombre_59-12" x1="433.32" y1="49.56" x2="464.24" y2="49.56" gradientTransform="matrix(-1, 0, 0, 1, 815.97, 0)" xlink:href="#Degradado_sin_nombre_59"/><linearGradient id="Degradado_sin_nombre_79-4" x1="390.98" y1="132.24" x2="435.25" y2="132.24" xlink:href="#Degradado_sin_nombre_79"/><linearGradient id="Degradado_sin_nombre_72-4" x1="435.25" y1="112.06" x2="464.24" y2="112.06" xlink:href="#Degradado_sin_nombre_72"/><linearGradient id="Degradado_sin_nombre_59-13" x1="434.29" y1="136.7" x2="434.29" y2="102.85" gradientTransform="matrix(-1, 0, 0, 1, 815.97, 0)" xlink:href="#Degradado_sin_nombre_59"/><linearGradient id="Degradado_sin_nombre_59-14" x1="433.32" y1="95.14" x2="464.24" y2="95.14" gradientTransform="matrix(-1, 0, 0, 1, 815.97, 0)" xlink:href="#Degradado_sin_nombre_59"/><linearGradient id="Degradado_sin_nombre_79-5" x1="440.05" y1="147.85" x2="484.32" y2="147.85" xlink:href="#Degradado_sin_nombre_79"/><linearGradient id="Degradado_sin_nombre_72-5" x1="484.32" y1="127.68" x2="513.31" y2="127.68" xlink:href="#Degradado_sin_nombre_72"/><linearGradient id="Degradado_sin_nombre_59-15" x1="483.36" y1="152.31" x2="483.36" y2="118.46" gradientTransform="matrix(-1, 0, 0, 1, 815.97, 0)" xlink:href="#Degradado_sin_nombre_59"/><linearGradient id="Degradado_sin_nombre_59-16" x1="482.39" y1="110.75" x2="513.31" y2="110.75" gradientTransform="matrix(-1, 0, 0, 1, 815.97, 0)" xlink:href="#Degradado_sin_nombre_59"/></defs><title>Asset 1</title><g class="cls-1"><g id="Layer_2" data-name="Layer 2"><g id="OBJECTS"><polygon class="cls-2" points="170.52 360.12 0.26 261.81 255.65 114.36 425.91 212.66 170.52 360.12"/><polygon class="cls-3" points="175 347.18 22.66 259.23 251.17 127.3 403.51 215.25 175 347.18"/><polygon class="cls-4" points="175 380.67 29.5 296.66 247.76 170.64 393.27 254.65 175 380.67"/><polygon class="cls-5" points="175 334.76 29.5 250.75 247.76 124.74 393.27 208.75 175 334.76"/><polygon class="cls-6" points="175 334.76 29.5 250.75 247.76 124.74 393.27 208.75 175 334.76"/><polygon class="cls-7" points="175 334.76 175 340.37 29.5 256.35 29.5 250.75 175 334.76"/><polygon class="cls-8" points="175 340.37 393.27 214.35 393.27 208.75 175 334.76 175 340.37"/><path class="cls-9" d="M350.23,233.6c-5.21-9.58-24.6-23.15-49.65-33.89-31.74-13.6-60.53-17.49-64.3-8.68s18.9,27,50.64,40.57c16.65,7.14,32.49,11.59,44.34,13Z"/><polygon class="cls-10" points="175 334.76 110.33 259.65 276.31 163.73 393.27 208.75 175 334.76"/><path class="cls-11" d="M281.13,2.37,277.82.42h0a2.94,2.94,0,0,0-3,0L89.67,107.29a8.12,8.12,0,0,0-4.06,7V265.15a2.81,2.81,0,0,0,1.69,2.59h0l3.61,2.11.43-1.38-.58-1.36L275.24,160.6a8.16,8.16,0,0,0,4.07-7V3a2.73,2.73,0,0,0,0-.41h1.31Z"/><path class="cls-12" d="M89.27,267.28V116.44a8.11,8.11,0,0,1,4.06-7L278.46,2.54a3,3,0,0,1,4.5,2.6V155.68a8.14,8.14,0,0,1-4.07,7l-185.35,107A2.85,2.85,0,0,1,89.27,267.28Z"/><path class="cls-13" d="M94.37,271.36V120.52a8.11,8.11,0,0,1,4.06-7L283.56,6.62a3,3,0,0,1,4.5,2.6V159.76a8.14,8.14,0,0,1-4.07,7.05l-185.35,107A2.85,2.85,0,0,1,94.37,271.36Z"/><path class="cls-13" d="M100.06,274.8V124a8.11,8.11,0,0,1,4-7L289.24,10.06a3,3,0,0,1,4.51,2.6V163.2a8.13,8.13,0,0,1-4.07,7.05l-185.36,107A2.84,2.84,0,0,1,100.06,274.8Z"/><path class="cls-13" d="M105.74,278.24V127.41a8.11,8.11,0,0,1,4.05-7L294.93,13.5a3,3,0,0,1,4.5,2.6V166.64a8.13,8.13,0,0,1-4.07,7.05L110,280.7A2.84,2.84,0,0,1,105.74,278.24Z"/><polygon class="cls-14" points="110.33 104.15 110.33 251.59 102.97 255.36 102.71 108.52 110.33 104.15"/><polygon class="cls-15" points="284.66 3.6 284.66 151.5 277.31 155.27 277.05 7.98 284.66 3.6"/><polygon class="cls-16" points="110.33 251.59 110.33 104.15 276.31 8.29 276.31 155.74 110.33 251.59"/><polygon class="cls-17" points="131.37 100.64 257.7 27.71 257.7 154.12 131.37 227.05 131.37 100.64"/><polygon class="cls-18" points="131.37 227.05 129.65 226.05 129.65 99.64 131.37 100.64 131.37 227.05"/><polygon class="cls-19" points="131.37 100.64 257.7 27.71 255.97 26.7 129.65 99.64 131.37 100.64"/><polygon class="cls-20" points="223.66 85.85 261.56 63.97 261.91 64.17 224.01 86.06 223.66 85.85"/><polygon class="cls-21" points="261.91 64.17 224.01 86.06 224.01 120.09 261.91 98.21 261.91 64.17"/><polygon class="cls-22" points="224.01 86.06 223.66 85.85 223.66 119.88 224.01 120.09 224.01 86.06"/><path class="cls-23" d="M228.31,93.46a1.66,1.66,0,0,1-.3.94,2.29,2.29,0,0,1-.8.74,1.85,1.85,0,0,1-.85.3v-.57a1.39,1.39,0,0,0,.44-.07,1.7,1.7,0,0,0,.44-.18,1.27,1.27,0,0,0,.43-.39.74.74,0,0,0,.14-.44.3.3,0,0,0-.12-.28,1.33,1.33,0,0,0-.54,0,.74.74,0,0,1-.58-.12.69.69,0,0,1-.17-.53,1.59,1.59,0,0,1,.27-.88,2,2,0,0,1,.72-.68,2,2,0,0,1,.87-.28l-.16.58a1.56,1.56,0,0,0-.72.22,1,1,0,0,0-.37.34.75.75,0,0,0-.12.4.42.42,0,0,0,.05.22.26.26,0,0,0,.16.1,2.07,2.07,0,0,0,.42,0,1.69,1.69,0,0,1,.49,0,.4.4,0,0,1,.22.2A.81.81,0,0,1,228.31,93.46Z"/><path class="cls-23" d="M228.89,94.11V90.45l.5-.29v3.67Z"/><path class="cls-23" d="M232.66,90.06a3.17,3.17,0,0,1-.42,1.63,3.1,3.1,0,0,1-1.2,1.18l-.85.49V89.7l.94-.55c.49-.28.86-.34,1.13-.18S232.66,89.49,232.66,90.06Zm-.52.33c0-.88-.34-1.12-1-.73l-.43.25v2.66l.35-.2A2.15,2.15,0,0,0,232.14,90.39Z"/><path class="cls-23" d="M235,90.56l-1.71,1V87.89l1.71-1v.51l-1.22.71v1l1.15-.66v.5l-1.15.66v1.16l1.22-.71Z"/><path class="cls-23" d="M235.69,86.51l.9-.52a1.56,1.56,0,0,1,.91-.31c.19,0,.28.22.28.54a1.43,1.43,0,0,1-.14.61,1.36,1.36,0,0,1-.39.5v0c.21-.07.37-.07.47,0a.62.62,0,0,1,.15.49,1.73,1.73,0,0,1-.29.94,2.17,2.17,0,0,1-.79.74l-1.1.64Zm.5,1.23.48-.28a1.6,1.6,0,0,0,.45-.38.88.88,0,0,0,.14-.49c0-.17,0-.27-.15-.28a.83.83,0,0,0-.49.17l-.43.25Zm0,.48v1.17l.52-.31a1.43,1.43,0,0,0,.48-.42,1,1,0,0,0,.15-.54c0-.2-.05-.31-.16-.33a.75.75,0,0,0-.49.14Z"/><path class="cls-23" d="M240.38,87.46l-.3-.84-1.16.67-.3,1.19-.52.3,1.13-4.34.55-.31,1.13,3ZM240,86.17l-.29-.83s0-.14-.08-.26-.06-.22-.08-.28a7.1,7.1,0,0,1-.16.77l-.28,1.12Z"/><path class="cls-23" d="M241.81,85.17v1.46l-.5.29V83.25l.86-.49q.59-.35.87-.24c.19.07.28.28.28.64a1.89,1.89,0,0,1-.59,1.31l.86,1.13-.56.33-.73-1.05Zm0-.5.34-.2a1.34,1.34,0,0,0,.51-.45,1,1,0,0,0,.15-.55c0-.2-.05-.32-.17-.35a.82.82,0,0,0-.5.16l-.33.19Z"/><polygon class="cls-24" points="156.29 124.74 215.24 90.71 215.59 90.92 156.64 124.95 156.29 124.74"/><polygon class="cls-25" points="156.64 124.95 215.59 90.92 215.59 168.71 156.64 202.74 156.64 124.95"/><polygon class="cls-26" points="156.64 124.95 156.29 124.74 156.29 202.54 156.64 202.74 156.64 124.95"/><polygon class="cls-27" points="163.13 97.67 268.4 36.89 268.4 61.2 163.13 121.98 163.13 97.67"/><polygon class="cls-28" points="163.13 121.98 162.78 121.78 162.78 97.46 163.13 97.67 163.13 121.98"/><polygon class="cls-29" points="162.78 97.46 268.05 36.69 268.4 36.89 163.13 97.67 162.78 97.46"/><path class="cls-23" d="M171.65,102.27l-.88.51-2.18-3,0,0,0,.22c0,.44,0,.85,0,1.22V104l-.65.38V99.06l.87-.51,2.17,3h0c0-.06,0-.26,0-.6s0-.62,0-.82V97.3l.66-.38Z"/><path class="cls-23" d="M175.57,100l-.44-1.23-1.7,1-.43,1.73-.76.45,1.65-6.33.79-.46,1.66,4.41Zm-.63-1.87-.42-1.22q0-.12-.12-.39c-.06-.17-.1-.31-.12-.39-.05.33-.13.7-.23,1.12l-.4,1.62Z"/><path class="cls-23" d="M179.44,92.41l.76-.44-1.55,6.24-.77.45-1.54-4.45.74-.43.93,2.78c0,.13.1.31.15.53s.09.38.11.49a6.19,6.19,0,0,1,.12-.71c.05-.28.1-.48.13-.62Z"/><polygon class="cls-30" points="156.29 207.4 261.56 146.62 261.91 146.82 156.64 207.6 156.29 207.4"/><polygon class="cls-31" points="156.64 207.6 261.91 146.82 261.91 156.55 156.64 217.33 156.64 207.6"/><polygon class="cls-32" points="156.64 207.6 156.29 207.4 156.29 217.12 156.64 217.33 156.64 207.6"/><polygon class="cls-33" points="261.91 103.06 224.01 124.94 224.01 163.85 261.91 141.97 261.91 103.06"/><polygon class="cls-34" points="224.01 124.95 223.66 124.74 223.66 163.66 224.01 163.86 224.01 124.95"/><polygon class="cls-35" points="223.66 124.74 261.56 102.86 261.91 103.06 224.01 124.95 223.66 124.74"/><path class="cls-36" d="M247.1,195.3c0,1.34,1.28,5.55-2.53,5.48-2.95.36-9.09-4.52-10.84-5.53s1.21-3.76,8.56-2C243.53,193.86,247.1,195.3,247.1,195.3Z"/><path class="cls-37" d="M259.55,187.64c-.05,1.34,1.27,5.56-2.54,5.49-2.95.35-9.08-4.52-10.83-5.53s1.2-3.77,8.56-2C256,186.21,259.55,187.64,259.55,187.64Z"/><path class="cls-38" d="M239.63,78.21l9.93,24.72,2.77-4-8.55-23.12a14.06,14.06,0,0,0-2.42-4.7c-.76-.66-5.58-.94-5,1.61.06,1.49,3.23,2.9,2.5,3.77-.22.26-1.27-.06-2.23.59-.78.48.35,1.11.89.89A3.52,3.52,0,0,1,239.63,78.21Z"/><path class="cls-39" d="M254.77,95.32c4.34-.76,6.88,2.67,4.86,8.83S254.77,95.32,254.77,95.32Z"/><path class="cls-38" d="M211.12,98.11,228,115l2.49-2.65s7.53,1.32,4.91,4.31-5.18,4.24-8.21,4.52c-2.53.24-19.17-20.19-19.17-20.19a9.56,9.56,0,0,1-4-6.69c.26-1.24,1.94-3.85,3.78-4.14,1.29,0,2.27,3,2.61,4.06s.78.24,1.53-.51,1.58-.24.3,1.91C211.71,96.36,212.13,97.46,211.12,98.11Z"/><path class="cls-40" d="M258.6,133.46l-4.52-.5-.44,2.2-5.19,1-8.4,2-1.29,28.63,2.94,30a4.6,4.6,0,0,0,5.6,0s2.75-22.2-.74-29.33a52,52,0,0,1,4.28-9.23v7.18L254.08,191c5.63,1.4,5.59-2,5.59-2,1.23-12-1.28-25-1.28-25C258.26,156.88,264,140.1,258.6,133.46Z"/><path class="cls-41" d="M246.33,97.83c1.39,1.26,6.95.27,6.85-1.79,1.27-.5,2.18-.94,3.49-.6,3.12.8,2.62,5.68,2.91,8.21.69,5.93.23,20.79.57,30.18,0,2.92-5.16,6.06-11,7.14-4.06.74-10.43-.74-10.4-2s-.3-17.88-1.27-21.48-1-12.69.44-14.52C239.79,100.62,246.33,97.83,246.33,97.83Z"/><path class="cls-38" d="M240.16,81.19c-1,2.18,0,3.32-.09,4.92,0,1.41-1.07,7.32,1.72,8a9.26,9.26,0,0,0,3.29.21l1.43,4.07c.79,1.54,7.32.87,6.79-2.38L253,93.1c1.48-.68,4.22-3.14,4.22-8s-5.17-8.6-9.84-8.6S240.44,80.59,240.16,81.19Z"/><path class="cls-42" d="M244.24,87.35c.77-.46,2.6,1.82.24,3.87a2.94,2.94,0,0,0,.87,2.08c.59.66-.5.72,1.09,1.53s4.37.24,4.91.46c0-.55.94-.26,1.75-1.85C254.19,92,255.71,92,257,89.05a7.79,7.79,0,0,0,.89-3.34,4,4,0,0,1,.38,2.14s1.62-4.73-2.21-7.74a3.81,3.81,0,0,1,2.34,1.12,5.83,5.83,0,0,0-4-2.55c-1.51-.68-1.22-1.83-4.37-2.32s-3-2.64-2.49-3.52c0,0-1.9,1.49-1.76,2.75a4.34,4.34,0,0,1,.52-4.56s-2.91,1.32-2.78,5.48a6.28,6.28,0,0,1-.24-3.23c-.72.24-4.71,5.42-3.4,8.63S244.09,85,244,86.05,244.24,87.35,244.24,87.35Z"/><path class="cls-43" d="M240.07,101.22c-3.81,1.14-6.34,5.28-9.89,10.7.06,1.19,2.42,5.24,5.16,6.32a67,67,0,0,0,6.19-7.19C244.09,107.05,244.64,99.85,240.07,101.22Z"/><path class="cls-44" d="M104,184.18c-1.62,2.73-4.35,4.11-6.1,3.07s-1.84-4.09-.22-6.82,4.35-4.1,6.09-3.07S105.59,181.45,104,184.18Z"/><path class="cls-45" d="M280,82.29h0a.58.58,0,0,1,.88.5V96.72a1.43,1.43,0,0,1-.72,1.24h0a.62.62,0,0,1-.93-.54V83.62A1.54,1.54,0,0,1,280,82.29Z"/><path class="cls-23" d="M163.36,128.81a2.48,2.48,0,0,0-1,1.1,4,4,0,0,0-.35,1.68,1.73,1.73,0,0,0,.34,1.29c.23.2.56.18,1-.07a5.93,5.93,0,0,0,.54-.38c.18-.15.36-.31.55-.5v.75a5.63,5.63,0,0,1-1.18.93q-1,.55-1.5.15a2.18,2.18,0,0,1-.52-1.73,5.12,5.12,0,0,1,.26-1.61,4.56,4.56,0,0,1,.73-1.38,3.86,3.86,0,0,1,1.12-1,2.54,2.54,0,0,1,1.25-.39l-.26.88a2.79,2.79,0,0,0-.47,0A1.5,1.5,0,0,0,163.36,128.81Z"/><path class="cls-23" d="M169.33,127.34a5,5,0,0,1-.54,2.34,3.9,3.9,0,0,1-1.53,1.61c-.67.39-1.18.45-1.54.18a2.12,2.12,0,0,1-.54-1.73,4.94,4.94,0,0,1,.54-2.35,3.92,3.92,0,0,1,1.55-1.6c.66-.38,1.16-.44,1.52-.17A2.11,2.11,0,0,1,169.33,127.34Zm-3.38,2a1.83,1.83,0,0,0,.33,1.3c.22.22.55.2,1,0a2.4,2.4,0,0,0,1-1.07,3.93,3.93,0,0,0,.33-1.7,1.93,1.93,0,0,0-.32-1.3c-.22-.21-.54-.19-1,.06a2.39,2.39,0,0,0-1,1.07A4,4,0,0,0,166,129.3Z"/><path class="cls-23" d="M174,127.33l-.89.52-2.17-3h0l0,.23c0,.44,0,.84,0,1.22v2.78l-.66.38v-5.35l.88-.51,2.17,3h0s0-.25,0-.59,0-.62,0-.82v-2.8L174,122Z"/><path class="cls-23" d="M176.67,125.77l-.73.42v-4.6l-1.3.76v-.75l3.33-1.93v.75l-1.3.75Z"/><path class="cls-23" d="M181.15,123.17l-2.5,1.45v-5.34l2.5-1.45v.74l-1.78,1v1.45l1.67-1v.74l-1.67,1v1.68l1.78-1Z"/><path class="cls-23" d="M185.8,120.48l-.89.51-2.18-3h0v.23c0,.44.05.84.05,1.22v2.78l-.66.38v-5.35l.88-.51,2.17,3h0s0-.25,0-.6,0-.61,0-.81v-2.8l.67-.38Z"/><path class="cls-23" d="M188.49,118.92l-.72.42v-4.6l-1.3.76v-.75l3.33-1.93v.75l-1.31.75Z"/><path class="cls-23" d="M161.72,210.86l-.46.27V207.7l1.61-.93v.47l-1.15.66V209l1.07-.62v.47l-1.07.62Z"/><path class="cls-23" d="M165.91,206.72a3.19,3.19,0,0,1-.35,1.5,2.52,2.52,0,0,1-1,1c-.43.24-.76.28-1,.11a1.37,1.37,0,0,1-.35-1.11,3.2,3.2,0,0,1,.35-1.51,2.52,2.52,0,0,1,1-1c.42-.24.75-.28,1-.1A1.33,1.33,0,0,1,165.91,206.72ZM163.74,208a1.17,1.17,0,0,0,.21.83q.21.21.63,0a1.54,1.54,0,0,0,.62-.69,2.55,2.55,0,0,0,.21-1.09,1.17,1.17,0,0,0-.21-.83c-.14-.14-.34-.13-.62,0a1.51,1.51,0,0,0-.63.69A2.55,2.55,0,0,0,163.74,208Z"/><path class="cls-23" d="M169,204.9a3.26,3.26,0,0,1-.35,1.51,2.5,2.5,0,0,1-1,1c-.43.25-.76.29-1,.11s-.34-.54-.34-1.11a3.2,3.2,0,0,1,.34-1.51,2.49,2.49,0,0,1,1-1c.43-.25.75-.28,1-.11A1.35,1.35,0,0,1,169,204.9Zm-2.17,1.26a1.22,1.22,0,0,0,.21.84c.14.13.35.12.63,0a1.49,1.49,0,0,0,.62-.69,2.34,2.34,0,0,0,.22-1.08,1.22,1.22,0,0,0-.21-.84c-.14-.14-.35-.12-.63,0a1.51,1.51,0,0,0-.63.69A2.54,2.54,0,0,0,166.87,206.16Z"/><path class="cls-23" d="M170.63,205.7l-.46.27V203l-.84.48V203l2.14-1.24v.49l-.84.48Z"/><path class="cls-23" d="M173.51,204l-1.61.93v-3.43l1.61-.93v.47l-1.14.67v.93l1.07-.62v.47l-1.07.62v1.08l1.14-.66Z"/><path class="cls-23" d="M174.59,202v1.37l-.47.27v-3.44l.81-.46c.37-.21.64-.29.81-.22s.27.26.27.59a1.82,1.82,0,0,1-.56,1.24l.81,1.05-.53.31-.68-1Zm0-.47.32-.18a1.31,1.31,0,0,0,.47-.42,1,1,0,0,0,.15-.52c0-.19-.05-.3-.16-.33a.79.79,0,0,0-.47.15l-.31.18Z"/><path class="cls-23" d="M136.21,104.67l1.31-.77a2.22,2.22,0,0,1,1.32-.44c.28.06.41.32.41.78a2,2,0,0,1-.2.9,2,2,0,0,1-.57.72v0c.31-.11.54-.11.68,0a.9.9,0,0,1,.22.72A2.57,2.57,0,0,1,139,108a3.33,3.33,0,0,1-1.16,1.07l-1.6.93Zm.72,1.79.7-.41a2,2,0,0,0,.66-.56,1.17,1.17,0,0,0,.21-.71c0-.25-.07-.39-.23-.41a1.3,1.3,0,0,0-.71.24l-.63.37Zm0,.7v1.7l.77-.45a2.07,2.07,0,0,0,.69-.61,1.41,1.41,0,0,0,.23-.79c0-.28-.08-.44-.24-.49a1.06,1.06,0,0,0-.71.22Z"/><path class="cls-23" d="M144.23,102.68a5,5,0,0,1-.54,2.34,3.84,3.84,0,0,1-1.53,1.61c-.67.39-1.18.45-1.54.18a2.11,2.11,0,0,1-.54-1.73,5,5,0,0,1,.54-2.35,4,4,0,0,1,1.55-1.6c.66-.38,1.16-.44,1.52-.16A2.07,2.07,0,0,1,144.23,102.68Zm-3.38,2a1.88,1.88,0,0,0,.33,1.31c.22.21.55.19,1-.06a2.42,2.42,0,0,0,1-1.07,4.08,4.08,0,0,0,.32-1.69,1.94,1.94,0,0,0-.32-1.31c-.22-.21-.54-.19-1,.06a2.41,2.41,0,0,0-1,1.08A3.87,3.87,0,0,0,140.85,104.64Z"/><path class="cls-23" d="M148.78,100a4.55,4.55,0,0,1-2.36,4.09l-1.24.72V99.47l1.37-.8c.71-.4,1.25-.49,1.65-.26S148.78,99.17,148.78,100Zm-.76.47c0-1.28-.5-1.63-1.49-1.06l-.62.37v3.88l.51-.3A3.1,3.1,0,0,0,148,100.47Z"/><path class="cls-23" d="M151,98.54l1-3,.79-.46-1.48,4.13v2.07l-.72.42v-2l-1.47-2.45.79-.46Z"/><polygon class="cls-46" points="332.52 28.63 375.92 53.31 375.92 88.63 331.65 63.09 332.52 28.63"/><polygon class="cls-47" points="331.65 30.34 302.65 13.82 302.65 46.58 331.65 63.09 331.65 30.34"/><polygon class="cls-48" points="331.65 63.09 333.58 61.99 333.58 29.24 331.65 30.34 331.65 63.09"/><polygon class="cls-49" points="334.79 64.9 336.72 63.8 336.72 31.05 334.79 32.15 334.79 64.9"/><polygon class="cls-49" points="339.02 67.3 340.95 66.2 340.95 33.45 339.02 34.55 339.02 67.3"/><polygon class="cls-50" points="343.26 69.7 345.19 68.6 345.19 35.85 343.26 36.94 343.26 69.7"/><polygon class="cls-51" points="347.49 72.09 349.42 71 349.42 38.24 347.49 39.34 347.49 72.09"/><polygon class="cls-52" points="351.73 74.49 353.65 73.39 353.65 40.64 351.73 41.74 351.73 74.49"/><polygon class="cls-53" points="355.96 76.89 357.89 75.79 357.89 43.04 355.96 44.14 355.96 76.89"/><polygon class="cls-54" points="360.19 79.29 362.12 78.19 362.12 45.44 360.19 46.53 360.19 79.29"/><polygon class="cls-55" points="333.58 29.24 304.58 12.73 302.65 13.82 331.65 30.34 333.58 29.24"/><polygon class="cls-56" points="332.52 74.21 375.92 98.88 375.92 134.21 331.65 108.67 332.52 74.21"/><polygon class="cls-57" points="331.65 75.92 302.65 59.4 302.65 92.15 331.65 108.67 331.65 75.92"/><polygon class="cls-58" points="331.65 108.67 333.58 107.57 333.58 74.82 331.65 75.92 331.65 108.67"/><polygon class="cls-49" points="334.79 110.48 336.72 109.38 336.72 76.63 334.79 77.72 334.79 110.48"/><polygon class="cls-49" points="339.02 112.87 340.95 111.78 340.95 79.03 339.02 80.12 339.02 112.87"/><polygon class="cls-50" points="343.26 115.27 345.19 114.17 345.19 81.42 343.26 82.52 343.26 115.27"/><polygon class="cls-51" points="347.49 117.67 349.42 116.57 349.42 83.82 347.49 84.92 347.49 117.67"/><polygon class="cls-52" points="351.73 120.07 353.65 118.97 353.65 86.22 351.73 87.31 351.73 120.07"/><polygon class="cls-53" points="355.96 122.47 357.89 121.37 357.89 88.61 355.96 89.71 355.96 122.47"/><polygon class="cls-54" points="360.19 124.86 362.12 123.76 362.12 91.01 360.19 92.11 360.19 124.86"/><polygon class="cls-59" points="333.58 74.82 304.58 58.3 302.65 59.4 331.65 75.92 333.58 74.82"/><polygon class="cls-60" points="381.59 56.67 424.99 81.34 424.99 116.66 380.72 91.12 381.59 56.67"/><polygon class="cls-61" points="380.72 58.37 351.73 41.85 351.73 74.61 380.72 91.12 380.72 58.37"/><polygon class="cls-62" points="380.72 91.12 382.65 90.02 382.65 57.27 380.72 58.37 380.72 91.12"/><polygon class="cls-49" points="383.86 92.93 385.79 91.83 385.79 59.08 383.86 60.18 383.86 92.93"/><polygon class="cls-49" points="388.1 95.33 390.02 94.23 390.02 61.48 388.1 62.58 388.1 95.33"/><polygon class="cls-50" points="392.33 97.73 394.26 96.63 394.26 63.88 392.33 64.97 392.33 97.73"/><polygon class="cls-51" points="396.56 100.13 398.49 99.03 398.49 66.28 396.56 67.37 396.56 100.13"/><polygon class="cls-52" points="400.8 102.52 402.73 101.42 402.73 68.67 400.8 69.77 400.8 102.52"/><polygon class="cls-53" points="405.03 104.92 406.96 103.82 406.96 71.07 405.03 72.17 405.03 104.92"/><polygon class="cls-54" points="409.26 107.32 411.19 106.22 411.19 73.47 409.26 74.57 409.26 107.32"/><polygon class="cls-63" points="382.65 57.27 353.65 40.76 351.73 41.85 380.72 58.37 382.65 57.27"/><polygon class="cls-64" points="381.59 102.24 424.99 126.91 424.99 162.24 380.72 136.7 381.59 102.24"/><polygon class="cls-65" points="380.72 103.95 351.73 87.43 351.73 120.18 380.72 136.7 380.72 103.95"/><polygon class="cls-66" points="380.72 136.7 382.65 135.6 382.65 102.85 380.72 103.95 380.72 136.7"/><polygon class="cls-49" points="383.86 138.51 385.79 137.41 385.79 104.66 383.86 105.76 383.86 138.51"/><polygon class="cls-49" points="388.1 140.91 390.02 139.81 390.02 107.06 388.1 108.15 388.1 140.91"/><polygon class="cls-50" points="392.33 143.3 394.26 142.21 394.26 109.45 392.33 110.55 392.33 143.3"/><polygon class="cls-51" points="396.56 145.7 398.49 144.6 398.49 111.85 396.56 112.95 396.56 145.7"/><polygon class="cls-52" points="400.8 148.1 402.73 147 402.73 114.25 400.8 115.35 400.8 148.1"/><polygon class="cls-53" points="405.03 150.5 406.96 149.4 406.96 116.65 405.03 117.74 405.03 150.5"/><polygon class="cls-54" points="409.26 152.89 411.19 151.8 411.19 119.04 409.26 120.14 409.26 152.89"/><polygon class="cls-67" points="382.65 102.85 353.65 86.34 351.73 87.43 380.72 103.95 382.65 102.85"/><polygon class="cls-68" points="332.52 117.86 375.92 142.53 375.92 177.85 331.65 152.31 332.52 117.86"/><polygon class="cls-69" points="331.65 119.56 302.65 103.05 302.65 135.8 331.65 152.31 331.65 119.56"/><polygon class="cls-70" points="331.65 152.31 333.58 151.21 333.58 118.46 331.65 119.56 331.65 152.31"/><polygon class="cls-49" points="334.79 154.12 336.72 153.02 336.72 120.27 334.79 121.37 334.79 154.12"/><polygon class="cls-49" points="339.02 156.52 340.95 155.42 340.95 122.67 339.02 123.77 339.02 156.52"/><polygon class="cls-50" points="343.26 158.92 345.19 157.82 345.19 125.07 343.26 126.17 343.26 158.92"/><polygon class="cls-51" points="347.49 161.31 349.42 160.22 349.42 127.46 347.49 128.56 347.49 161.31"/><polygon class="cls-52" points="351.73 163.71 353.65 162.61 353.65 129.86 351.73 130.96 351.73 163.71"/><polygon class="cls-53" points="355.96 166.11 357.89 165.01 357.89 132.26 355.96 133.36 355.96 166.11"/><polygon class="cls-54" points="360.19 168.51 362.12 167.41 362.12 134.66 360.19 135.75 360.19 168.51"/><polygon class="cls-71" points="333.58 118.46 304.58 101.95 302.65 103.05 331.65 119.56 333.58 118.46"/><path class="cls-23" d="M359.48,105a.9.9,0,0,0-1.37.25,5,5,0,0,0-.49,2.57c0,2.52.67,4.17,2,4.94a3.49,3.49,0,0,0,1.17.43,6.24,6.24,0,0,0,1.14.07v3a4.65,4.65,0,0,1-2.57-.76A7.69,7.69,0,0,1,356.2,112a13.21,13.21,0,0,1-1.1-5.61,8.54,8.54,0,0,1,.53-3.28,2.36,2.36,0,0,1,1.53-1.49,3.2,3.2,0,0,1,2.34.52,10.15,10.15,0,0,1,2.81,2.55l-.75,2.36c-.33-.42-.67-.81-1-1.16A5.31,5.31,0,0,0,359.48,105Z"/><path class="cls-23" d="M369.61,117.29a3.75,3.75,0,0,1-.42,1.92A1.51,1.51,0,0,1,368,120a3.37,3.37,0,0,1-1.89-.57,9.78,9.78,0,0,1-1.52-1.06,10.33,10.33,0,0,1-1.28-1.38V113.8a14.05,14.05,0,0,0,1.46,1.65,7.53,7.53,0,0,0,1.39,1.1c.36.21.63.27.8.19s.25-.27.25-.56a1.39,1.39,0,0,0-.1-.53,3.38,3.38,0,0,0-.33-.6c-.15-.22-.55-.74-1.2-1.54a13,13,0,0,1-1.33-1.9,6.71,6.71,0,0,1-.66-1.64,7.27,7.27,0,0,1-.22-1.8c0-1.21.31-2,.92-2.3a2.62,2.62,0,0,1,2.5.44,10.83,10.83,0,0,1,2.87,2.6l-.75,2.3a9,9,0,0,0-2.19-2.11c-.32-.18-.55-.24-.7-.16a.5.5,0,0,0-.21.48,1.74,1.74,0,0,0,.27.85c.19.31.69,1,1.5,2a10.63,10.63,0,0,1,1.63,2.58A6.65,6.65,0,0,1,369.61,117.29Z"/><path class="cls-23" d="M377,121.53a3.74,3.74,0,0,1-.43,1.92,1.5,1.5,0,0,1-1.24.75,3.48,3.48,0,0,1-1.89-.56,8.94,8.94,0,0,1-2.8-2.45V118a15.88,15.88,0,0,0,1.46,1.65,7.33,7.33,0,0,0,1.39,1.09c.37.21.63.28.8.19a.55.55,0,0,0,.26-.55,1.4,1.4,0,0,0-.11-.53,2.54,2.54,0,0,0-.32-.6c-.16-.23-.56-.74-1.21-1.54a13.54,13.54,0,0,1-1.33-1.9,6.71,6.71,0,0,1-.66-1.64,7.29,7.29,0,0,1-.21-1.8c0-1.21.3-2,.91-2.3s1.44-.18,2.51.43a11.21,11.21,0,0,1,2.87,2.61l-.75,2.3a8.79,8.79,0,0,0-2.2-2.11c-.32-.19-.55-.24-.69-.16s-.22.23-.22.47a1.71,1.71,0,0,0,.27.85q.28.47,1.5,2a10.33,10.33,0,0,1,1.63,2.58A6.46,6.46,0,0,1,377,121.53Z"/><path class="cls-23" d="M359.52,68.67l-1.71-1V64.06l-2-1.14v3.63l-1.71-1V56.67l1.71,1V61l2,1.14v-3.3l1.71,1Z"/><path class="cls-23" d="M363.66,71.05l-1.7-1V63.14l-1.54-.88v-2L365.2,63v2l-1.54-.89Z"/><path class="cls-23" d="M368.84,74l-1.29-7.14,0,0c.06,1.13.09,2,.09,2.6v3.86l-1.5-.87V63.56l2.26,1.3,1.32,7.07,0,0L371,66.38l2.27,1.31v8.89l-1.57-.9v-3.9c0-.2,0-.42,0-.67s0-.84.06-1.78l0,0L370.46,75Z"/><path class="cls-23" d="M374.62,77.36V68.47l1.71,1v7l2.42,1.4v1.94Z"/><path class="cls-23" d="M309.42,46.49a9.42,9.42,0,0,1-1.49-1.06v-3c.16.12.32.26.5.41a2.91,2.91,0,0,0,.57.4c.47.28.81.28,1,0a3.25,3.25,0,0,0,.31-1.78V28.41l2.89,1.66V42.85c0,1.92-.32,3.19-.95,3.81S310.68,47.22,309.42,46.49Z"/><path class="cls-23" d="M322.46,45.28a3.55,3.55,0,0,1-.51,2,1.66,1.66,0,0,1-1.44.75,4.44,4.44,0,0,1-2.22-.71,11.91,11.91,0,0,1-1.78-1.23,12.6,12.6,0,0,1-1.5-1.56V41.17A17.15,17.15,0,0,0,316.72,43a8.89,8.89,0,0,0,1.63,1.26c.42.25.74.33.93.25a.57.57,0,0,0,.3-.59,1.51,1.51,0,0,0-.12-.58,4,4,0,0,0-.38-.66c-.18-.25-.65-.83-1.42-1.73a16.61,16.61,0,0,1-1.56-2.12,8.2,8.2,0,0,1-.77-1.8,7.68,7.68,0,0,1-.25-2c0-1.3.36-2.11,1.07-2.43s1.69-.12,2.94.6a13.6,13.6,0,0,1,3.37,3l-.88,2.45a11.12,11.12,0,0,0-2.58-2.4q-.56-.31-.81-.21a.5.5,0,0,0-.26.5,1.81,1.81,0,0,0,.33.94A27.11,27.11,0,0,0,320,39.72a12,12,0,0,1,1.91,2.87A6.73,6.73,0,0,1,322.46,45.28Z"/><path class="cls-23" d="M312,126c0,1.24-.27,2-.83,2.4s-1.33.25-2.34-.33l-.64-.37v3.69l-2.25-1.3V118.92l2.89,1.67a6.33,6.33,0,0,1,2.38,2.29A6.06,6.06,0,0,1,312,126Zm-3.81-.75.41.23q.51.3.81.09a1,1,0,0,0,.3-.88,1.79,1.79,0,0,0-.93-1.66l-.59-.34Z"/><path class="cls-23" d="M320.49,138.46l-2.26-1.31v-4.54l-2.63-1.52v4.54l-2.27-1.31V123.19l2.27,1.31v4.13l2.63,1.51V126l2.26,1.31Z"/><path class="cls-23" d="M328.37,135.42c0,1.24-.28,2-.83,2.4s-1.33.25-2.35-.34l-.63-.36v3.69l-2.26-1.31V128.37l2.89,1.67a6.28,6.28,0,0,1,2.38,2.3A6.07,6.07,0,0,1,328.37,135.42Zm-3.81-.76.41.24q.51.3.81.09a1,1,0,0,0,.3-.88,1.79,1.79,0,0,0-.94-1.67l-.58-.33Z"/><path class="cls-23" d="M306.79,78.55c0,.63-.14,1-.42,1.21s-.67.13-1.18-.17l-.32-.18v1.85l-1.13-.65V75l1.45.84a3.19,3.19,0,0,1,1.2,1.16A3.1,3.1,0,0,1,306.79,78.55Zm-1.92-.37.21.12c.17.09.31.11.41,0a.52.52,0,0,0,.15-.44.91.91,0,0,0-.47-.84l-.3-.17Z"/><path class="cls-23" d="M309,80.1l.72-1.65,1.23.71-1.38,2.61V84l-1.15-.67V81.15L307,76.9l1.24.71Z"/><path class="cls-23" d="M313.22,86.09l-1.14-.66V81.07l-1-.59V79.24l3.18,1.84v1.24l-1-.59Z"/><path class="cls-23" d="M318.44,89.11l-1.14-.66V86.17L316,85.4v2.29L314.84,87v-5.6l1.14.66v2.07l1.32.77V82.85l1.14.66Z"/><path class="cls-23" d="M323.28,89.1a2.36,2.36,0,0,1-.52,1.84c-.35.29-.85.25-1.52-.14a3.78,3.78,0,0,1-1.52-1.62,5.36,5.36,0,0,1-.52-2.45,2.36,2.36,0,0,1,.52-1.83c.35-.29.86-.24,1.52.14a3.75,3.75,0,0,1,1.52,1.61A5.33,5.33,0,0,1,323.28,89.1Zm-2.89-1.67c0,1.08.28,1.78.85,2.11.29.17.5.16.64,0a2,2,0,0,0,.21-1.11,3.66,3.66,0,0,0-.21-1.36,1.55,1.55,0,0,0-.64-.77C320.68,86,320.39,86.33,320.39,87.43Z"/><path class="cls-23" d="M328,94.65l-1.49-.86L325,89h0c0,.64.06,1.12.06,1.45v2.52l-1-.58V86.75l1.48.85,1.53,4.78h0c0-.58,0-1,0-1.39V88.47l1,.59Z"/></g></g></g></svg>