<svg xmlns="http://www.w3.org/2000/svg" xmlns:xlink="http://www.w3.org/1999/xlink" viewBox="0 0 403.18 274.72"><defs><style>.cls-1,.cls-16,.cls-24,.cls-39,.cls-50,.cls-56,.cls-68,.cls-77,.cls-78,.cls-87,.cls-88{fill:none;}.cls-2{isolation:isolate;}.cls-3{fill:#2b1c4c;}.cls-4,.cls-80{fill:#22173f;}.cls-5{fill:#382f47;}.cls-6{opacity:0.68;}.cls-7{fill:url(#Degradado_sin_nombre_15);}.cls-8{fill:url(#Degradado_sin_nombre_15-2);}.cls-9{fill:#ef525e;}.cls-10{fill:#fff;}.cls-11{fill:#2c2733;}.cls-12,.cls-17,.cls-53,.cls-57,.cls-86{fill:#1a1a1a;}.cls-12{opacity:0.15;}.cls-13{fill:url(#Degradado_sin_nombre_15-3);}.cls-14{fill:#336add;}.cls-15{clip-path:url(#clip-path);}.cls-16{stroke:#33b3dd;}.cls-16,.cls-21,.cls-22,.cls-23,.cls-24,.cls-29,.cls-30,.cls-31,.cls-35,.cls-36,.cls-37,.cls-38,.cls-39,.cls-40,.cls-41,.cls-43,.cls-44,.cls-50,.cls-56,.cls-62,.cls-63,.cls-64,.cls-68,.cls-69,.cls-70,.cls-71,.cls-72,.cls-73,.cls-74,.cls-75,.cls-76,.cls-77,.cls-78,.cls-81,.cls-87,.cls-88,.cls-90,.cls-91,.cls-92,.cls-93{stroke-miterlimit:10;}.cls-18{fill:url(#Degradado_sin_nombre_19);}.cls-19{fill:url(#Degradado_sin_nombre_19-2);}.cls-20{fill:url(#Degradado_sin_nombre_19-3);}.cls-21,.cls-22,.cls-23,.cls-24,.cls-29,.cls-30,.cls-31,.cls-35,.cls-36,.cls-37,.cls-38,.cls-40,.cls-41,.cls-43,.cls-44,.cls-56,.cls-62,.cls-63,.cls-64,.cls-69,.cls-70,.cls-71,.cls-72,.cls-73,.cls-74,.cls-75,.cls-76,.cls-77,.cls-81,.cls-90,.cls-91,.cls-92,.cls-93{stroke:aqua;}.cls-21{fill:url(#Degradado_sin_nombre_19-4);}.cls-22{fill:url(#Degradado_sin_nombre_19-5);}.cls-23{fill:url(#Degradado_sin_nombre_19-6);}.cls-25{opacity:0.67;}.cls-26{fill:url(#Degradado_sin_nombre_19-7);}.cls-27{fill:url(#Degradado_sin_nombre_19-8);}.cls-28{fill:url(#Degradado_sin_nombre_19-9);}.cls-29{fill:url(#Degradado_sin_nombre_19-10);}.cls-30{fill:url(#Degradado_sin_nombre_19-11);}.cls-31{fill:url(#Degradado_sin_nombre_19-12);}.cls-32{fill:url(#Degradado_sin_nombre_17);}.cls-33{fill:url(#Degradado_sin_nombre_17-2);}.cls-34{fill:url(#Degradado_sin_nombre_17-3);}.cls-35{fill:url(#Degradado_sin_nombre_17-4);}.cls-36{fill:url(#Degradado_sin_nombre_17-5);}.cls-37{fill:url(#Degradado_sin_nombre_17-6);}.cls-38{fill:url(#Degradado_sin_nombre_17-7);}.cls-39,.cls-78{stroke:#ef525e;}.cls-40{fill:url(#Degradado_sin_nombre_17-8);}.cls-41,.cls-91{fill:#29abe2;}.cls-42{fill:url(#Degradado_sin_nombre_15-4);}.cls-43{fill:url(#Degradado_sin_nombre_17-9);}.cls-44{fill:url(#Degradado_sin_nombre_17-10);}.cls-45,.cls-48{fill:#662d91;}.cls-46{fill:#f2f2f2;}.cls-47,.cls-65{fill:aqua;}.cls-47{opacity:0.56;}.cls-48{opacity:0.38;}.cls-49{fill:#7f3eb7;}.cls-50,.cls-87{stroke:#662d91;}.cls-50,.cls-56,.cls-68,.cls-77,.cls-78{stroke-linecap:round;}.cls-51{fill:#cdaaf2;}.cls-52{fill:#e3c2ff;}.cls-53,.cls-67{opacity:0.2;}.cls-54{fill:#c69eef;}.cls-55{fill:url(#Degradado_sin_nombre_15-5);}.cls-57{opacity:0.35;}.cls-58{fill:#2e3192;opacity:0.5;}.cls-59{opacity:0.82;fill:url(#Degradado_sin_nombre_34);}.cls-60,.cls-84{opacity:0.32;}.cls-60{fill:url(#Degradado_sin_nombre_133);}.cls-61{opacity:0.6;}.cls-62{fill:url(#Degradado_sin_nombre_17-11);}.cls-63{fill:url(#Degradado_sin_nombre_17-12);}.cls-64{fill:url(#Degradado_sin_nombre_17-13);}.cls-66{fill:#e6e6e6;}.cls-68{stroke:#fff;}.cls-69{fill:url(#Degradado_sin_nombre_19-13);}.cls-70{fill:url(#Degradado_sin_nombre_19-14);}.cls-71{fill:url(#Degradado_sin_nombre_19-15);}.cls-72{fill:url(#Degradado_sin_nombre_19-16);}.cls-73{fill:url(#Degradado_sin_nombre_19-17);}.cls-74{fill:url(#Degradado_sin_nombre_19-18);}.cls-75{fill:url(#Degradado_sin_nombre_19-19);}.cls-76{fill:url(#Degradado_sin_nombre_19-20);}.cls-77{stroke-dasharray:2.55 2.55;}.cls-79{opacity:0.3;fill:url(#Degradado_sin_nombre_19-21);}.cls-80{opacity:0.53;}.cls-81{fill:url(#Degradado_sin_nombre_19-22);}.cls-82{fill:url(#Degradado_sin_nombre_115);}.cls-83{opacity:0.63;}.cls-84{fill:url(#Degradado_sin_nombre_117);}.cls-85{fill:#ecd9fc;}.cls-86{opacity:0.42;}.cls-88{stroke:#4b4351;}.cls-89,.cls-90{fill:#a8ffff;opacity:0.44;}.cls-91{opacity:0.69;}.cls-92{fill:url(#Degradado_sin_nombre_17-14);}.cls-93{fill:url(#Degradado_sin_nombre_17-15);}</style><linearGradient id="Degradado_sin_nombre_15" x1="239.35" y1="55.12" x2="-39.24" y2="262.84" gradientTransform="matrix(-1, 0, 0, 1, 322.47, 0)" gradientUnits="userSpaceOnUse"><stop offset="0" stop-color="#1b1464" stop-opacity="0.4"/><stop offset="1" stop-color="#662d91" stop-opacity="0.6"/></linearGradient><linearGradient id="Degradado_sin_nombre_15-2" x1="232.49" y1="57.19" x2="-29.68" y2="252.67" xlink:href="#Degradado_sin_nombre_15"/><linearGradient id="Degradado_sin_nombre_15-3" x1="140.31" y1="81.2" x2="286.73" y2="81.2" gradientTransform="matrix(1, 0, 0, 1, 0, 0)" xlink:href="#Degradado_sin_nombre_15"/><clipPath id="clip-path"><path class="cls-1" d="M192.1,118.35l93.81-54.16a1.64,1.64,0,0,0,0-2.83L236.74,32.78a1.65,1.65,0,0,0-1.64,0L141.13,87a1.64,1.64,0,0,0,0,2.84l49.33,28.48A1.65,1.65,0,0,0,192.1,118.35Z"/></clipPath><linearGradient id="Degradado_sin_nombre_19" x1="247.01" y1="52.5" x2="269.9" y2="52.5" gradientUnits="userSpaceOnUse"><stop offset="0" stop-color="#1b1464" stop-opacity="0.8"/><stop offset="1" stop-color="#662d91" stop-opacity="0.6"/></linearGradient><linearGradient id="Degradado_sin_nombre_19-2" x1="224.04" y1="52.5" x2="247.08" y2="52.5" xlink:href="#Degradado_sin_nombre_19"/><linearGradient id="Degradado_sin_nombre_19-3" x1="224.1" y1="34.39" x2="269.9" y2="34.39" xlink:href="#Degradado_sin_nombre_19"/><linearGradient id="Degradado_sin_nombre_19-4" x1="247.01" y1="52.5" x2="269.9" y2="52.5" xlink:href="#Degradado_sin_nombre_19"/><linearGradient id="Degradado_sin_nombre_19-5" x1="224.04" y1="52.5" x2="247.08" y2="52.5" xlink:href="#Degradado_sin_nombre_19"/><linearGradient id="Degradado_sin_nombre_19-6" x1="224.41" y1="34.39" x2="269.6" y2="34.39" xlink:href="#Degradado_sin_nombre_19"/><linearGradient id="Degradado_sin_nombre_19-7" x1="214.59" y1="59.54" x2="237.55" y2="59.54" xlink:href="#Degradado_sin_nombre_19"/><linearGradient id="Degradado_sin_nombre_19-8" x1="191.62" y1="59.54" x2="214.72" y2="59.54" xlink:href="#Degradado_sin_nombre_19"/><linearGradient id="Degradado_sin_nombre_19-9" x1="191.75" y1="29.95" x2="237.55" y2="29.95" xlink:href="#Degradado_sin_nombre_19"/><linearGradient id="Degradado_sin_nombre_19-10" x1="214.59" y1="59.54" x2="237.55" y2="59.54" xlink:href="#Degradado_sin_nombre_19"/><linearGradient id="Degradado_sin_nombre_19-11" x1="191.62" y1="59.54" x2="214.72" y2="59.54" xlink:href="#Degradado_sin_nombre_19"/><linearGradient id="Degradado_sin_nombre_19-12" x1="192.05" y1="29.95" x2="237.24" y2="29.95" xlink:href="#Degradado_sin_nombre_19"/><linearGradient id="Degradado_sin_nombre_17" x1="183.65" y1="94.76" x2="206.51" y2="94.76" gradientUnits="userSpaceOnUse"><stop offset="0" stop-color="#1b1464" stop-opacity="0.7"/><stop offset="1" stop-color="#662d91" stop-opacity="0.6"/></linearGradient><linearGradient id="Degradado_sin_nombre_17-2" x1="160.68" y1="94.76" x2="183.68" y2="94.76" xlink:href="#Degradado_sin_nombre_17"/><linearGradient id="Degradado_sin_nombre_17-3" x1="160.71" y1="82.38" x2="206.51" y2="82.38" xlink:href="#Degradado_sin_nombre_17"/><linearGradient id="Degradado_sin_nombre_17-4" x1="183.65" y1="94.76" x2="206.51" y2="94.76" xlink:href="#Degradado_sin_nombre_17"/><linearGradient id="Degradado_sin_nombre_17-5" x1="160.68" y1="94.76" x2="183.68" y2="94.76" xlink:href="#Degradado_sin_nombre_17"/><linearGradient id="Degradado_sin_nombre_17-6" x1="161.02" y1="82.38" x2="206.2" y2="82.38" xlink:href="#Degradado_sin_nombre_17"/><linearGradient id="Degradado_sin_nombre_17-7" x1="46.37" y1="132.22" x2="144.86" y2="132.22" xlink:href="#Degradado_sin_nombre_17"/><linearGradient id="Degradado_sin_nombre_17-8" x1="101.52" y1="156.23" x2="161.52" y2="156.23" xlink:href="#Degradado_sin_nombre_17"/><linearGradient id="Degradado_sin_nombre_15-4" x1="89.09" y1="161.57" x2="131.52" y2="161.57" gradientTransform="matrix(1, 0, 0, 1, 0, 0)" xlink:href="#Degradado_sin_nombre_15"/><linearGradient id="Degradado_sin_nombre_17-9" x1="101.52" y1="180.72" x2="161.52" y2="180.72" xlink:href="#Degradado_sin_nombre_17"/><linearGradient id="Degradado_sin_nombre_17-10" x1="131.52" y1="168.47" x2="173.95" y2="168.47" xlink:href="#Degradado_sin_nombre_17"/><linearGradient id="Degradado_sin_nombre_15-5" x1="291.77" y1="103.17" x2="324.7" y2="103.17" gradientTransform="matrix(1, 0, 0, 1, 0, 0)" xlink:href="#Degradado_sin_nombre_15"/><linearGradient id="Degradado_sin_nombre_34" x1="204.97" y1="11.64" x2="222.2" y2="11.64" gradientUnits="userSpaceOnUse"><stop offset="0" stop-color="#93278f" stop-opacity="0.8"/><stop offset="1" stop-color="#662d91" stop-opacity="0.6"/></linearGradient><linearGradient id="Degradado_sin_nombre_133" x1="112.26" y1="38.65" x2="110.41" y2="74" gradientUnits="userSpaceOnUse"><stop offset="0" stop-color="#1b1464" stop-opacity="0"/><stop offset="0.03" stop-color="#201667" stop-opacity="0.04"/><stop offset="0.19" stop-color="#391e76" stop-opacity="0.24"/><stop offset="0.35" stop-color="#4d2582" stop-opacity="0.4"/><stop offset="0.53" stop-color="#5b298a" stop-opacity="0.51"/><stop offset="0.73" stop-color="#632c8f" stop-opacity="0.58"/><stop offset="1" stop-color="#662d91" stop-opacity="0.6"/></linearGradient><linearGradient id="Degradado_sin_nombre_17-11" x1="178.9" y1="209.42" x2="188.84" y2="209.42" xlink:href="#Degradado_sin_nombre_17"/><linearGradient id="Degradado_sin_nombre_17-12" x1="168.9" y1="209.42" x2="178.92" y2="209.42" xlink:href="#Degradado_sin_nombre_17"/><linearGradient id="Degradado_sin_nombre_17-13" x1="169.26" y1="204.36" x2="188.52" y2="204.36" xlink:href="#Degradado_sin_nombre_17"/><linearGradient id="Degradado_sin_nombre_19-13" x1="183.4" y1="71.95" x2="187.3" y2="71.95" gradientTransform="matrix(0.87, -0.5, 1, 0.58, 21.64, 215.77)" xlink:href="#Degradado_sin_nombre_19"/><linearGradient id="Degradado_sin_nombre_19-14" x1="183.4" y1="75.98" x2="195.27" y2="75.98" gradientTransform="matrix(0.87, -0.5, 1, 0.58, 21.64, 215.77)" xlink:href="#Degradado_sin_nombre_19"/><linearGradient id="Degradado_sin_nombre_19-15" x1="183.4" y1="80.28" x2="190.16" y2="80.28" gradientTransform="matrix(0.87, -0.5, 1, 0.58, 21.64, 215.77)" xlink:href="#Degradado_sin_nombre_19"/><linearGradient id="Degradado_sin_nombre_19-16" x1="183.4" y1="84.38" x2="198.57" y2="84.38" gradientTransform="matrix(0.87, -0.5, 1, 0.58, 21.64, 215.77)" xlink:href="#Degradado_sin_nombre_19"/><linearGradient id="Degradado_sin_nombre_19-17" x1="183.4" y1="88.47" x2="209.69" y2="88.47" gradientTransform="matrix(0.87, -0.5, 1, 0.58, 21.64, 215.77)" xlink:href="#Degradado_sin_nombre_19"/><linearGradient id="Degradado_sin_nombre_19-18" x1="183.4" y1="92.77" x2="204.13" y2="92.77" gradientTransform="matrix(0.87, -0.5, 1, 0.58, 21.64, 215.77)" xlink:href="#Degradado_sin_nombre_19"/><linearGradient id="Degradado_sin_nombre_19-19" x1="183.4" y1="96.87" x2="199.17" y2="96.87" gradientTransform="matrix(0.87, -0.5, 1, 0.58, 21.64, 215.77)" xlink:href="#Degradado_sin_nombre_19"/><linearGradient id="Degradado_sin_nombre_19-20" x1="183.4" y1="101.1" x2="204.13" y2="101.1" gradientTransform="matrix(0.87, -0.5, 1, 0.58, 21.64, 215.77)" xlink:href="#Degradado_sin_nombre_19"/><linearGradient id="Degradado_sin_nombre_19-21" x1="214.51" y1="91.28" x2="250.69" y2="91.28" gradientTransform="matrix(0.87, -0.5, 1.5, 0.29, 5.53, 224.87)" xlink:href="#Degradado_sin_nombre_19"/><linearGradient id="Degradado_sin_nombre_19-22" x1="260.54" y1="90.2" x2="274.33" y2="90.2" gradientTransform="matrix(0.87, -0.5, 1, 0.58, 21.64, 215.77)" xlink:href="#Degradado_sin_nombre_19"/><linearGradient id="Degradado_sin_nombre_115" x1="330.34" y1="109.57" x2="330.34" y2="115.81" gradientUnits="userSpaceOnUse"><stop offset="0" stop-color="#f2f2f2" stop-opacity="0"/><stop offset="0.21" stop-color="#e2f3f3" stop-opacity="0.02"/><stop offset="0.46" stop-color="#b2f5f5" stop-opacity="0.08"/><stop offset="0.73" stop-color="#65fafa" stop-opacity="0.17"/><stop offset="1" stop-color="aqua" stop-opacity="0.3"/></linearGradient><linearGradient id="Degradado_sin_nombre_117" x1="67.35" y1="77.18" x2="66.75" y2="112.58" gradientUnits="userSpaceOnUse"><stop offset="0" stop-color="#1b1464" stop-opacity="0"/><stop offset="1" stop-color="#662d91" stop-opacity="0.6"/></linearGradient><linearGradient id="Degradado_sin_nombre_17-14" x1="149.91" y1="214.83" x2="155.97" y2="214.83" xlink:href="#Degradado_sin_nombre_17"/><linearGradient id="Degradado_sin_nombre_17-15" x1="151.4" y1="214.87" x2="154.22" y2="214.87" xlink:href="#Degradado_sin_nombre_17"/></defs><title>Asset 2</title><g id="Layer_2" data-name="Layer 2"><g id="OBJECTS"><g class="cls-2"><path class="cls-3" d="M0,142.83l.05,17.22c0,2.18,1.44,4.35,4.3,6l0-17.22C1.44,147.18,0,145,0,142.83Z"/><path class="cls-4" d="M394.71,147.11c2.91-1.68,4.36-3.89,4.36-6.09l.05,17.22c0,2.2-1.45,4.41-4.36,6.09L207.92,272.21l0-17.23Z"/><path class="cls-3" d="M187,255c5.75,3.35,15.12,3.35,20.92,0l0,17.23c-5.81,3.35-15.17,3.34-20.92,0L4.35,166.06l0-17.22Z"/><path class="cls-5" d="M4.37,136.73c-5.8,3.34-5.83,8.76-.07,12.11L187,255c5.75,3.35,15.12,3.35,20.92,0L394.71,147.11c5.79-3.34,5.81-8.77.06-12.11L212.12,28.86c-5.76-3.35-15.12-3.35-20.91,0Z"/></g><path class="cls-5" d="M4.37,136.73c-5.8,3.34-5.83,8.76-.07,12.11L187,255c5.75,3.35,15.12,3.35,20.92,0L394.71,147.11c5.79-3.34,5.81-8.77.06-12.11L212.12,28.86c-5.76-3.35-15.12-3.35-20.91,0Z"/><g class="cls-6"><path class="cls-7" d="M4.37,136.73c-5.8,3.34-5.83,8.76-.07,12.11L187,255c5.75,3.35,15.12,3.35,20.92,0L394.71,147.11c5.79-3.34,5.81-8.77.06-12.11L212.12,28.86c-5.76-3.35-15.12-3.35-20.91,0Z"/></g><path class="cls-8" d="M15.87,134c-5.46,3.16-5.48,8.26-.06,11.41l171.88,99.88c5.41,3.15,14.23,3.16,19.69,0L383.21,143.76c5.45-3.15,5.47-8.25.05-11.4L211.38,32.47c-5.42-3.15-14.23-3.15-19.68,0Z"/><path class="cls-9" d="M15.87,134,191.7,32.47c5.45-3.15,14.26-3.15,19.68,0l7.1,4.13L22.9,149.51l-7.09-4.12C10.39,142.24,10.41,137.14,15.87,134Z"/><path class="cls-10" d="M45.66,126.94c2.36,1.36,2.36,3.57,0,4.93a9.45,9.45,0,0,1-8.54,0c-2.36-1.36-2.36-3.57,0-4.93A9.45,9.45,0,0,1,45.66,126.94Z"/><path class="cls-11" d="M31,135.39c2.36,1.36,2.36,3.57,0,4.93a9.45,9.45,0,0,1-8.54,0c-2.35-1.36-2.35-3.57,0-4.93A9.45,9.45,0,0,1,31,135.39Z"/><polygon class="cls-12" points="191.28 134.32 288.36 78.27 235.93 47.8 138.68 103.94 191.28 134.32"/><path class="cls-13" d="M192.1,124l93.81-54.17a1.64,1.64,0,0,0,0-2.83L236.74,38.42a1.63,1.63,0,0,0-1.64,0l-94,54.26a1.63,1.63,0,0,0,0,2.83L190.46,124A1.65,1.65,0,0,0,192.1,124Z"/><path class="cls-14" d="M192.1,118.35l93.81-54.16a1.64,1.64,0,0,0,0-2.83L236.74,32.78a1.65,1.65,0,0,0-1.64,0L141.13,87a1.64,1.64,0,0,0,0,2.84l49.33,28.48A1.65,1.65,0,0,0,192.1,118.35Z"/><g class="cls-15"><line class="cls-16" x1="235.52" y1="21.9" x2="306.27" y2="62.74"/><line class="cls-16" x1="230.64" y1="24.71" x2="301.39" y2="65.56"/><line class="cls-16" x1="225.76" y1="27.53" x2="296.51" y2="68.38"/><line class="cls-16" x1="220.89" y1="30.35" x2="291.63" y2="71.19"/><line class="cls-16" x1="216.01" y1="33.16" x2="286.75" y2="74.01"/><line class="cls-16" x1="211.13" y1="35.98" x2="281.87" y2="76.83"/><line class="cls-16" x1="206.25" y1="38.8" x2="276.99" y2="79.64"/><line class="cls-16" x1="201.37" y1="41.62" x2="272.11" y2="82.46"/><line class="cls-16" x1="196.49" y1="44.43" x2="267.23" y2="85.28"/><line class="cls-16" x1="191.61" y1="47.25" x2="262.36" y2="88.09"/><line class="cls-16" x1="186.73" y1="50.07" x2="257.48" y2="90.91"/><line class="cls-16" x1="181.85" y1="52.88" x2="252.6" y2="93.73"/><line class="cls-16" x1="176.97" y1="55.7" x2="247.72" y2="96.54"/><line class="cls-16" x1="172.1" y1="58.52" x2="242.84" y2="99.36"/><line class="cls-16" x1="167.22" y1="61.33" x2="237.96" y2="102.18"/><line class="cls-16" x1="162.34" y1="64.15" x2="233.08" y2="104.99"/><line class="cls-16" x1="157.46" y1="66.97" x2="228.2" y2="107.81"/><line class="cls-16" x1="152.58" y1="69.78" x2="223.32" y2="110.63"/><line class="cls-16" x1="147.7" y1="72.6" x2="218.45" y2="113.44"/><line class="cls-16" x1="142.82" y1="75.42" x2="213.57" y2="116.26"/><line class="cls-16" x1="137.94" y1="78.23" x2="208.69" y2="119.08"/><line class="cls-16" x1="133.06" y1="81.05" x2="203.81" y2="121.9"/><line class="cls-16" x1="128.19" y1="83.87" x2="198.93" y2="124.71"/><line class="cls-16" x1="123.31" y1="86.69" x2="194.05" y2="127.53"/><line class="cls-16" x1="118.43" y1="89.5" x2="189.17" y2="130.35"/><line class="cls-16" x1="185.51" y1="128.94" x2="302.61" y2="61.33"/><line class="cls-16" x1="180.63" y1="126.12" x2="297.73" y2="58.52"/><line class="cls-16" x1="175.75" y1="123.3" x2="292.85" y2="55.7"/><line class="cls-16" x1="170.88" y1="120.49" x2="287.97" y2="52.88"/><line class="cls-16" x1="166" y1="117.67" x2="283.09" y2="50.07"/><line class="cls-16" x1="161.12" y1="114.85" x2="278.21" y2="47.25"/><line class="cls-16" x1="156.24" y1="112.04" x2="273.33" y2="44.43"/><line class="cls-16" x1="151.36" y1="109.22" x2="268.45" y2="41.62"/><line class="cls-16" x1="146.48" y1="106.4" x2="263.58" y2="38.8"/><line class="cls-16" x1="141.6" y1="103.59" x2="258.7" y2="35.98"/><line class="cls-16" x1="136.72" y1="100.77" x2="253.82" y2="33.16"/><line class="cls-16" x1="131.84" y1="97.95" x2="248.94" y2="30.35"/><line class="cls-16" x1="126.97" y1="95.14" x2="244.06" y2="27.53"/><line class="cls-16" x1="122.09" y1="92.32" x2="239.18" y2="24.71"/><line class="cls-16" x1="117.21" y1="89.5" x2="234.3" y2="21.9"/><line class="cls-16" x1="189.17" y1="131.05" x2="306.27" y2="63.45"/></g><path class="cls-17" d="M235.29,153.55c2-1.16-.12-3.41-2.39-5.79-2-2.08-4-4.24-2.56-5.08s5.18.34,8.79,1.48c4.12,1.31,8,2.54,10,1.38s-.13-3.41-2.39-5.79c-2-2.08-4-4.23-2.56-5.07s5.18.34,8.78,1.48c4.12,1.3,8,2.54,10,1.38s-.12-3.41-2.39-5.79c-2-2.08-4-4.23-2.56-5.07s5.18.34,8.78,1.48c4.12,1.3,8,2.54,10,1.38s-.13-3.41-2.39-5.79c-2-2.08-4-4.23-2.57-5.07s5.18.34,8.79,1.48c4.12,1.3,8,2.54,10,1.37s-.13-3.4-2.39-5.79c-2-2.07-4-4.23-2.57-5.06l-.74-.43c-2,1.16.13,3.41,2.39,5.79,2,2.08,4,4.23,2.56,5.07s-5.18-.34-8.78-1.48c-4.12-1.31-8-2.54-10-1.38s.13,3.41,2.39,5.79c2,2.08,4,4.23,2.57,5.07s-5.18-.34-8.78-1.48c-4.13-1.31-8-2.54-10-1.38s.12,3.41,2.38,5.79c2,2.08,4,4.23,2.57,5.07s-5.18-.34-8.78-1.48c-4.13-1.31-8-2.54-10-1.38s.13,3.41,2.39,5.79c2,2.08,4,4.23,2.57,5.07s-5.19-.34-8.79-1.48c-4.12-1.3-8-2.54-10-1.38s.12,3.42,2.38,5.8c2,2.08,4,4.23,2.57,5.07Z"/><path class="cls-9" d="M235.29,151c2-1.16-.12-3.41-2.39-5.79-2-2.08-4-4.23-2.56-5.07s5.18.34,8.79,1.48c4.12,1.3,8,2.54,10,1.38s-.13-3.41-2.39-5.79c-2-2.08-4-4.24-2.56-5.07s5.18.33,8.78,1.48c4.12,1.3,8,2.53,10,1.37s-.12-3.41-2.39-5.79c-2-2.08-4-4.23-2.56-5.07s5.18.34,8.78,1.48c4.12,1.31,8,2.54,10,1.38s-.13-3.41-2.39-5.79c-2-2.08-4-4.23-2.57-5.07s5.18.34,8.79,1.48c4.12,1.31,8,2.54,10,1.38s-.13-3.41-2.39-5.79c-2-2.08-4-4.23-2.57-5.07l-.74-.43c-2,1.16.13,3.41,2.39,5.79,2,2.08,4,4.23,2.56,5.07s-5.18-.34-8.78-1.48c-4.12-1.3-8-2.54-10-1.38s.13,3.41,2.39,5.79c2,2.08,4,4.23,2.57,5.07s-5.18-.34-8.78-1.48c-4.13-1.3-8-2.54-10-1.38s.12,3.41,2.38,5.79c2,2.08,4,4.23,2.57,5.07s-5.18-.34-8.78-1.48c-4.13-1.3-8-2.53-10-1.37s.13,3.41,2.39,5.79c2,2.08,4,4.23,2.57,5.07s-5.19-.34-8.79-1.48c-4.12-1.31-8-2.54-10-1.38s.12,3.41,2.38,5.79c2,2.08,4,4.23,2.57,5.07Z"/><g class="cls-2"><polygon class="cls-18" points="269.9 34.39 269.84 57.35 247.01 70.62 247.08 47.66 269.9 34.39"/><polygon class="cls-19" points="247.08 47.66 247.01 70.62 224.04 57.35 224.1 34.39 247.08 47.66"/><polygon class="cls-20" points="269.9 34.39 247.08 47.66 224.1 34.39 246.93 21.13 269.9 34.39"/></g><g class="cls-2"><path class="cls-21" d="M269.9,34.93l-.06,22.24a.32.32,0,0,1-.15.27L247.48,70.35a.31.31,0,0,1-.47-.27l.07-22.25a.3.3,0,0,1,.15-.26l22.21-12.91A.31.31,0,0,1,269.9,34.93Z"/><path class="cls-22" d="M247.08,47.83,247,70.08a.31.31,0,0,1-.46.27L224.19,57.44a.32.32,0,0,1-.15-.27l.06-22.25a.31.31,0,0,1,.47-.26l22.35,12.91A.29.29,0,0,1,247.08,47.83Z"/><path class="cls-23" d="M269.44,34.66l-22.21,12.9a.31.31,0,0,1-.31,0L224.57,34.66a.31.31,0,0,1,0-.54l22.21-12.9a.31.31,0,0,1,.31,0l22.36,12.91A.31.31,0,0,1,269.44,34.66Z"/></g><path class="cls-24" d="M269.48,31.71l-22.2,12.91a.36.36,0,0,1-.32,0L224.61,31.71a.31.31,0,0,1,0-.54l22.21-12.9a.29.29,0,0,1,.31,0l22.35,12.9A.31.31,0,0,1,269.48,31.71Z"/><g class="cls-25"><polygon class="cls-17" points="279.75 62.66 256.92 75.93 225.5 58.44 248.32 45.17 279.75 62.66"/></g><g class="cls-2"><polygon class="cls-26" points="237.55 29.95 237.42 75.87 214.59 89.14 214.72 43.21 237.55 29.95"/><polygon class="cls-27" points="214.72 43.21 214.59 89.14 191.62 75.87 191.75 29.95 214.72 43.21"/><polygon class="cls-28" points="237.55 29.95 214.72 43.21 191.75 29.95 214.57 16.68 237.55 29.95"/></g><g class="cls-2"><path class="cls-29" d="M237.55,30.49l-.13,45.2a.32.32,0,0,1-.16.27l-22.2,12.9a.31.31,0,0,1-.47-.26l.13-45.21a.33.33,0,0,1,.15-.27l22.21-12.9A.31.31,0,0,1,237.55,30.49Z"/><path class="cls-30" d="M214.72,43.39l-.13,45.21a.31.31,0,0,1-.46.27L191.77,76a.29.29,0,0,1-.15-.27l.12-45.21a.32.32,0,0,1,.47-.27l22.36,12.91A.33.33,0,0,1,214.72,43.39Z"/><path class="cls-31" d="M237.09,30.22l-22.21,12.9a.29.29,0,0,1-.31,0L192.21,30.21a.3.3,0,0,1,0-.53l22.21-12.91a.34.34,0,0,1,.31,0l22.35,12.91A.31.31,0,0,1,237.09,30.22Z"/></g><g class="cls-25"><polygon class="cls-17" points="245.95 80.97 223.12 94.24 191.69 76.75 214.52 63.48 245.95 80.97"/></g><g class="cls-25"><polygon class="cls-17" points="214.96 97.88 192.13 111.14 160.71 93.65 183.53 80.39 214.96 97.88"/></g><g class="cls-2"><polygon class="cls-32" points="206.51 82.38 206.48 93.86 183.65 107.13 183.68 95.65 206.51 82.38"/><polygon class="cls-33" points="183.68 95.65 183.65 107.13 160.68 93.86 160.71 82.38 183.68 95.65"/><polygon class="cls-34" points="206.51 82.38 183.68 95.65 160.71 82.38 183.53 69.12 206.51 82.38"/></g><g class="cls-2"><path class="cls-35" d="M206.51,82.92l0,10.77a.29.29,0,0,1-.16.26l-22.2,12.91a.31.31,0,0,1-.47-.27l0-10.76a.3.3,0,0,1,.16-.27L206,82.65A.31.31,0,0,1,206.51,82.92Z"/><path class="cls-36" d="M183.68,95.83l0,10.76a.31.31,0,0,1-.46.27L160.83,94a.3.3,0,0,1-.15-.26l0-10.77a.31.31,0,0,1,.46-.27l22.36,12.91A.32.32,0,0,1,183.68,95.83Z"/><path class="cls-37" d="M206.05,82.65,183.84,95.56a.34.34,0,0,1-.31,0L161.17,82.65a.31.31,0,0,1,0-.54l22.21-12.9a.29.29,0,0,1,.31,0l22.36,12.91A.31.31,0,0,1,206.05,82.65Z"/></g><path class="cls-38" d="M142.1,115.27,66.26,159.06c-4.1,2.36-11.25,2.07-16-.66h0c-4.73-2.73-5.24-6.86-1.15-9.23L125,105.39c4.1-2.37,11.25-2.07,16,.66h0C145.68,108.78,146.19,112.91,142.1,115.27Z"/><ellipse class="cls-39" cx="128.53" cy="112.26" rx="5.7" ry="3.29"/><line class="cls-39" x1="134.23" y1="112.26" x2="139.93" y2="112.26"/><path class="cls-40" d="M161.52,151.15c-16.57-9.56-43.43-9.56-60,0l30,17.32Z"/><path class="cls-41" d="M101.52,151.15c-16.57,9.57-16.57,25.08,0,34.65l30-17.33Z"/><path class="cls-42" d="M101.52,158.19,125.42,172l6.1-3.53-30-17.32c-9.84,5.68-13.84,13.46-12,20.85C90.79,167,94.79,162.08,101.52,158.19Z"/><path class="cls-43" d="M101.52,185.8c16.57,9.56,43.43,9.56,60,0l-30-17.33Z"/><path class="cls-44" d="M161.52,151.15l-30,17.32,30,17.33C178.09,176.23,178.09,160.72,161.52,151.15Z"/><path class="cls-41" d="M158.23,138.15l12.29-7.1c1-.58.87-1.59-.29-2.26h0a4.38,4.38,0,0,0-3.9-.16L154,135.73c-1,.57-.87,1.59.28,2.25h0A4.37,4.37,0,0,0,158.23,138.15Z"/><path class="cls-45" d="M164,142l12.29-7.1c1-.58.87-1.59-.28-2.26h0a4.4,4.4,0,0,0-3.91-.16l-12.29,7.1c-1,.57-.87,1.59.28,2.25h0A4.37,4.37,0,0,0,164,142Z"/><path class="cls-45" d="M170.75,145.74l12.29-7.1c1-.57.87-1.59-.28-2.25h0a4.34,4.34,0,0,0-3.91-.16l-12.29,7.09c-1,.58-.87,1.59.28,2.26h0A4.4,4.4,0,0,0,170.75,145.74Z"/><path class="cls-45" d="M176.55,149.61l12.29-7.1c1-.57.87-1.59-.28-2.25h0a4.37,4.37,0,0,0-3.91-.17l-12.29,7.1c-1,.58-.87,1.59.28,2.26h0A4.4,4.4,0,0,0,176.55,149.61Z"/><path class="cls-45" d="M183.41,153.48l12.29-7.1c1-.57.87-1.59-.28-2.25h0a4.37,4.37,0,0,0-3.91-.17l-12.29,7.1c-1,.58-.87,1.59.29,2.26h0A4.38,4.38,0,0,0,183.41,153.48Z"/><path class="cls-46" d="M277.5,61.54s-1.9,11.92-7.5,8.54-2.5-10.76-2.5-10.76l2.66-.22s-2,7.93.72,7.87,3.06-7,3.06-7Z"/><path class="cls-46" d="M267.5,59.32s-.72-3.5.72-3.55,1.94,3.33,1.94,3.33Z"/><path class="cls-47" d="M274.79,57.07,267,61.58a2.52,2.52,0,0,1-3.78-2.18V54.8a2.52,2.52,0,0,1,1.26-2.18l7.81-4.51a2.52,2.52,0,0,1,3.78,2.18v4.6A2.52,2.52,0,0,1,274.79,57.07Z"/><path class="cls-47" d="M275.46,57.07l-7.82,4.51a2.51,2.51,0,0,1-3.77-2.18V54.8a2.53,2.53,0,0,1,1.25-2.18l7.82-4.51a2.51,2.51,0,0,1,3.77,2.18v4.6A2.53,2.53,0,0,1,275.46,57.07Z"/><path class="cls-46" d="M266.66,55.91,273,52.22a1,1,0,0,0,.4-.77h0c0-.3-.18-.43-.4-.3l-6.38,3.68a1,1,0,0,0-.41.77h0C266.25,55.9,266.43,56,266.66,55.91Z"/><path class="cls-46" d="M266.66,57.53,273,53.84a1,1,0,0,0,.4-.77h0c0-.3-.18-.43-.4-.31l-6.38,3.69a1,1,0,0,0-.41.77h0C266.25,57.52,266.43,57.66,266.66,57.53Z"/><path class="cls-46" d="M266.66,59.15,273,55.46a1,1,0,0,0,.4-.77h0c0-.3-.18-.43-.4-.31l-6.38,3.69a1,1,0,0,0-.41.77h0C266.25,59.14,266.43,59.28,266.66,59.15Z"/><path class="cls-48" d="M274.56,52.4a3.09,3.09,0,0,1-1.4,2.43c-.78.45-1.41.09-1.41-.81a3.11,3.11,0,0,1,1.41-2.43C273.93,51.14,274.56,51.5,274.56,52.4Z"/><path class="cls-48" d="M274.27,52.53a2.36,2.36,0,0,1-1.07,1.85c-.59.34-1.07.06-1.07-.62a2.36,2.36,0,0,1,1.07-1.85C273.79,51.57,274.27,51.85,274.27,52.53Z"/><path class="cls-46" d="M288.63,58.26s-3.38,7.27-9.2,4.33-4.61-7.65-4.61-7.65l-1.78.52s-.66,10.12,6.61,10.29a12.4,12.4,0,0,0,10.59-5.16Z"/><path class="cls-45" d="M279.21,49.62s-1.27,2.55-.73,2.75a1.61,1.61,0,0,0,1.18-.2Z"/><path class="cls-49" d="M278.37,83.67s-2.38-1.56-3.05-.89,1.55,1.55,1.55,1.55l1.11.17Z"/><path class="cls-14" d="M286.53,70l-8.82-1.83-.84,16.14,1.11.17.29-.62a1.37,1.37,0,0,0,.13-.45L279.59,72l.56-.5,6.93,1.61S287.75,70.63,286.53,70Z"/><path class="cls-49" d="M273.1,87.11s-2.38-1.56-3.05-.89,1.56,1.55,1.56,1.55l1.1.17Z"/><g class="cls-25"><polygon class="cls-17" points="296.97 94.03 285.27 100.83 269.16 91.86 280.86 85.06 296.97 94.03"/></g><g class="cls-2"><line class="cls-50" x1="284.3" y1="76.15" x2="284.3" y2="93.05"/><polygon class="cls-51" points="294.27 75.39 294.24 79.74 284.31 85.5 284.34 81.16 294.27 75.39"/><polygon class="cls-52" points="284.34 81.16 284.31 85.5 274.32 79.74 274.35 75.39 284.34 81.16"/><polygon class="cls-10" points="294.27 75.39 284.34 81.16 274.35 75.39 284.28 69.62 294.27 75.39"/></g><path class="cls-53" d="M275.82,75.24S281,81.56,287,78.79s4.16-5.33,4.16-5.33Z"/><path class="cls-45" d="M293.11,54.25l-4.42,17a1.38,1.38,0,0,1-.73.89l-6.85,3.37a1.38,1.38,0,0,1-1.91-.81l-4.66-14.17a1.38,1.38,0,0,1,.81-1.71l15.93-6.18A1.38,1.38,0,0,1,293.11,54.25Z"/><path class="cls-14" d="M278.51,72.68s2.21,1,5.87-.24a8.78,8.78,0,0,0,4.91-3.58l-1,4.86a1.93,1.93,0,0,1-.47.92l-1.41,1.54a1.92,1.92,0,0,1-1.56.63L281,76.57a2,2,0,0,1-1.75-1.38Z"/><path class="cls-14" d="M281.26,73.46l-8.82-1.83-.83,16.14,1.1.17.29-.62a1.37,1.37,0,0,0,.13-.45l1.19-11.41.56-.5,6.93,1.61S282.48,74.07,281.26,73.46Z"/><path class="cls-46" d="M274.1,60.33,277.53,75a1.74,1.74,0,0,0,.89,1.14c1.56.81,5.37,2.51,8.38,1.61a5.91,5.91,0,0,0,4.39-4.33l2.46-19.13a1.7,1.7,0,0,0-.3-1.22l-.27-.39A1.74,1.74,0,0,0,291,52.1l-15.88,6.23a1.63,1.63,0,0,0-.85.72h0A1.65,1.65,0,0,0,274.1,60.33Z"/><path class="cls-54" d="M283.49,57.69h0a5,5,0,0,1-4.56-5.3l.31-4.07a5,5,0,0,1,5.31-4.56h0a4.94,4.94,0,0,1,4.55,5.31l-.3,4.07A5,5,0,0,1,283.49,57.69Z"/><path class="cls-45" d="M278.21,57.43s1.44,2.77,6.6,2.11,5.88-6.44,5.88-6.44.83,6.16-5.11,7.16S278.21,57.43,278.21,57.43Z"/><path class="cls-45" d="M288.28,44.77s-6.76-10.2-13-5.93,3.63,8.48,5.54,8.63S284,49.52,283,50.9s-.59,6.47,2.94,5.24S292.74,50.06,288.28,44.77Z"/><path class="cls-54" d="M274.82,54.94s-.11-2.94-1.11-2.78-.67,3.3-.67,3.3Z"/><path class="cls-46" d="M248.22,77.29s-1.91,11.92-7.51,8.54-2.49-10.76-2.49-10.76l2.66-.22s-2,7.93.72,7.87,3.05-7,3.05-7Z"/><path class="cls-46" d="M238.22,75.07s-.73-3.49.72-3.55,1.94,3.33,1.94,3.33Z"/><path class="cls-47" d="M245.5,72.82l-7.81,4.51a2.52,2.52,0,0,1-3.78-2.18v-4.6a2.52,2.52,0,0,1,1.26-2.18L243,63.86A2.51,2.51,0,0,1,246.76,66v4.6A2.52,2.52,0,0,1,245.5,72.82Z"/><path class="cls-47" d="M246.17,72.82l-7.81,4.51a2.52,2.52,0,0,1-3.78-2.18v-4.6a2.52,2.52,0,0,1,1.26-2.18l7.81-4.51A2.52,2.52,0,0,1,247.43,66v4.6A2.52,2.52,0,0,1,246.17,72.82Z"/><path class="cls-47" d="M249.82,63l-5.62,3.25a1.81,1.81,0,0,1-2.71-1.57V61.34a1.81,1.81,0,0,1,.9-1.57L248,56.53a1.81,1.81,0,0,1,2.72,1.57v3.3A1.81,1.81,0,0,1,249.82,63Z"/><path class="cls-47" d="M240.67,61.68l-4,2.31a1.3,1.3,0,0,1-1.94-1.12V60.52a1.3,1.3,0,0,1,.65-1.12l4-2.3a1.29,1.29,0,0,1,1.94,1.11v2.35A1.3,1.3,0,0,1,240.67,61.68Z"/><path class="cls-46" d="M237.37,71.66,243.75,68a1,1,0,0,0,.4-.78h0c0-.29-.18-.43-.4-.3l-6.38,3.68a1,1,0,0,0-.41.77h0C237,71.65,237.15,71.79,237.37,71.66Z"/><path class="cls-46" d="M237.37,73.28l6.38-3.68a1,1,0,0,0,.4-.78h0c0-.29-.18-.43-.4-.3l-6.38,3.68A1,1,0,0,0,237,73h0C237,73.27,237.15,73.41,237.37,73.28Z"/><path class="cls-46" d="M237.37,74.9l6.38-3.68a1,1,0,0,0,.4-.78h0c0-.29-.18-.43-.4-.3l-6.38,3.68a1,1,0,0,0-.41.77h0C237,74.89,237.15,75,237.37,74.9Z"/><path class="cls-48" d="M245.28,68.15a3.11,3.11,0,0,1-1.41,2.44c-.77.45-1.4.08-1.4-.81a3.13,3.13,0,0,1,1.4-2.44C244.65,66.89,245.28,67.26,245.28,68.15Z"/><path class="cls-48" d="M245,68.28a2.35,2.35,0,0,1-1.06,1.85c-.59.34-1.07.06-1.07-.62a2.36,2.36,0,0,1,1.07-1.85C244.51,67.32,245,67.6,245,68.28Z"/><path class="cls-46" d="M259.35,74s-3.39,7.26-9.21,4.32-4.6-7.65-4.6-7.65l-1.79.53s-.65,10.12,6.61,10.28A12.41,12.41,0,0,0,261,76.35Z"/><path class="cls-45" d="M249.93,65.37s-1.28,2.55-.74,2.75a1.61,1.61,0,0,0,1.18-.2Z"/><path class="cls-49" d="M249.09,99.42s-2.39-1.55-3.05-.89,1.55,1.55,1.55,1.55l1.11.17Z"/><path class="cls-14" d="M257.24,85.77l-8.82-1.83-.83,16.14,1.11.17.29-.62a1.69,1.69,0,0,0,.12-.44l1.2-11.42.55-.5,6.93,1.61S258.46,86.38,257.24,85.77Z"/><path class="cls-49" d="M243.82,102.86s-2.39-1.56-3-.89,1.55,1.55,1.55,1.55l1.11.17Z"/><g class="cls-25"><polygon class="cls-17" points="267.69 109.78 255.98 116.58 239.87 107.62 251.57 100.81 267.69 109.78"/></g><g class="cls-2"><line class="cls-50" x1="255.01" y1="91.9" x2="255.01" y2="108.8"/><polygon class="cls-51" points="264.98 91.14 264.95 95.49 255.03 101.26 255.06 96.91 264.98 91.14"/><polygon class="cls-52" points="255.06 96.91 255.03 101.26 245.04 95.49 245.07 91.14 255.06 96.91"/><polygon class="cls-10" points="264.98 91.14 255.06 96.91 245.07 91.14 254.99 85.37 264.98 91.14"/></g><path class="cls-53" d="M246.54,91s5.15,6.32,11.2,3.55,4.16-5.33,4.16-5.33Z"/><path class="cls-45" d="M263.82,70,259.4,87a1.37,1.37,0,0,1-.72.89l-6.86,3.37a1.37,1.37,0,0,1-1.91-.81l-4.66-14.16a1.39,1.39,0,0,1,.81-1.72L262,68.37A1.37,1.37,0,0,1,263.82,70Z"/><path class="cls-14" d="M249.23,88.43s2.2,1,5.86-.24A8.73,8.73,0,0,0,260,84.61l-1,4.86a2,2,0,0,1-.48.93l-1.4,1.54a2,2,0,0,1-1.57.63l-3.84-.25A1.94,1.94,0,0,1,250,90.94Z"/><path class="cls-14" d="M252,89.21l-8.82-1.83-.83,16.14,1.11.17.29-.62a1.37,1.37,0,0,0,.12-.44L245,91.21l.55-.5,6.94,1.61S253.19,89.82,252,89.21Z"/><path class="cls-46" d="M244.81,76.09l3.44,14.7a1.71,1.71,0,0,0,.88,1.15c1.56.8,5.38,2.5,8.39,1.6a5.91,5.91,0,0,0,4.38-4.33l2.46-19.13a1.72,1.72,0,0,0-.3-1.22l-.27-.39a1.73,1.73,0,0,0-2.05-.61l-15.87,6.22a1.73,1.73,0,0,0-.86.72h0A1.76,1.76,0,0,0,244.81,76.09Z"/><path class="cls-54" d="M254.21,73.45h0a4.94,4.94,0,0,1-4.56-5.31l.31-4.07a4.93,4.93,0,0,1,5.3-4.55h0a5,5,0,0,1,4.56,5.3l-.31,4.07A5,5,0,0,1,254.21,73.45Z"/><path class="cls-45" d="M248.92,73.18s1.44,2.78,6.6,2.11,5.88-6.43,5.88-6.43.83,6.15-5.1,7.15S248.92,73.18,248.92,73.18Z"/><path class="cls-54" d="M245.54,70.69s-.11-2.94-1.11-2.78-.68,3.31-.68,3.31Z"/><path class="cls-46" d="M218.71,93.93s-1.9,11.92-7.51,8.54-2.49-10.76-2.49-10.76l2.66-.22s-2,7.93.72,7.87,3-7,3-7Z"/><path class="cls-46" d="M208.71,91.71s-.72-3.5.72-3.55,1.94,3.33,1.94,3.33Z"/><path class="cls-47" d="M216,89.46,208.18,94a2.51,2.51,0,0,1-3.77-2.18v-4.6A2.52,2.52,0,0,1,205.67,85l7.81-4.51a2.52,2.52,0,0,1,3.78,2.18v4.6A2.52,2.52,0,0,1,216,89.46Z"/><path class="cls-47" d="M216.66,89.46,208.85,94a2.52,2.52,0,0,1-3.78-2.18v-4.6A2.52,2.52,0,0,1,206.33,85l7.81-4.51a2.52,2.52,0,0,1,3.78,2.18v4.6A2.52,2.52,0,0,1,216.66,89.46Z"/><path class="cls-46" d="M207.86,88.3l6.38-3.68a1,1,0,0,0,.41-.78h0c0-.29-.19-.43-.41-.3l-6.38,3.68a1,1,0,0,0-.4.77h0C207.46,88.29,207.64,88.43,207.86,88.3Z"/><path class="cls-46" d="M207.86,89.92l6.38-3.68a1,1,0,0,0,.41-.78h0c0-.29-.19-.43-.41-.3l-6.38,3.68a1,1,0,0,0-.4.77h0C207.46,89.91,207.64,90.05,207.86,89.92Z"/><path class="cls-46" d="M207.86,91.54l6.38-3.68a1,1,0,0,0,.41-.78h0c0-.29-.19-.43-.41-.3l-6.38,3.68a1,1,0,0,0-.4.77h0C207.46,91.53,207.64,91.67,207.86,91.54Z"/><path class="cls-48" d="M215.77,84.79a3.11,3.11,0,0,1-1.41,2.44c-.77.44-1.4.08-1.4-.81a3.13,3.13,0,0,1,1.4-2.44C215.14,83.53,215.77,83.9,215.77,84.79Z"/><path class="cls-48" d="M215.48,84.92a2.36,2.36,0,0,1-1.07,1.85c-.59.34-1.07.06-1.07-.62a2.36,2.36,0,0,1,1.07-1.85C215,84,215.48,84.24,215.48,84.92Z"/><path class="cls-46" d="M229.84,90.66s-3.38,7.26-9.21,4.32-4.6-7.65-4.6-7.65l-1.79.53s-.65,10.12,6.61,10.28A12.41,12.41,0,0,0,231.45,93Z"/><path class="cls-45" d="M220.42,82s-1.27,2.55-.73,2.75a1.58,1.58,0,0,0,1.17-.2Z"/><path class="cls-49" d="M219.58,116.06s-2.39-1.55-3.05-.89,1.55,1.55,1.55,1.55l1.11.17Z"/><path class="cls-14" d="M227.73,102.41l-8.82-1.83-.83,16.14,1.11.17.29-.62a1.16,1.16,0,0,0,.12-.44l1.2-11.42.55-.5,6.94,1.61S229,103,227.73,102.41Z"/><path class="cls-49" d="M214.31,119.5s-2.39-1.56-3.05-.89,1.55,1.55,1.55,1.55l1.11.17Z"/><g class="cls-25"><polygon class="cls-17" points="238.18 126.42 226.48 133.22 210.36 124.25 222.07 117.45 238.18 126.42"/></g><g class="cls-2"><line class="cls-50" x1="225.5" y1="108.54" x2="225.5" y2="125.44"/><polygon class="cls-51" points="235.48 107.78 235.45 112.13 225.52 117.9 225.55 113.55 235.48 107.78"/><polygon class="cls-52" points="225.55 113.55 225.52 117.9 215.53 112.13 215.56 107.78 225.55 113.55"/><polygon class="cls-10" points="235.48 107.78 225.55 113.55 215.56 107.78 225.49 102.01 235.48 107.78"/></g><path class="cls-53" d="M217,107.63s5.16,6.32,11.2,3.55,4.16-5.33,4.16-5.33Z"/><path class="cls-45" d="M234.31,86.64l-4.42,17a1.37,1.37,0,0,1-.72.89l-6.86,3.37a1.37,1.37,0,0,1-1.91-.81l-4.65-14.16a1.38,1.38,0,0,1,.8-1.72L232.48,85A1.37,1.37,0,0,1,234.31,86.64Z"/><path class="cls-14" d="M219.72,105.07s2.2,1,5.87-.24a8.73,8.73,0,0,0,4.9-3.58l-1,4.86a2.11,2.11,0,0,1-.47.93l-1.41,1.54a2,2,0,0,1-1.56.63l-3.85-.25a2,2,0,0,1-1.74-1.38Z"/><path class="cls-14" d="M222.46,105.85,213.64,104l-.83,16.14,1.11.17.29-.62a1.16,1.16,0,0,0,.12-.44l1.2-11.42.55-.5L223,109S223.68,106.46,222.46,105.85Z"/><path class="cls-46" d="M215.3,92.73l3.44,14.7a1.73,1.73,0,0,0,.89,1.15c1.56.8,5.37,2.5,8.38,1.6a5.91,5.91,0,0,0,4.38-4.33l2.47-19.13a1.82,1.82,0,0,0-.3-1.22l-.28-.39a1.72,1.72,0,0,0-2.05-.61l-15.87,6.22a1.73,1.73,0,0,0-.86.72h0A1.76,1.76,0,0,0,215.3,92.73Z"/><path class="cls-54" d="M224.7,90.09h0a5,5,0,0,1-4.56-5.31l.31-4.07a4.94,4.94,0,0,1,5.3-4.55h0a4.93,4.93,0,0,1,4.56,5.3L230,85.53A5,5,0,0,1,224.7,90.09Z"/><path class="cls-45" d="M219.41,89.82s1.44,2.78,6.6,2.11,5.88-6.43,5.88-6.43.83,6.15-5.1,7.15S219.41,89.82,219.41,89.82Z"/><path class="cls-54" d="M216,87.33s-.11-2.94-1.11-2.78-.68,3.31-.68,3.31Z"/><path class="cls-45" d="M220.89,78a6.84,6.84,0,0,1,2.43,3.09c.66,1.9,1.32,6.11,4.41,5s3.35-5,2.63-8S223.72,73.5,220.89,78Z"/><path class="cls-9" d="M307.34,113.64l15.22-8.78c3.19-1.85,2.79-5.1-.9-7.23h0c-3.69-2.13-9.33-2.37-12.52-.52l-15.22,8.78c-3.19,1.85-2.79,5.1.9,7.23h0C298.51,115.25,304.15,115.48,307.34,113.64Z"/><path class="cls-55" d="M293.92,108.71l15.22-8.78c3.19-1.85,8.83-1.61,12.52.52h0a6.47,6.47,0,0,1,2.7,2.64c.92-1.76,0-3.91-2.7-5.46h0c-3.69-2.13-9.33-2.37-12.52-.52l-15.22,8.78c-2,1.18-2.6,2.92-1.8,4.58A4.55,4.55,0,0,1,293.92,108.71Z"/><g class="cls-2"><path class="cls-52" d="M319.51,99.8v3.44a2.78,2.78,0,0,1-1.63,2.29,8.77,8.77,0,0,1-8,0,2.84,2.84,0,0,1-1.66-2.32V99.77a2.84,2.84,0,0,0,1.66,2.32,8.83,8.83,0,0,0,8,0A2.78,2.78,0,0,0,319.51,99.8Z"/><path class="cls-10" d="M317.85,97.47c2.21,1.28,2.22,3.34,0,4.62a8.83,8.83,0,0,1-8,0c-2.2-1.28-2.21-3.34,0-4.62A8.79,8.79,0,0,1,317.85,97.47Z"/></g><path class="cls-56" d="M145.61,126.27a7.58,7.58,0,0,0,6.88,0c1.9-1.09,1.9-2.87,0-4a7.65,7.65,0,0,0-6.88,0C143.72,123.4,143.72,125.18,145.61,126.27Z"/><path class="cls-56" d="M152.05,132.42l-1.18-2.54a1.22,1.22,0,0,1-.06-1c.63-1.69,3-3,5.9-3.31a6.45,6.45,0,0,1,1.7.06l4.16.73"/><path class="cls-24" d="M237.09,26.74,214.88,39.65a.34.34,0,0,1-.31,0L192.21,26.74a.31.31,0,0,1,0-.54l22.21-12.9a.29.29,0,0,1,.31,0l22.35,12.91A.31.31,0,0,1,237.09,26.74Z"/><path class="cls-24" d="M206.2,79.88,184,92.78a.29.29,0,0,1-.31,0L161.32,79.87a.31.31,0,0,1,0-.53l22.21-12.91a.34.34,0,0,1,.31,0L206.2,79.34A.32.32,0,0,1,206.2,79.88Z"/><path class="cls-57" d="M212.12,25.63a1,1,0,0,0,0,1.89,3.62,3.62,0,0,0,3.27,0,1,1,0,0,0,0-1.89A3.62,3.62,0,0,0,212.12,25.63Z"/><path class="cls-58" d="M219.57.29l-12.9,7.45a4.8,4.8,0,0,0-2.16,3.75v9.68c0,1.37,1,1.94,2.16,1.25l4.05-2.34,2.4,1.38,2.4-4.15,4-2.34a4.78,4.78,0,0,0,2.16-3.75V1.54C221.73.17,220.76-.39,219.57.29Z"/><path class="cls-59" d="M220,.57,207.14,8A4.81,4.81,0,0,0,205,11.77v9.68c0,1.37,1,1.94,2.17,1.25l4.05-2.34,2.4,1.38L216,17.59,220,15.25a4.81,4.81,0,0,0,2.17-3.75V1.82C222.2.45,221.22-.11,220,.57Z"/><path class="cls-57" d="M216.92,7.57c-.88-.55-2.42.67-3,2.31l-.06.14-.06-.08c-.61-.93-2.15-.37-3,1.2a4.72,4.72,0,0,0-.67,2.55A1.62,1.62,0,0,0,211,15l3.25.66,3-4.86C217.87,9.22,217.63,8,216.92,7.57Z"/><path class="cls-9" d="M217.08,6.84c-.88-.55-2.42.67-3,2.31l0,.15-.06-.09c-.61-.92-2.16-.36-3,1.2a4.67,4.67,0,0,0-.67,2.55,1.6,1.6,0,0,0,.91,1.3l3.17.73,3.08-4.93C218,8.5,217.78,7.29,217.08,6.84Z"/><path class="cls-60" d="M98.07,66.38l30.78-17.77a2.31,2.31,0,0,0,1.16-2V11.06a2.31,2.31,0,0,0-3.47-2L95.76,26.84a2.29,2.29,0,0,0-1.16,2V64.38A2.31,2.31,0,0,0,98.07,66.38Z"/><g class="cls-61"><path class="cls-10" d="M98.07,58.33l30.78-17.77a2.32,2.32,0,0,0,1.16-2V3a2.31,2.31,0,0,0-3.47-2L95.76,18.78a2.31,2.31,0,0,0-1.16,2V56.33A2.31,2.31,0,0,0,98.07,58.33Z"/></g><path class="cls-10" d="M100,59.88,130.79,42.1a2.31,2.31,0,0,0,1.15-2V4.55a2.31,2.31,0,0,0-3.46-2L97.69,20.33a2.31,2.31,0,0,0-1.15,2V57.88A2.31,2.31,0,0,0,100,59.88Z"/><path class="cls-53" d="M379.51,140.81,205.05,242.41a4.47,4.47,0,0,1-4.5,0l-52.08-30.07L329.88,106.7l49.62,28.65A3.16,3.16,0,0,1,379.51,140.81Z"/><path class="cls-4" d="M213.2,184.1,183.85,201a.73.73,0,0,1-.73,0l-1.07-.62a.73.73,0,0,1,0-1.27l29.35-16.94a.73.73,0,0,1,.73,0l1.07.62A.73.73,0,0,1,213.2,184.1Z"/><path class="cls-4" d="M218,186.85l-29.35,17a.73.73,0,0,1-.73,0l-1.08-.63a.73.73,0,0,1,0-1.27L216.16,185a.73.73,0,0,1,.73,0l1.08.62A.73.73,0,0,1,218,186.85Z"/><path class="cls-4" d="M222.73,189.6l-29.35,17a.73.73,0,0,1-.73,0l-1.07-.63a.72.72,0,0,1,0-1.26l29.35-16.95a.73.73,0,0,1,.73,0l1.07.62A.73.73,0,0,1,222.73,189.6Z"/><path class="cls-9" d="M227.5,192.35l-45.87,26.49a.73.73,0,0,1-.73,0l-1.08-.63a.73.73,0,0,1,0-1.27l45.87-26.48a.73.73,0,0,1,.73,0l1.08.62A.73.73,0,0,1,227.5,192.35Z"/><path class="cls-62" d="M188.84,204.94l0,3.58a.31.31,0,0,1-.16.28l-9.27,5.39a.33.33,0,0,1-.49-.29l0-3.58a.34.34,0,0,1,.16-.29l9.27-5.38A.33.33,0,0,1,188.84,204.94Z"/><path class="cls-63" d="M178.92,210.32l0,3.59a.33.33,0,0,1-.5.28l-9.33-5.38a.34.34,0,0,1-.17-.29l0-3.59a.33.33,0,0,1,.49-.29l9.34,5.39A.34.34,0,0,1,178.92,210.32Z"/><path class="cls-64" d="M188.35,204.65,179.09,210a.32.32,0,0,1-.33,0l-9.34-5.39a.33.33,0,0,1,0-.57l9.27-5.38a.33.33,0,0,1,.33,0l9.33,5.38A.34.34,0,0,1,188.35,204.65Z"/><path class="cls-65" d="M231.59,200.18a.78.78,0,0,0,0,1.47,2.21,2.21,0,0,0,.64.23l-1.47,5.21a2.56,2.56,0,0,0-1.14.3c-.45.26-.61.62-.48,1l-19.92,4.33a1.14,1.14,0,0,0-.25-.18,2.8,2.8,0,0,0-2.55,0,.77.77,0,0,0,0,1.46l.33.15-7.06,11.11a2.7,2.7,0,0,0-1.46.29.78.78,0,0,0,0,1.47,2.84,2.84,0,0,0,2.54,0c.71-.41.71-1.06,0-1.47a2.4,2.4,0,0,0-.4-.17l7-11.09A2.66,2.66,0,0,0,209,214a.82.82,0,0,0,.5-.89l20-4.34a1.56,1.56,0,0,0,.19.13,2.84,2.84,0,0,0,2.54,0,.78.78,0,0,0,0-1.47,2.14,2.14,0,0,0-.7-.24l1.47-5.2a2.64,2.64,0,0,0,1.21-.3.78.78,0,0,0,0-1.47A2.86,2.86,0,0,0,231.59,200.18Z"/><polygon class="cls-66" points="128.63 15.78 101.37 31.52 101.37 29.36 128.63 13.62 128.63 15.78"/><polygon class="cls-66" points="128.63 20.26 101.37 35.99 101.37 33.84 128.63 18.1 128.63 20.26"/><polygon class="cls-66" points="128.63 24.73 101.37 40.47 101.37 38.31 128.63 22.57 128.63 24.73"/><polygon class="cls-66" points="128.63 29.21 101.37 44.94 101.37 42.78 128.63 27.05 128.63 29.21"/><polygon class="cls-66" points="128.63 33.68 101.37 49.42 101.37 47.26 128.63 31.52 128.63 33.68"/><polygon class="cls-66" points="128.63 38.16 111.59 47.99 111.59 45.98 128.63 36.15 128.63 38.16"/><polygon class="cls-4" points="375.05 136.38 278.41 192.17 235.23 167.24 331.87 111.45 375.05 136.38"/><g class="cls-67"><line class="cls-68" x1="245.23" y1="169.65" x2="286.55" y2="145.8"/><line class="cls-68" x1="249.19" y1="171.93" x2="290.5" y2="148.08"/><line class="cls-68" x1="253.15" y1="174.22" x2="294.46" y2="150.36"/><line class="cls-68" x1="257.1" y1="176.5" x2="298.42" y2="152.65"/><line class="cls-68" x1="261.06" y1="178.78" x2="302.37" y2="154.93"/><line class="cls-68" x1="265.02" y1="181.07" x2="306.33" y2="157.22"/><line class="cls-68" x1="268.97" y1="183.35" x2="310.29" y2="159.5"/><line class="cls-68" x1="272.93" y1="185.64" x2="314.24" y2="161.79"/></g><polyline class="cls-56" points="247.73 164.57 282.86 184.85 310.19 169.07"/><polygon class="cls-56" points="257.1 164.42 253.71 166.37 251.11 164.87 254.49 162.91 257.1 164.42"/><polygon class="cls-56" points="268.15 162.84 257.88 168.78 255.01 167.12 265.29 161.19 268.15 162.84"/><polygon class="cls-56" points="267.89 167.8 262.04 171.18 259.44 169.68 265.29 166.29 267.89 167.8"/><polygon class="cls-56" points="279.35 166 266.2 173.58 263.47 172 276.61 164.42 279.35 166"/><polygon class="cls-56" points="293.14 162.84 270.37 175.99 267.5 174.33 290.28 161.19 293.14 162.84"/><polygon class="cls-56" points="292.49 168.02 274.53 178.39 271.93 176.89 289.89 166.52 292.49 168.02"/><polygon class="cls-56" points="292.36 172.91 278.69 180.79 275.96 179.22 289.63 171.33 292.36 172.91"/><polygon class="cls-56" points="300.82 172.83 282.86 183.2 280.26 181.7 298.21 171.33 300.82 172.83"/><polygon class="cls-69" points="257.1 164.42 253.71 166.37 251.11 164.87 254.49 162.91 257.1 164.42"/><polygon class="cls-70" points="268.15 162.84 257.88 168.78 255.01 167.12 265.29 161.19 268.15 162.84"/><polygon class="cls-71" points="267.89 167.8 262.04 171.18 259.44 169.68 265.29 166.29 267.89 167.8"/><polygon class="cls-72" points="279.35 166 266.2 173.58 263.47 172 276.61 164.42 279.35 166"/><polygon class="cls-73" points="293.14 162.84 270.37 175.99 267.5 174.33 290.28 161.19 293.14 162.84"/><polygon class="cls-74" points="292.49 168.02 274.53 178.39 271.93 176.89 289.89 166.52 292.49 168.02"/><polygon class="cls-75" points="292.36 172.91 278.69 180.79 275.96 179.22 289.63 171.33 292.36 172.91"/><polygon class="cls-76" points="300.82 172.83 282.86 183.2 280.26 181.7 298.21 171.33 300.82 172.83"/><line class="cls-56" x1="250.59" y1="166.52" x2="248.77" y2="167.57"/><line class="cls-56" x1="254.49" y1="168.77" x2="252.67" y2="169.83"/><line class="cls-56" x1="259.13" y1="171.45" x2="257.31" y2="172.51"/><line class="cls-56" x1="263.04" y1="173.71" x2="261.22" y2="174.76"/><line class="cls-56" x1="266.94" y1="175.96" x2="265.12" y2="177.01"/><line class="cls-56" x1="270.85" y1="178.22" x2="269.02" y2="179.27"/><line class="cls-56" x1="274.75" y1="180.47" x2="272.93" y2="181.52"/><line class="cls-56" x1="278.65" y1="182.72" x2="276.83" y2="183.78"/><path class="cls-77" d="M326.84,121.36a7.94,7.94,0,0,0,7.17,0c2-1.14,2-3,0-4.14a7.94,7.94,0,0,0-7.17,0C324.86,118.36,324.86,120.22,326.84,121.36Z"/><path class="cls-9" d="M328,120.75a5.3,5.3,0,0,0,4.81,0c1.32-.76,1.32-2,0-2.77a5.3,5.3,0,0,0-4.81,0C326.7,118.75,326.7,120,328,120.75Z"/><path class="cls-10" d="M329.6,142.87,311,153.61a3.67,3.67,0,0,1-3.31-.14L289.57,143c-1-.57-1.09-1.42-.24-1.91l18.6-10.74a3.67,3.67,0,0,1,3.31.14L329.36,141C330.34,141.52,330.45,142.38,329.6,142.87Z"/><polygon class="cls-66" points="311.32 133.85 294.46 143.58 293.22 142.87 310.08 133.13 311.32 133.85"/><polygon class="cls-66" points="313.89 135.33 297.03 145.06 295.79 144.35 312.65 134.62 313.89 135.33"/><polygon class="cls-66" points="316.46 136.81 299.6 146.55 298.36 145.84 315.22 136.1 316.46 136.81"/><polygon class="cls-66" points="319.03 138.3 302.17 148.03 300.93 147.32 317.79 137.59 319.03 138.3"/><polygon class="cls-66" points="321.6 139.78 304.74 149.52 303.5 148.8 320.36 139.07 321.6 139.78"/><polygon class="cls-66" points="324.17 141.27 307.31 151 306.07 150.29 322.93 140.55 324.17 141.27"/><line class="cls-78" x1="312.29" y1="155.37" x2="332.36" y2="143.78"/><line class="cls-56" x1="315.45" y1="157.19" x2="335.52" y2="145.61"/><line class="cls-78" x1="318.61" y1="159.02" x2="338.68" y2="147.43"/><line class="cls-56" x1="321.77" y1="160.84" x2="341.84" y2="149.26"/><path class="cls-79" d="M364.9,137.52l-16.52,9.54a4.27,4.27,0,0,1-3.85-.16l-21.38-12.34c-1.14-.66-1.27-1.66-.28-2.23l16.52-9.54a4.3,4.3,0,0,1,3.85.16l21.38,12.35C365.77,136,365.89,137,364.9,137.52Z"/><path class="cls-80" d="M348.91,142.53c.69.4,3.29-.45,5.8-1.9s4-2.94,3.28-3.35-3.3.45-5.8,1.9S348.21,142.12,348.91,142.53Z"/><path class="cls-81" d="M333.31,135.19c3.3,1.9,17,6.71,20.26,4.8s-5-9.79-8.32-11.7a13.22,13.22,0,0,0-11.94,0C330,130.2,330,133.28,333.31,135.19Z"/><path class="cls-80" d="M351.6,138.86c-3,1.73-14.57-2.09-19.12-4.23a5.74,5.74,0,0,0,.77.52c3.3,1.91,17,6.71,20.26,4.81s-5-9.8-8.32-11.7a8.39,8.39,0,0,0-.9-.45C348,130.44,354.6,137.12,351.6,138.86Z"/><path class="cls-24" d="M333.31,135.19c3.3,1.9,17,6.71,20.26,4.8s-5-9.79-8.32-11.7a13.22,13.22,0,0,0-11.94,0C330,130.2,330,133.28,333.31,135.19Z"/><path class="cls-65" d="M335.92,134.07a8.28,8.28,0,0,0,7.45,0c2.05-1.19,2.05-3.12,0-4.3a8.22,8.22,0,0,0-7.45,0C333.86,131,333.86,132.88,335.92,134.07Z"/><path class="cls-82" d="M327.26,119.38s.51,1.2,3,1.2,3.17-1.2,3.17-1.2V92.69h-6.17Z"/><g class="cls-83"><path class="cls-10" d="M328.93,141.54l-18.59,10.74a3.69,3.69,0,0,1-3.32-.14L288.9,141.68c-1-.57-1.08-1.43-.23-1.92L307.26,129a3.69,3.69,0,0,1,3.32.14l18.11,10.46C329.67,140.19,329.78,141.05,328.93,141.54Z"/><polygon class="cls-66" points="310.65 132.51 293.79 142.25 292.56 141.54 309.42 131.8 310.65 132.51"/><polygon class="cls-66" points="313.22 134 296.36 143.73 295.13 143.02 311.99 133.29 313.22 134"/><polygon class="cls-66" points="315.79 135.48 298.93 145.22 297.7 144.5 314.56 134.77 315.79 135.48"/><polygon class="cls-66" points="318.36 136.97 301.5 146.7 300.27 145.99 317.13 136.25 318.36 136.97"/><polygon class="cls-66" points="320.93 138.45 304.07 148.18 302.84 147.47 319.7 137.74 320.93 138.45"/><polygon class="cls-66" points="323.5 139.93 306.64 149.67 305.41 148.96 322.27 139.22 323.5 139.93"/></g><g class="cls-83"><path class="cls-65" d="M328.93,139l-18.59,10.73a3.69,3.69,0,0,1-3.32-.14L288.9,139.16c-1-.56-1.08-1.42-.23-1.91l18.59-10.74a3.72,3.72,0,0,1,3.32.14l18.11,10.46C329.67,137.68,329.78,138.54,328.93,139Z"/><polygon class="cls-10" points="310.65 130 293.79 139.74 292.56 139.02 309.42 129.29 310.65 130"/><polygon class="cls-10" points="313.22 131.49 296.36 141.22 295.13 140.51 311.99 130.77 313.22 131.49"/><polygon class="cls-10" points="315.79 132.97 298.93 142.7 297.7 141.99 314.56 132.26 315.79 132.97"/><polygon class="cls-10" points="318.36 134.45 301.5 144.19 300.27 143.47 317.13 133.74 318.36 134.45"/><polygon class="cls-10" points="320.93 135.94 304.07 145.67 302.84 144.96 319.7 135.22 320.93 135.94"/><polygon class="cls-10" points="323.5 137.42 306.64 147.15 305.41 146.44 322.27 136.71 323.5 137.42"/></g><path class="cls-84" d="M53.12,105.53,83.9,87.76a2.29,2.29,0,0,0,1.16-2V50.21a2.31,2.31,0,0,0-3.46-2L50.81,66a2.29,2.29,0,0,0-1.16,2v35.54A2.31,2.31,0,0,0,53.12,105.53Z"/><path class="cls-47" d="M53.12,98.1,83.9,80.33a2.32,2.32,0,0,0,1.16-2V42.78a2.31,2.31,0,0,0-3.46-2L50.81,58.55a2.31,2.31,0,0,0-1.16,2V96.1A2.31,2.31,0,0,0,53.12,98.1Z"/><path class="cls-65" d="M55.05,99.65,85.84,81.87a2.31,2.31,0,0,0,1.15-2V44.32a2.31,2.31,0,0,0-3.46-2L52.74,60.1a2.31,2.31,0,0,0-1.15,2V97.65A2.31,2.31,0,0,0,55.05,99.65Z"/><path class="cls-10" d="M71.73,55.43c.6-.34,1.07-.07,1.07.62v.63A6.79,6.79,0,0,1,76.64,56c.4,0,.75.26.75.95A3,3,0,0,1,76,59.36a1.22,1.22,0,0,1-.75.17,6.12,6.12,0,0,0-2.55.21v5.5c3.77-1.08,5.38-.27,5.38,2.8S76,74.51,72.8,76.68V78.4a2.35,2.35,0,0,1-1.07,1.85c-.6.34-1.09.08-1.09-.61V77.87a7.88,7.88,0,0,1-5.09.7c-.42-.07-.67-.39-.67-1a3,3,0,0,1,1.37-2.36,1,1,0,0,1,.81-.16,5.88,5.88,0,0,0,3.68-.2V69.21c-3.63,1-5.31.4-5.31-2.83,0-3.07,2.11-6.41,5.21-8.49v-.6A2.36,2.36,0,0,1,71.73,55.43Zm-1,10.35V60.7a4.84,4.84,0,0,0-2.38,3.78C68.36,65.69,68.83,66.16,70.74,65.78Zm2,2.85v5.21a5,5,0,0,0,2.45-3.91C75.15,68.67,74.61,68.21,72.7,68.63Z"/><polygon class="cls-85" points="370.91 125.7 384.88 125.7 384.88 120.02 372.5 120.02 370.91 125.7"/><path class="cls-86" d="M382.49,139.89c2,1.16,2,3,0,4.19a8,8,0,0,1-7.26,0c-2-1.15-2-3,0-4.19A8,8,0,0,1,382.49,139.89Z"/><polygon class="cls-14" points="381.99 120.5 381.4 140.78 380.81 141.13 380.26 140.85 378.88 121.05 381.99 120.5"/><path class="cls-49" d="M381.36,140.69s1.64,2.49.9,2.41-2-1.86-2-1.86l-.05-1Z"/><polygon class="cls-14" points="375.4 120.5 375.99 140.78 376.58 141.13 377.14 140.85 378.51 121.05 375.4 120.5"/><path class="cls-49" d="M376,140.69s-1.63,2.49-.89,2.41,2-1.81,2-1.81l0-1Z"/><rect class="cls-45" x="371.09" y="100.72" width="15.26" height="18.21" rx="1.58" ry="1.58" transform="translate(757.44 219.65) rotate(180)"/><path class="cls-14" d="M371.09,120.81l3.92,1a14.79,14.79,0,0,0,7.27,0l4.14-1v-4.2h0a30.92,30.92,0,0,1-15.26,0l-.07,0Z"/><path class="cls-46" d="M380.93,102.63V125.7H386l2.28-23.35a1.51,1.51,0,0,0-1.5-1.65H381.4Z"/><path class="cls-53" d="M384.44,100.72a8.09,8.09,0,0,1-6,5.81c-5,1.12-5.95-5.88-5.95-5.88Z"/><polygon class="cls-45" points="383.22 100.82 385.71 102.89 382.78 104.84 385.15 105.38 380.96 119.49 385.59 105.02 383.55 104.7 386.15 102.74 383.22 100.82"/><path class="cls-46" d="M376,102.63V125.7h-5.06l-2.38-23.42a1.5,1.5,0,0,1,1.5-1.58h5.47Z"/><polygon class="cls-45" points="373.72 100.82 371.23 102.89 374.16 104.84 371.8 105.38 375.98 119.49 371.35 105.02 373.39 104.7 370.79 102.74 373.72 100.82"/><path class="cls-54" d="M378.44,103.46h0a5.6,5.6,0,0,1-5.59-5.6V93.24a5.59,5.59,0,0,1,5.59-5.59h0a5.6,5.6,0,0,1,5.6,5.59v4.62A5.6,5.6,0,0,1,378.44,103.46Z"/><polyline class="cls-87" points="378.4 94.74 378.4 98.36 379.06 98.36 379.06 97.08"/><path class="cls-45" d="M382.13,96.2h-1.51a.47.47,0,0,1-.47-.46h0a.47.47,0,0,1,.47-.47h1.51a.47.47,0,0,1,.46.47h0A.47.47,0,0,1,382.13,96.2Z"/><path class="cls-45" d="M376.61,96.2H375.1a.47.47,0,0,1-.46-.46h0a.47.47,0,0,1,.46-.47h1.51a.47.47,0,0,1,.47.47h0A.47.47,0,0,1,376.61,96.2Z"/><path class="cls-17" d="M381.53,98h0a.16.16,0,0,1-.16-.16v-.42a.16.16,0,0,1,.16-.16h0a.16.16,0,0,1,.16.16v.42A.16.16,0,0,1,381.53,98Z"/><path class="cls-17" d="M376.1,98h0a.16.16,0,0,1-.16-.16v-.42a.16.16,0,0,1,.16-.16h0a.16.16,0,0,1,.15.16v.42A.16.16,0,0,1,376.1,98Z"/><path class="cls-46" d="M388.07,102.29s.94,11.37,4.13,11,3-5.24,3-5.24l3.38.13s-1.38,6.92-6.44,7.19a5.52,5.52,0,0,1-6-4Z"/><path class="cls-46" d="M398.6,108.17c0,.35-.77.64-1.72.64s-1.72-.29-1.72-.64.77-.65,1.72-.65S398.6,107.81,398.6,108.17Z"/><path class="cls-54" d="M398.34,108.08s.5-3.1-.85-3.3-1.82,3.14-1.82,3.14A2.64,2.64,0,0,0,398.34,108.08Z"/><path class="cls-46" d="M369.15,102.29s-.94,11.37-4.13,11-3-5.24-3-5.24l-3.38.13s1.38,6.92,6.44,7.19a5.52,5.52,0,0,0,6-4Z"/><path class="cls-46" d="M358.62,108.17c0,.35.77.64,1.72.64s1.72-.29,1.72-.64-.77-.65-1.72-.65S358.62,107.81,358.62,108.17Z"/><path class="cls-54" d="M358.88,108.08s-.5-3.1.85-3.3,1.82,3.14,1.82,3.14A2.64,2.64,0,0,1,358.88,108.08Z"/><circle class="cls-88" cx="376.04" cy="97.36" r="1.81"/><circle class="cls-88" cx="381.41" cy="97.36" r="1.81"/><path class="cls-88" d="M377.76,96.85a1.3,1.3,0,0,1,1.83.07"/><path class="cls-45" d="M372.87,95s.7-3.84,2.63-4.13,1.74,1.21,3.32,1.23,1.48-1.38,3.08-1.32S384,95.5,384,95.5s2.24-9.24-5.76-8.56S372.87,95,372.87,95Z"/><path class="cls-89" d="M354.83,109.92l5.44,3.14c2.72,1.57,5-.11,5-3.74V109c0-3.63-2.23-7.89-5-9.46l-5.44-3.14c-2.73-1.57-4.95.11-4.95,3.74v.34C349.88,104.09,352.1,108.35,354.83,109.92Z"/><path class="cls-47" d="M361,102.54l3.65,2.11c1.83,1.06,3.32-.07,3.32-2.51v-.23a8,8,0,0,0-3.32-6.35L361,93.45c-1.83-1.06-3.33.08-3.33,2.51v.23A8,8,0,0,0,361,102.54Z"/><path class="cls-90" d="M398.58,110l-4.14,2.39c-2.07,1.2-3.76-.08-3.76-2.84v-.26c0-2.76,1.69-6,3.76-7.19l4.14-2.39c2.07-1.2,3.76.08,3.76,2.84v.26C402.34,105.56,400.65,108.8,398.58,110Z"/><path class="cls-47" d="M400.65,97.64l-2.77,1.61c-1.39.8-2.53-.06-2.53-1.91v-.18a6.1,6.1,0,0,1,2.53-4.83l2.77-1.6c1.39-.8,2.53.06,2.53,1.91v.17A6.07,6.07,0,0,1,400.65,97.64Z"/><polygon class="cls-85" points="158.94 95.5 144.98 95.5 144.98 89.82 157.36 89.82 158.94 95.5"/><path class="cls-86" d="M147.36,109.7c-2,1.15-2,3,0,4.19a8,8,0,0,0,7.27,0c2-1.16,2-3,0-4.19A8,8,0,0,0,147.36,109.7Z"/><polygon class="cls-14" points="147.87 90.31 148.46 110.58 149.05 110.93 149.6 110.66 150.97 90.86 147.87 90.31"/><path class="cls-49" d="M148.5,110.49s-1.64,2.49-.9,2.41,2-1.86,2-1.86l0-1Z"/><polygon class="cls-14" points="154.45 90.31 153.86 110.58 153.27 110.93 152.72 110.66 151.34 90.86 154.45 90.31"/><path class="cls-49" d="M153.82,110.49s1.64,2.49.9,2.41-2-1.81-2-1.81l0-1Z"/><rect class="cls-45" x="143.51" y="70.53" width="15.26" height="18.21" rx="1.58" ry="1.58"/><path class="cls-14" d="M158.76,90.61l-3.92,1a14.79,14.79,0,0,1-7.27,0l-4.13-1v-4.2h0a30.8,30.8,0,0,0,15.26,0l.06,0Z"/><path class="cls-46" d="M148.93,72.43V95.5h-5.08l-2.28-23.35a1.5,1.5,0,0,1,1.49-1.65h5.4Z"/><path class="cls-53" d="M145.42,70.53a8.09,8.09,0,0,0,6,5.81c5,1.11,5.94-5.88,5.94-5.88Z"/><polygon class="cls-45" points="146.63 70.62 144.15 72.69 147.08 74.65 144.71 75.18 148.9 89.29 144.27 74.83 146.31 74.5 143.7 72.55 146.63 70.62"/><path class="cls-46" d="M153.89,72.43V95.5h5.05l2.39-23.42a1.51,1.51,0,0,0-1.5-1.58h-5.47Z"/><polygon class="cls-45" points="156.14 70.62 158.62 72.69 155.69 74.65 158.06 75.18 153.87 89.29 158.5 74.83 156.46 74.5 159.07 72.55 156.14 70.62"/><path class="cls-54" d="M151.41,73.26h0a5.6,5.6,0,0,0,5.6-5.6V63.05a5.6,5.6,0,0,0-5.6-5.6h0a5.6,5.6,0,0,0-5.59,5.6v4.61A5.59,5.59,0,0,0,151.41,73.26Z"/><path class="cls-45" d="M146.15,59.31c0,1.77,2.45,3.2,5.49,3.2s5.33.36,5.33-1.41-2.3-5-5.33-5S146.15,57.54,146.15,59.31Z"/><path class="cls-45" d="M145.83,66.1a2.75,2.75,0,0,0,2.26,2.9c2.55.73,1.27-.54,3.63-.4s1.55.81,2.82.63,2.54-2.54,2.54-2.54.95,7.71-6,7.44S145.83,66.1,145.83,66.1Z"/><polyline class="cls-87" points="151.46 64.55 151.46 68.16 150.79 68.16 150.79 66.89"/><path class="cls-45" d="M147.73,66h1.51a.46.46,0,0,0,.46-.46h0a.46.46,0,0,0-.46-.47h-1.51a.47.47,0,0,0-.47.47h0A.47.47,0,0,0,147.73,66Z"/><path class="cls-45" d="M153.24,66h1.52a.47.47,0,0,0,.46-.46h0a.47.47,0,0,0-.46-.47h-1.52a.47.47,0,0,0-.46.47h0A.47.47,0,0,0,153.24,66Z"/><path class="cls-17" d="M148.33,67.75h0a.16.16,0,0,0,.15-.16v-.42a.16.16,0,0,0-.15-.16h0a.16.16,0,0,0-.16.16v.42A.16.16,0,0,0,148.33,67.75Z"/><path class="cls-17" d="M153.76,67.75h0a.16.16,0,0,0,.16-.16v-.42a.16.16,0,0,0-.16-.16h0a.16.16,0,0,0-.16.16v.42A.16.16,0,0,0,153.76,67.75Z"/><path class="cls-46" d="M141.79,72.09s-.94,11.38-4.14,11-3-5.24-3-5.24l-3.39.13s1.39,6.92,6.45,7.19a5.51,5.51,0,0,0,6-4Z"/><path class="cls-46" d="M131.26,78c0,.36.77.65,1.71.65s1.72-.29,1.72-.65-.77-.65-1.72-.65S131.26,77.61,131.26,78Z"/><path class="cls-54" d="M131.52,77.88s-.51-3.1.84-3.3,1.83,3.15,1.83,3.15A2.62,2.62,0,0,1,131.52,77.88Z"/><path class="cls-91" d="M128.42,80.08l3.94,2.27c2.24,1.29,4.07-.09,4.07-3.07h0c0-3-1.83-6.49-4.07-7.78l-3.94-2.27c-2.24-1.3-4.07.09-4.07,3.07h0C124.35,75.29,126.18,78.79,128.42,80.08Z"/><path class="cls-91" d="M136.44,72l3.94,2.27c2.23,1.29,4.07-.09,4.07-3.08h0c0-3-1.84-6.48-4.07-7.77l-3.94-2.28c-2.24-1.29-4.07.1-4.07,3.08h0C132.37,67.2,134.2,70.7,136.44,72Z"/><path class="cls-9" d="M146.33,82.89l-.13-4.23a.56.56,0,0,1,.56-.58h8.37a.56.56,0,0,1,.55.56V85.7a.55.55,0,0,1-.55.55H147a.56.56,0,0,1-.56-.54Z"/><path class="cls-4" d="M146.33,83.56l-.13-4.24a.56.56,0,0,1,.56-.57h8.37a.56.56,0,0,1,.55.56v7a.56.56,0,0,1-.55.56H147a.56.56,0,0,1-.56-.55Z"/><path class="cls-53" d="M148.37,86.21a6.91,6.91,0,0,0,6.53,2.42c4.18-.74,4.85-3.16,4.85-3.16Z"/><path class="cls-46" d="M161.1,71.52s3.64,16.64-5.59,15.83-8.15-1.75-8.15-1.75L148.1,83s6.06,2.43,8.35.74,2.36-9.9,2.36-9.9"/><path class="cls-54" d="M148.1,83.33s-1.92-.92-2.58.19,1.92,1.74,1.92,1.74Z"/><polygon class="cls-53" points="157.7 237.78 177.58 249.26 188.9 242.72 169.02 231.24 157.7 237.78"/><path class="cls-54" d="M181.88,242.79s2.28,1.65,3,1.19-1.64-2.32-1.64-2.32Z"/><polygon class="cls-45" points="163.73 219.26 176.65 224.78 177.54 240.13 174.62 242.57 161.87 235.42 163.73 219.26"/><path class="cls-53" d="M174,223.49s-1.22,5-5,3.83-3.39-7.55-3.39-7.55Z"/><path class="cls-14" d="M162.21,232.53s7.48,6.38,11,6.43S177.4,237,177.4,237l.14,3.11-2.92,2.44-8.25-2.83-4.5-4.32Z"/><path class="cls-14" d="M170.08,238.85l-2.72,2.61.17,19.91a1.61,1.61,0,0,0,.78,0c.38-.11.55-.66.55-.66l1.67-16.81,4.09-1.33.68-2.55Z"/><path class="cls-49" d="M167.53,261.43s-2.5,2.49-1.39,2.55,2.72-3.22,2.72-3.22Z"/><path class="cls-46" d="M170.86,224.49s.28,18.19,1.16,18.91l1.44,1.17a8.83,8.83,0,0,0,4.61-.95,3.11,3.11,0,0,0,1.66-3s-1.61-.39-1.44-5.22-.33-11.2-.33-11.2l-4.61-1.5Z"/><path class="cls-14" d="M162.37,235.08l-4.6,2.44.94,19.91a1.48,1.48,0,0,0,.78,0c.39-.11.55-.66.55-.66l.89-16.81,5.1-1.16-.33-2.72Z"/><path class="cls-49" d="M158.71,257.43s-2.5,2.5-1.39,2.56,2.72-3.22,2.72-3.22Z"/><path class="cls-46" d="M166,220.83l-1.83,14.81s-4.11.77-5.44-.17-2.22-1.44-2.22-1.44a15.65,15.65,0,0,0,2.66-3.11c1.61-2.27,3.39-12.64,3.39-12.64l3,1.49Z"/><path class="cls-54" d="M169.53,224.35h0a5.29,5.29,0,0,0,5.82-4.69l.56-5.21a5.27,5.27,0,0,0-4.69-5.82h0a5.27,5.27,0,0,0-5.82,4.69l-.56,5.2A5.29,5.29,0,0,0,169.53,224.35Z"/><path class="cls-45" d="M175.59,216.74c.22-.36,2.87-6.17-.62-8.59s-6.08-1.23-9-.73-4-3.13-5.65-1.43,1.4,8.57,6.93,8.1,3.42-4,5.76-2.32A7.39,7.39,0,0,1,175.59,216.74Z"/><polyline class="cls-87" points="168.02 215.73 167.65 219.12 168.54 219.21 168.76 217.19"/><path class="cls-45" d="M165.28,216.71l1.5.17a.48.48,0,0,0,.52-.41h0a.48.48,0,0,0-.42-.52l-1.5-.16a.47.47,0,0,0-.51.41h0A.46.46,0,0,0,165.28,216.71Z"/><path class="cls-45" d="M170.77,217.31l1.5.16a.47.47,0,0,0,.51-.41h0a.46.46,0,0,0-.41-.51l-1.51-.17a.48.48,0,0,0-.51.42h0A.48.48,0,0,0,170.77,217.31Z"/><path class="cls-17" d="M165.69,218.52h0a.16.16,0,0,0,.17-.14l0-.42a.17.17,0,0,0-.14-.18h0a.16.16,0,0,0-.18.14l0,.42A.16.16,0,0,0,165.69,218.52Z"/><path class="cls-17" d="M171.09,219.1h0a.16.16,0,0,0,.18-.14l0-.42a.16.16,0,0,0-.14-.18h0a.15.15,0,0,0-.17.15l-.05.42A.16.16,0,0,0,171.09,219.1Z"/><polygon class="cls-45" points="164.48 220.33 162.43 221.49 163.54 224.21 162.04 225.15 164.15 235.64 161.59 225.04 162.98 224.1 162.22 221.4 164.48 220.33"/><polygon class="cls-45" points="173.1 224.02 174.5 225.79 172.43 227.95 174.24 228.75 171.54 241.49 173.86 228.92 171.92 227.86 173.91 225.71 173.1 224.02"/><path class="cls-46" d="M162.56,218.54s-2.7,9.7-6.08,9.58-1.77-7.13-1.77-7.13l-3.16.25s-.09,10.67,4.13,9.95,6.12-7.46,6.12-7.46Z"/><path class="cls-46" d="M178,224.21l5.35,17.07a2.27,2.27,0,0,1-.08,1.26c-.26.38-1.65.42-1.65.42l-4.89-13.28S176.06,225.28,178,224.21Z"/><path class="cls-54" d="M154.33,221.07s-1.64-2.45-2.78-2.28.46,2.45.46,2.45Z"/><path class="cls-92" d="M149.91,213.08a6.72,6.72,0,0,0,3,5.25c1.68,1,3,.18,3-1.75a6.68,6.68,0,0,0-3-5.25C151.27,210.36,149.91,211.14,149.91,213.08Z"/><path class="cls-93" d="M151.4,214.06a3.14,3.14,0,0,0,1.41,2.44c.78.45,1.41.08,1.41-.82a3.12,3.12,0,0,0-1.41-2.44C152,212.79,151.4,213.16,151.4,214.06Z"/><path class="cls-53" d="M151.69,219.66c-.13.22,0,.56.39.76s.72.18.85,0-.05-.57-.39-.77S151.82,219.44,151.69,219.66Z"/><path class="cls-91" d="M148.46,216.05l-4.14-2.39a3,3,0,0,1-1.27-2.42h0c0-.93.57-1.36,1.27-1l4.14,2.39a3.05,3.05,0,0,1,1.26,2.42h0C149.72,216,149.15,216.45,148.46,216.05Z"/><path class="cls-91" d="M158.23,211.56l-4.14-2.38a3.1,3.1,0,0,1-1.27-2.43h0c0-.93.58-1.36,1.27-1l4.14,2.39a3.05,3.05,0,0,1,1.27,2.43h0C159.5,211.54,158.93,212,158.23,211.56Z"/></g></g></svg>