<svg xmlns="http://www.w3.org/2000/svg" viewBox="0 0 364.88 399.09"><defs><style>.cls-1{isolation:isolate;}.cls-2,.cls-38,.cls-39,.cls-8{fill:#34dce7;}.cls-2{opacity:0.1;}.cls-24,.cls-3{fill:#224dc2;}.cls-4{fill:#226fcd;}.cls-5{fill:#479ee8;}.cls-6{fill:#15081f;}.cls-7{fill:#80ffff;}.cls-9{fill:#dbff0e;}.cls-10{fill:#ff551f;}.cls-11{fill:#ff2995;}.cls-12{opacity:0.17;}.cls-13{fill:#feb187;}.cls-14{fill:#f88b65;}.cls-15{fill:#b7ffe7;}.cls-16{fill:#96d2e7;}.cls-17{fill:#14c3e7;}.cls-18{fill:#14afe7;}.cls-19{fill:#dc9266;}.cls-20{fill:#0c2898;}.cls-21{fill:#133aaf;}.cls-22{fill:#2273db;}.cls-23{fill:#22a4fd;}.cls-24{opacity:0.65;mix-blend-mode:multiply;}.cls-25{fill:#52fffd;}.cls-26{fill:#70ffe7;}.cls-27{fill:#2293f0;}.cls-28{fill:#22b2ff;}.cls-29{fill:#7ff;}.cls-30{fill:#27b0d7;}.cls-31{fill:#5fffff;}.cls-32{fill:#226ee5;}.cls-33{fill:#111f9a;}.cls-34{fill:#1159c9;}.cls-35{fill:#111b54;}.cls-36{fill:#34c6e7;}.cls-37{fill:#151586;}.cls-38{opacity:0.3;}.cls-39{opacity:0.66;}.cls-40{fill:none;stroke:#34fbe7;stroke-linecap:round;stroke-linejoin:round;}.cls-41{fill:#34fbe7;}</style></defs><title>Asset 1</title><g class="cls-1"><g id="Layer_2" data-name="Layer 2"><g id="OBJECTS"><ellipse class="cls-2" cx="186.71" cy="372.17" rx="89.77" ry="26.92"/><ellipse class="cls-2" cx="186.71" cy="365.11" rx="65.68" ry="19.69"/><ellipse class="cls-2" cx="186.71" cy="363.7" rx="49.18" ry="14.75"/><rect class="cls-3" x="49.89" y="235.94" width="265" height="5.87"/><rect class="cls-3" x="94.17" y="99.67" width="180.23" height="122.87" rx="5.05" ry="5.05"/><path class="cls-4" d="M269.36,99.67H99.22a5.06,5.06,0,0,0-5,5V210H274.41V104.72A5.06,5.06,0,0,0,269.36,99.67Z"/><path class="cls-5" d="M269.36,99.67H99.22a5.06,5.06,0,0,0-5,5v.36a5.06,5.06,0,0,1,5-5H269.36a5.06,5.06,0,0,1,5.05,5v-.36A5.06,5.06,0,0,0,269.36,99.67Z"/><rect class="cls-6" x="101.18" y="107.41" width="166.22" height="98.38"/><rect class="cls-7" x="122.96" y="119.96" width="96.34" height="2.32" rx="1.16" ry="1.16"/><rect class="cls-8" x="106.64" y="112.19" width="62.86" height="2.98" rx="1.49" ry="1.49"/><rect class="cls-8" x="106.64" y="119.96" width="8.36" height="2.32" rx="1.16" ry="1.16"/><rect class="cls-9" x="107.62" y="127.21" width="49.85" height="1.45" rx="0.72" ry="0.72"/><rect class="cls-9" x="107.62" y="133.1" width="49.85" height="1.45" rx="0.72" ry="0.72"/><rect class="cls-9" x="107.62" y="138.98" width="49.85" height="1.45" rx="0.72" ry="0.72"/><rect class="cls-9" x="107.62" y="144.87" width="49.85" height="1.45" rx="0.72" ry="0.72"/><rect class="cls-9" x="107.62" y="150.76" width="8.83" height="1.45" rx="0.72" ry="0.72"/><rect class="cls-9" x="120.51" y="150.76" width="8.83" height="1.45" rx="0.72" ry="0.72"/><rect class="cls-9" x="133.4" y="150.76" width="8.83" height="1.45" rx="0.72" ry="0.72"/><rect class="cls-9" x="146.29" y="150.76" width="8.83" height="1.45" rx="0.72" ry="0.72"/><rect class="cls-9" x="159.19" y="150.76" width="8.83" height="1.45" rx="0.72" ry="0.72"/><rect class="cls-9" x="172.08" y="150.76" width="8.83" height="1.45" rx="0.72" ry="0.72"/><rect class="cls-9" x="107.62" y="156.64" width="49.85" height="1.45" rx="0.72" ry="0.72"/><rect class="cls-10" x="195.92" y="136.5" width="61.39" height="2.01" rx="1.01" ry="1.01"/><rect class="cls-11" x="195.92" y="145.31" width="61.39" height="2.01" rx="1.01" ry="1.01"/><rect class="cls-11" x="195.92" y="153.56" width="61.39" height="2.01" rx="1.01" ry="1.01"/><rect class="cls-11" x="195.92" y="161.8" width="61.39" height="2.01" rx="1.01" ry="1.01"/><rect class="cls-11" x="195.92" y="170.05" width="61.39" height="2.01" rx="1.01" ry="1.01"/><rect class="cls-11" x="195.92" y="178.3" width="32.52" height="2.01" rx="1.01" ry="1.01"/><rect class="cls-11" x="215.86" y="183.91" width="32.52" height="2.01" rx="1.01" ry="1.01"/><rect class="cls-11" x="215.86" y="189.73" width="32.52" height="2.01" rx="1.01" ry="1.01"/><rect class="cls-11" x="114.84" y="189.73" width="16.24" height="2.01" rx="1.01" ry="1.01"/><rect class="cls-11" x="114.84" y="184.92" width="16.24" height="2.01" rx="1.01" ry="1.01"/><rect class="cls-11" x="114.84" y="180.11" width="16.24" height="2.01" rx="1.01" ry="1.01"/><rect class="cls-11" x="114.84" y="175.31" width="16.24" height="2.01" rx="1.01" ry="1.01"/><rect class="cls-11" x="138.18" y="175.31" width="6.33" height="2.01" rx="1.01" ry="1.01"/><rect class="cls-11" x="138.18" y="185.94" width="6.33" height="2.01" rx="1.01" ry="1.01"/><g class="cls-12"><polygon class="cls-5" points="267.4 169.81 267.4 152.15 213.76 205.79 231.41 205.79 267.4 169.81"/><polygon class="cls-5" points="175.05 205.79 267.4 113.44 267.4 107.41 226.33 107.41 127.94 205.79 175.05 205.79"/><polygon class="cls-5" points="101.18 150.2 101.18 189.96 183.72 107.41 143.97 107.41 101.18 150.2"/></g><rect class="cls-13" x="175.61" y="174.02" width="18.47" height="13.9"/><path class="cls-14" d="M175.61,184.92a26.56,26.56,0,0,0,18.47,0v4l-5.08.93-4.15.85-9.24-3.05Z"/><rect class="cls-15" x="154.09" y="258.24" width="61.4" height="25.83" rx="8.65" ry="8.65"/><path class="cls-16" d="M215.22,274.07c-31.68,9.35-60.87-.07-60.88-.07a12.61,12.61,0,0,0,12.31,10.08h36.27A12.62,12.62,0,0,0,215.22,274.07Z"/><path class="cls-8" d="M187.84,132.85,200.73,120a14.3,14.3,0,0,1-.45,12.89l5.32-5.32s2.39,7.18-2.46,11.11l4.39-4.4s2.76,8.16-7.43,14.41Z"/><path class="cls-17" d="M198.39,146.45l4.06.53,0,0c0-.31,1.07-11.56-11.84-16.9l-2.8,2.8Z"/><circle class="cls-13" cx="200.32" cy="160.3" r="5.73"/><circle class="cls-13" cx="169.5" cy="160.3" r="5.73"/><rect class="cls-8" x="167.04" y="132.61" width="35.62" height="49.65" rx="17.81" ry="17.81"/><polygon class="cls-18" points="170.67 161.69 170.67 166.03 172.86 163.84 174.67 165.65 176.4 163.92 177.99 165.52 177.99 160.53 177.43 163.58 176.41 162.47 174.68 164.47 172.83 162.44 171.49 163.89 170.67 161.69"/><polygon class="cls-18" points="179.05 153.78 179.05 159.35 181.86 156.54 184.18 158.86 186.39 156.65 188.44 158.7 188.44 152.3 187.72 156.21 186.41 154.79 184.19 157.34 181.81 154.75 180.1 156.61 179.05 153.78"/><polygon class="cls-18" points="192.99 166.95 192.99 170.42 194.74 168.67 196.19 170.12 197.57 168.74 198.84 170.02 198.84 166.03 198.4 168.47 197.58 167.58 196.19 169.17 194.71 167.55 193.65 168.72 192.99 166.95"/><polygon class="cls-8" points="181.09 180.12 181.09 184.76 182.39 183.46 183.81 184.88 185.15 183.54 186.53 184.92 186.53 180.12 181.09 180.12"/><polygon class="cls-8" points="185.85 179.77 186.53 183.7 187.6 182.62 188.78 183.8 189.89 182.69 191.03 183.83 191.03 179.85 185.85 179.77"/><polygon class="cls-8" points="176.59 179.85 176.59 183.7 177.67 182.62 178.84 183.8 179.95 182.69 181.09 183.83 181.51 179.77 176.59 179.85"/><polygon class="cls-8" points="173.37 137.8 169.38 133.82 169.38 137.8 165.63 137.8 168.44 140.61 165.63 140.61 168.67 143.66 173.37 143.66 173.37 137.8"/><polyline class="cls-13" points="143.35 223.52 141.36 235.94 153.09 235.94 153.09 221.97 144.78 220.24"/><polygon class="cls-19" points="150.96 226.05 142.95 226.05 143.35 223.52 150.96 226.05"/><path class="cls-20" d="M164.12,191.62c-8.4,4.11-15.87,5.37-25.3,30.4l14.28,4.74S162.5,203.37,164.12,191.62Z"/><polyline class="cls-13" points="225.37 223.52 227.36 235.94 215.63 235.94 215.63 221.97 223.94 220.24"/><polygon class="cls-19" points="217.76 226.05 225.77 226.05 225.37 223.52 217.76 226.05"/><path class="cls-20" d="M204.6,191.62c8.39,4.11,15.87,5.37,25.3,30.4l-14.28,4.74S206.22,203.37,204.6,191.62Z"/><path class="cls-3" d="M189,274h-9.22c-15.71,0-25.46-7.44-25.46-24.73l-3.1-33.76a28.65,28.65,0,0,1,28.56-28.57H189a28.65,28.65,0,0,1,28.56,28.57l-4.88,31.73C212.63,267.18,204.66,274,189,274Z"/><path class="cls-21" d="M207.69,194c-18.3,2.86-42.67.42-46.67,0a28.61,28.61,0,0,0-8.72,13.66l2.84.3,11.56,1.63,14.81,2.32,13.67.87,15.7-1.73,5.05-4.82A28.73,28.73,0,0,0,207.69,194Z"/><path class="cls-3" d="M162.92,360.42c0,2.54,3.57,2.15,8,2.15s8,.39,8-2.15-3.57-4.6-8-4.6S162.92,357.88,162.92,360.42Z"/><path class="cls-15" d="M157.83,284.08l12.91,75.13a13.65,13.65,0,0,0,8.11,0v-57Z"/><path class="cls-16" d="M178.85,303.43l-.69-1.27-.76-.1-17-1.76,2.5,13.23c2.09.11,11.53-4.25,15.81,6.68l.15-.76Z"/><path class="cls-3" d="M206.68,360.42c0,2.54-3.57,2.15-8,2.15s-8,.39-8-2.15,3.57-4.6,8-4.6S206.68,357.88,206.68,360.42Z"/><path class="cls-15" d="M211.77,284.08l-12.91,75.13a13.65,13.65,0,0,1-8.11,0v-57Z"/><path class="cls-16" d="M190.75,303.43l.69-1.27.76-.1,17-1.76-2.5,13.23c-2.09.11-11.53-4.25-15.81,6.68l-.15-.76Z"/><rect class="cls-22" x="159.12" y="322.58" width="51.33" height="4.09" rx="1.41" ry="1.41" transform="translate(-139.84 509.41) rotate(-90)"/><path class="cls-23" d="M184.78,297.55h1.33a5.38,5.38,0,0,1,5.38,5.38v12.81a6.71,6.71,0,0,1-6.71,6.71h0a6.71,6.71,0,0,1-6.71-6.71V304.26a6.71,6.71,0,0,1,6.71-6.71Z"/><path class="cls-24" d="M191.5,304.45a16.54,16.54,0,0,0-13.4,0v-4.78a16.54,16.54,0,0,1,13.4,0Z"/><path class="cls-3" d="M154.06,285h-8.52a20.62,20.62,0,0,1-1.12-41.2,2.43,2.43,0,0,1,.38,0h.74a2.3,2.3,0,1,1,0,4.59,16,16,0,1,0,0,32h8.52a2.3,2.3,0,0,1,0,4.6Z"/><rect class="cls-8" x="136.45" y="241.49" width="15.1" height="7.69" rx="3.84" ry="3.84"/><path class="cls-25" d="M140.3,241.94h7.41a3.84,3.84,0,0,1,3.82,3.62,1.92,1.92,0,0,0,0-.22,3.86,3.86,0,0,0-3.85-3.85H140.3a3.86,3.86,0,0,0-3.85,3.85,1.92,1.92,0,0,0,0,.22A3.84,3.84,0,0,1,140.3,241.94Z"/><path class="cls-3" d="M214.52,285H223a20.62,20.62,0,0,0,1.12-41.2,2.43,2.43,0,0,0-.38,0H223a2.3,2.3,0,1,0,0,4.59,16,16,0,1,1,0,32h-8.52a2.3,2.3,0,0,0,0,4.6Z"/><rect class="cls-8" x="217.02" y="241.49" width="15.1" height="7.69" rx="3.84" ry="3.84" transform="translate(449.15 490.67) rotate(180)"/><path class="cls-25" d="M228.28,241.94h-7.41a3.84,3.84,0,0,0-3.82,3.62,1.92,1.92,0,0,1,0-.22,3.86,3.86,0,0,1,3.85-3.85h7.41a3.86,3.86,0,0,1,3.85,3.85,1.92,1.92,0,0,1,0,.22A3.84,3.84,0,0,0,228.28,241.94Z"/><rect class="cls-8" x="142.27" y="278.53" width="85.03" height="18.48" rx="9.24" ry="9.24"/><path class="cls-26" d="M151.51,279.4h66.55a9.26,9.26,0,0,1,9.22,8.81c0-.15,0-.29,0-.44a9.27,9.27,0,0,0-9.24-9.24H151.51a9.27,9.27,0,0,0-9.24,9.24c0,.15,0,.29,0,.44A9.26,9.26,0,0,1,151.51,279.4Z"/><path class="cls-8" d="M196.06,270.26h-24a17.48,17.48,0,0,1-17.43-17.43l-4.36-37.72a17.48,17.48,0,0,1,17.43-17.43h34.17a17.48,17.48,0,0,1,17.43,17.43l-5.81,37.72A17.48,17.48,0,0,1,196.06,270.26Z"/><path class="cls-25" d="M167.7,198.41h34.17a17.47,17.47,0,0,1,17.4,16.92l0-.22a17.48,17.48,0,0,0-17.43-17.43H167.7a17.48,17.48,0,0,0-17.43,17.43l0,.27A17.48,17.48,0,0,1,167.7,198.41Z"/><rect class="cls-3" x="151.34" y="292.32" width="66.89" height="8.18" rx="4.09" ry="4.09"/><rect class="cls-3" x="166.99" y="300.36" width="35.6" height="8.18" rx="2.81" ry="2.81"/><path class="cls-27" d="M155.43,292.58h58.71a4.09,4.09,0,0,1,4.07,4,.51.51,0,0,0,0-.13,4.1,4.1,0,0,0-4.09-4.09H155.43a4.1,4.1,0,0,0-4.09,4.09s0,.09,0,.13A4.11,4.11,0,0,1,155.43,292.58Z"/><rect class="cls-22" x="156.94" y="298.62" width="55.69" height="4.09" rx="2.05" ry="2.05"/><path class="cls-28" d="M159,298.76h51.59a2,2,0,0,1,2,2s0-.05,0-.07a2.05,2.05,0,0,0-2-2.05H159a2.05,2.05,0,0,0-2.05,2.05s0,0,0,.07A2,2,0,0,1,159,298.76Z"/><path class="cls-23" d="M181.06,353.46v-6.35a3.73,3.73,0,0,1,3.72-3.72h0a3.73,3.73,0,0,1,3.73,3.72v6.35"/><path class="cls-22" d="M157,360.36a1.46,1.46,0,0,1-.6-2.78,71,71,0,0,1,58.36,0,1.45,1.45,0,1,1-1.19,2.65,68,68,0,0,0-56,0A1.44,1.44,0,0,1,157,360.36Z"/><rect class="cls-3" x="178.66" y="350.29" width="12.84" height="4.81" rx="1.66" ry="1.66"/><rect class="cls-22" x="184.05" y="352.69" width="2.04" height="12.89" rx="1.02" ry="1.02"/><rect class="cls-8" x="182.3" y="361.38" width="5.54" height="10.78" rx="2.77" ry="2.77"/><circle class="cls-8" cx="216.62" cy="361.99" r="5.23"/><path class="cls-29" d="M216.62,356.9a5.23,5.23,0,0,1,5.23,5.16V362a5.23,5.23,0,1,0-10.46,0s0,.05,0,.07A5.21,5.21,0,0,1,216.62,356.9Z"/><circle class="cls-30" cx="216.62" cy="361.99" r="3.12"/><circle class="cls-22" cx="216.62" cy="361.99" r="1.25"/><path class="cls-31" d="M216.62,360.81a1.25,1.25,0,0,1,1.25,1.22v0a1.25,1.25,0,0,0-2.5,0s0,0,0,0A1.24,1.24,0,0,1,216.62,360.81Z"/><circle class="cls-8" cx="155.5" cy="361.99" r="5.23"/><path class="cls-29" d="M155.5,356.9a5.22,5.22,0,0,1,5.22,5.16s0,0,0-.07a5.24,5.24,0,0,0-10.47,0s0,.05,0,.07A5.23,5.23,0,0,1,155.5,356.9Z"/><circle class="cls-30" cx="155.5" cy="361.99" r="3.12"/><circle class="cls-22" cx="155.5" cy="361.99" r="1.25"/><path class="cls-31" d="M155.5,360.81a1.24,1.24,0,0,1,1.24,1.22s0,0,0,0a1.26,1.26,0,0,0-2.51,0s0,0,0,0A1.25,1.25,0,0,1,155.5,360.81Z"/><rect class="cls-3" x="166.99" y="221.65" width="35.6" height="17.07" rx="8.54" ry="8.54"/><path class="cls-32" d="M194.05,221.65H175.52a8.56,8.56,0,0,0-8.53,8.53h0v.14a8.56,8.56,0,0,1,8.53-8.39h18.53a8.57,8.57,0,0,1,8.53,8.39v-.14h0A8.56,8.56,0,0,0,194.05,221.65Z"/><rect class="cls-33" x="180.73" y="228.1" width="8.1" height="68.31" rx="2.79" ry="2.79"/><rect class="cls-34" x="181.6" y="232.36" width="6.37" height="1.76" rx="0.57" ry="0.57"/><rect class="cls-35" x="181.6" y="232.36" width="6.37" height="1.67" rx="0.57" ry="0.57"/><rect class="cls-34" x="181.6" y="237.2" width="6.37" height="1.76" rx="0.57" ry="0.57"/><rect class="cls-35" x="181.6" y="237.2" width="6.37" height="1.67" rx="0.57" ry="0.57"/><rect class="cls-34" x="181.6" y="241.8" width="6.37" height="1.76" rx="0.57" ry="0.57"/><rect class="cls-35" x="181.6" y="241.8" width="6.37" height="1.67" rx="0.57" ry="0.57"/><rect class="cls-34" x="181.6" y="246.4" width="6.37" height="1.76" rx="0.57" ry="0.57"/><rect class="cls-35" x="181.6" y="246.4" width="6.37" height="1.67" rx="0.57" ry="0.57"/><rect class="cls-34" x="181.6" y="251" width="6.37" height="1.76" rx="0.57" ry="0.57"/><rect class="cls-35" x="181.6" y="251" width="6.37" height="1.67" rx="0.57" ry="0.57"/><rect class="cls-34" x="181.6" y="255.6" width="6.37" height="1.76" rx="0.57" ry="0.57"/><rect class="cls-35" x="181.6" y="255.6" width="6.37" height="1.67" rx="0.57" ry="0.57"/><rect class="cls-34" x="181.6" y="260.2" width="6.37" height="1.76" rx="0.57" ry="0.57"/><rect class="cls-35" x="181.6" y="260.2" width="6.37" height="1.67" rx="0.57" ry="0.57"/><rect class="cls-34" x="181.6" y="264.8" width="6.37" height="1.76" rx="0.57" ry="0.57"/><rect class="cls-35" x="181.6" y="264.8" width="6.37" height="1.67" rx="0.57" ry="0.57"/><rect class="cls-34" x="181.6" y="269.4" width="6.37" height="1.76" rx="0.57" ry="0.57"/><rect class="cls-35" x="181.6" y="269.4" width="6.37" height="1.67" rx="0.57" ry="0.57"/><rect class="cls-34" x="181.6" y="274" width="6.37" height="1.76" rx="0.57" ry="0.57"/><rect class="cls-35" x="181.6" y="274" width="6.37" height="1.67" rx="0.57" ry="0.57"/><rect class="cls-34" x="181.6" y="278.6" width="6.37" height="1.76" rx="0.57" ry="0.57"/><rect class="cls-35" x="181.6" y="278.6" width="6.37" height="1.67" rx="0.57" ry="0.57"/><rect class="cls-34" x="181.6" y="283.2" width="6.37" height="1.76" rx="0.57" ry="0.57"/><rect class="cls-35" x="181.6" y="283.2" width="6.37" height="1.67" rx="0.57" ry="0.57"/><rect class="cls-34" x="181.6" y="287.8" width="6.37" height="1.76" rx="0.57" ry="0.57"/><rect class="cls-35" x="181.6" y="287.8" width="6.37" height="1.67" rx="0.57" ry="0.57"/><path class="cls-36" d="M269,228.75a5,5,0,1,1,5-5A5,5,0,0,1,269,228.75Zm0-8.51a3.52,3.52,0,1,0,3.51,3.52A3.52,3.52,0,0,0,269,220.24Z"/><path class="cls-8" d="M268.92,216.72v10a8.11,8.11,0,0,1-8.09,8.09h0a8.11,8.11,0,0,1-8.09-8.09v-10Z"/><rect class="cls-36" x="252.63" y="233.74" width="16.41" height="2.2" rx="0.9" ry="0.9"/><path class="cls-37" d="M132.31,59.71H25.17l-.1-.48A12,12,0,0,1,43.9,47.05a30.63,30.63,0,0,1,58.7-4.75,18,18,0,0,1,30.17,13.32,17.55,17.55,0,0,1-.37,3.61ZM26.16,58.51H131.31a16.51,16.51,0,0,0,.25-2.89A16.82,16.82,0,0,0,102.77,43.8l-.68.7-.32-.93a29.42,29.42,0,0,0-56.86,4.67l-.17,1.06-.82-.7A10.83,10.83,0,0,0,26,56.82,12,12,0,0,0,26.16,58.51Z"/><path class="cls-37" d="M79.9,54H70.18a2.31,2.31,0,0,1-2.31-2.31V45.77H65.3a2.13,2.13,0,0,1-1.5-3.63l9.74-9.73a2.16,2.16,0,0,1,3,0l9.74,9.73a2.13,2.13,0,0,1-1.51,3.63H82.21v5.95A2.32,2.32,0,0,1,79.9,54ZM75,33a.91.91,0,0,0-.65.27L64.65,43a.92.92,0,0,0,.65,1.57h3.77v7.15a1.11,1.11,0,0,0,1.11,1.11H79.9A1.11,1.11,0,0,0,81,51.72V44.57h3.77A.93.93,0,0,0,85.43,43l-9.74-9.74A1,1,0,0,0,75,33Z"/><path class="cls-37" d="M247.85,15.27H203.94l0-.2a4.68,4.68,0,0,1-.1-1,4.94,4.94,0,0,1,7.82-4,12.56,12.56,0,0,1,24.06-1.95,7.29,7.29,0,0,1,5-1.93A7.4,7.4,0,0,1,248,13.59a7.29,7.29,0,0,1-.15,1.48Zm-43.5-.5h43.1a7.72,7.72,0,0,0,.1-1.18,6.91,6.91,0,0,0-6.9-6.89,6.8,6.8,0,0,0-4.9,2.05l-.28.28-.13-.38A12.06,12.06,0,0,0,212,10.57L212,11l-.34-.29a4.44,4.44,0,0,0-7.33,3.37A3.93,3.93,0,0,0,204.35,14.77Z"/><path class="cls-37" d="M226.37,12.94h-4a1,1,0,0,1-.95-.95V9.55h-1.05a.86.86,0,0,1-.81-.53.88.88,0,0,1,.19-.95l4-4a.89.89,0,0,1,1.23,0l4,4a.88.88,0,0,1,.19.95.86.86,0,0,1-.81.53h-1.05V12A1,1,0,0,1,226.37,12.94Zm-2-8.62a.35.35,0,0,0-.27.11l-4,4a.37.37,0,0,0-.08.41.37.37,0,0,0,.35.23h1.54V12a.47.47,0,0,0,.46.46h4a.46.46,0,0,0,.45-.46V9.06h1.55a.37.37,0,0,0,.35-.23.37.37,0,0,0-.08-.41l-4-4A.36.36,0,0,0,224.38,4.32Z"/><path class="cls-37" d="M339.41,279H263l-.07-.34a9.14,9.14,0,0,1-.17-1.73,8.58,8.58,0,0,1,13.6-7,21.85,21.85,0,0,1,41.86-3.39,12.74,12.74,0,0,1,8.65-3.36A12.88,12.88,0,0,1,339.74,276a13.2,13.2,0,0,1-.26,2.58Zm-75.69-.86h75a11.86,11.86,0,0,0,.18-2.06,12,12,0,0,0-20.53-8.43l-.49.5-.22-.66a21,21,0,0,0-40.55,3.33l-.12.75-.58-.5a7.73,7.73,0,0,0-12.76,5.86A8.11,8.11,0,0,0,263.72,278.1Z"/><path class="cls-37" d="M302,274.91h-6.93a1.65,1.65,0,0,1-1.65-1.65V269h-1.83a1.52,1.52,0,0,1-1.07-2.59l6.94-6.94a1.55,1.55,0,0,1,2.15,0l6.94,6.94a1.52,1.52,0,0,1-1.07,2.59h-1.83v4.24A1.65,1.65,0,0,1,302,274.91Zm-3.46-15a.65.65,0,0,0-.47.2L291.17,267a.61.61,0,0,0-.14.71.63.63,0,0,0,.6.41h2.69v5.1a.8.8,0,0,0,.79.79H302a.8.8,0,0,0,.79-.79v-5.1h2.69a.63.63,0,0,0,.6-.41A.61.61,0,0,0,306,267L299,260.1A.65.65,0,0,0,298.58,259.9Z"/><rect class="cls-38" y="49.38" width="149.24" height="0.73"/><path class="cls-38" d="M0,49.38H149.24a0,0,0,0,1,0,0v83.54a7.52,7.52,0,0,1-7.52,7.52H7.52A7.52,7.52,0,0,1,0,132.91V49.38a0,0,0,0,1,0,0Z"/><rect class="cls-38" x="13.34" y="68.51" width="79.47" height="28.53"/><rect class="cls-38" x="13.34" y="102.36" width="27.94" height="8.85"/><rect class="cls-38" x="45.48" y="102.36" width="47.33" height="8.85"/><rect class="cls-38" x="98.08" y="68.51" width="43.26" height="12.35"/><rect class="cls-38" x="13.34" y="116.52" width="128" height="12.35"/><rect class="cls-38" x="98.08" y="84.09" width="43.26" height="28.1"/><rect class="cls-38" y="49.38" width="149.24" height="14.89"/><circle class="cls-38" cx="6" cy="56.45" r="3.09"/><path class="cls-8" d="M6,59.53a3.08,3.08,0,0,1-3.09-3.05v0A3.12,3.12,0,0,0,6,59.66a3.12,3.12,0,0,0,3.08-3.15v0A3.08,3.08,0,0,1,6,59.53Z"/><circle class="cls-38" cx="13.34" cy="56.45" r="3.09"/><path class="cls-8" d="M13.34,59.53a3.08,3.08,0,0,1-3.09-3.05v0a3.09,3.09,0,1,0,6.18,0s0,0,0,0A3.08,3.08,0,0,1,13.34,59.53Z"/><circle class="cls-38" cx="20.63" cy="56.45" r="3.09"/><path class="cls-8" d="M20.63,59.53a3.08,3.08,0,0,1-3.09-3.05v0a3.09,3.09,0,1,0,6.17,0v0A3.08,3.08,0,0,1,20.63,59.53Z"/><rect class="cls-39" y="63.98" width="149.24" height="0.29"/><circle class="cls-8" cx="6" cy="56.45" r="2.45"/><circle class="cls-9" cx="13.34" cy="56.45" r="2.45"/><circle class="cls-11" cx="20.63" cy="56.45" r="2.45"/><rect class="cls-38" x="3.55" y="66.39" width="4.9" height="68.15" rx="2.45" ry="2.45"/><rect class="cls-8" x="4.84" y="68.51" width="1.96" height="17.88" rx="0.98" ry="0.98"/><line class="cls-40" x1="16.43" y1="72.59" x2="49.89" y2="72.59"/><line class="cls-40" x1="53.07" y1="72.59" x2="58.52" y2="72.59"/><line class="cls-40" x1="64.52" y1="72.59" x2="88.27" y2="72.59"/><line class="cls-40" x1="16.43" y1="76.02" x2="56.89" y2="76.02"/><line class="cls-40" x1="60.89" y1="75.4" x2="77.34" y2="75.4"/><line class="cls-40" x1="80.39" y1="75.4" x2="88.77" y2="75.4"/><line class="cls-40" x1="18.18" y1="80.27" x2="66.02" y2="80.27"/><line class="cls-40" x1="71.64" y1="80.27" x2="84.58" y2="80.27"/><line class="cls-40" x1="88.77" y1="84.09" x2="51.77" y2="84.09"/><line class="cls-40" x1="67.64" y1="89.27" x2="16.43" y2="89.27"/><line class="cls-40" x1="51.77" y1="92.52" x2="89.64" y2="92.52"/><line class="cls-40" x1="55.8" y1="94.15" x2="24.64" y2="94.15"/><line class="cls-40" x1="16.43" y1="84.09" x2="30.02" y2="84.09"/><line class="cls-40" x1="38.27" y1="104.4" x2="28.89" y2="104.4"/><line class="cls-40" x1="37.39" y1="108.52" x2="15.77" y2="108.52"/><line class="cls-40" x1="47.89" y1="104.4" x2="51.77" y2="104.4"/><line class="cls-40" x1="54.95" y1="104.4" x2="58.83" y2="104.4"/><line class="cls-40" x1="62.02" y1="104.4" x2="65.89" y2="104.4"/><line class="cls-40" x1="69.08" y1="104.4" x2="72.95" y2="104.4"/><line class="cls-40" x1="76.14" y1="104.4" x2="80.02" y2="104.4"/><line class="cls-40" x1="83.2" y1="104.4" x2="87.08" y2="104.4"/><line class="cls-40" x1="47.89" y1="107.41" x2="50.39" y2="107.41"/><line class="cls-40" x1="53.7" y1="107.41" x2="56.2" y2="107.41"/><line class="cls-40" x1="59.52" y1="107.41" x2="62.02" y2="107.41"/><line class="cls-40" x1="65.33" y1="107.41" x2="67.83" y2="107.41"/><line class="cls-40" x1="71.14" y1="107.41" x2="73.64" y2="107.41"/><line class="cls-40" x1="76.95" y1="107.41" x2="79.45" y2="107.41"/><line class="cls-40" x1="82.77" y1="107.41" x2="85.27" y2="107.41"/><polyline class="cls-40" points="18.82 119.68 16.07 122.43 18.72 125.08"/><polyline class="cls-40" points="21.58 119.68 18.82 122.43 21.47 125.08"/><polyline class="cls-40" points="105.31 71.99 102.56 74.74 105.2 77.39"/><line class="cls-40" x1="101.18" y1="87.3" x2="122.96" y2="87.3"/><line class="cls-40" x1="101.18" y1="89.96" x2="109.74" y2="89.96"/><line class="cls-40" x1="101.18" y1="94.15" x2="109.74" y2="94.15"/><line class="cls-40" x1="101.18" y1="98.33" x2="109.74" y2="98.33"/><line class="cls-40" x1="101.18" y1="102.52" x2="109.74" y2="102.52"/><line class="cls-40" x1="135.14" y1="92.52" x2="129.34" y2="92.52"/><line class="cls-40" x1="135.14" y1="94.9" x2="129.34" y2="94.9"/><line class="cls-40" x1="135.14" y1="97.28" x2="129.34" y2="97.28"/><line class="cls-40" x1="135.14" y1="99.66" x2="129.34" y2="99.66"/><line class="cls-40" x1="135.14" y1="102.05" x2="129.34" y2="102.05"/><line class="cls-40" x1="135.14" y1="104.43" x2="129.34" y2="104.43"/><line class="cls-40" x1="135.14" y1="106.81" x2="129.34" y2="106.81"/><line class="cls-40" x1="135.14" y1="109.19" x2="129.34" y2="109.19"/><line class="cls-40" x1="28.39" y1="119.68" x2="87.08" y2="119.68"/><line class="cls-40" x1="28.39" y1="122.38" x2="63.95" y2="122.38"/><line class="cls-40" x1="28.39" y1="126.18" x2="63.95" y2="126.18"/><path class="cls-38" d="M54.36,150h70.57a0,0,0,0,1,0,0V208.8a7.52,7.52,0,0,1-7.52,7.52H61.88a7.52,7.52,0,0,1-7.52-7.52V150A0,0,0,0,1,54.36,150Z"/><rect class="cls-38" x="64.07" y="163.98" width="57.84" height="20.76"/><rect class="cls-38" x="64.07" y="188.61" width="20.34" height="6.44"/><rect class="cls-38" x="87.46" y="188.61" width="34.45" height="6.44"/><rect class="cls-38" x="54.36" y="150.05" width="70.57" height="10.84"/><circle class="cls-38" cx="58.72" cy="155.19" r="2.25"/><path class="cls-8" d="M58.72,157.44a2.24,2.24,0,0,1-2.24-2.22v0a2.25,2.25,0,1,0,4.5,0v0A2.25,2.25,0,0,1,58.72,157.44Z"/><circle class="cls-38" cx="64.07" cy="155.19" r="2.25"/><path class="cls-8" d="M64.07,157.44a2.24,2.24,0,0,1-2.25-2.22v0a2.25,2.25,0,1,0,4.49,0v0A2.24,2.24,0,0,1,64.07,157.44Z"/><circle class="cls-38" cx="69.37" cy="155.19" r="2.25"/><path class="cls-8" d="M69.37,157.44a2.24,2.24,0,0,1-2.24-2.22v0a2.25,2.25,0,1,0,4.5,0v0A2.25,2.25,0,0,1,69.37,157.44Z"/><rect class="cls-39" x="54.36" y="160.68" width="70.57" height="0.21"/><circle class="cls-8" cx="58.72" cy="155.19" r="1.78"/><circle class="cls-9" cx="64.07" cy="155.19" r="1.78"/><circle class="cls-11" cx="69.37" cy="155.19" r="1.78"/><rect class="cls-38" x="56.94" y="162.43" width="3.56" height="49.6" rx="1.58" ry="1.58"/><rect class="cls-8" x="57.88" y="163.98" width="1.42" height="13.01" rx="0.63" ry="0.63"/><line class="cls-40" x1="66.31" y1="166.94" x2="90.67" y2="166.94"/><line class="cls-40" x1="92.99" y1="166.94" x2="96.95" y2="166.94"/><line class="cls-40" x1="101.31" y1="166.94" x2="118.6" y2="166.94"/><line class="cls-40" x1="66.31" y1="169.44" x2="95.76" y2="169.44"/><line class="cls-40" x1="98.67" y1="168.99" x2="110.65" y2="168.99"/><line class="cls-40" x1="112.87" y1="168.99" x2="118.96" y2="168.99"/><line class="cls-40" x1="67.59" y1="172.54" x2="102.4" y2="172.54"/><line class="cls-40" x1="106.5" y1="172.54" x2="115.91" y2="172.54"/><line class="cls-40" x1="118.96" y1="175.31" x2="92.03" y2="175.31"/><line class="cls-40" x1="103.59" y1="179.09" x2="66.31" y2="179.09"/><line class="cls-40" x1="92.03" y1="181.45" x2="119.6" y2="181.45"/><line class="cls-40" x1="94.97" y1="182.63" x2="72.29" y2="182.63"/><line class="cls-40" x1="66.31" y1="175.31" x2="76.2" y2="175.31"/><line class="cls-40" x1="82.21" y1="190.09" x2="75.39" y2="190.09"/><line class="cls-40" x1="81.57" y1="193.09" x2="65.83" y2="193.09"/><line class="cls-40" x1="89.21" y1="190.09" x2="92.03" y2="190.09"/><line class="cls-40" x1="94.35" y1="190.09" x2="97.17" y2="190.09"/><line class="cls-40" x1="99.49" y1="190.09" x2="102.31" y2="190.09"/><line class="cls-40" x1="104.63" y1="190.09" x2="107.45" y2="190.09"/><line class="cls-40" x1="109.77" y1="190.09" x2="112.59" y2="190.09"/><line class="cls-40" x1="114.91" y1="190.09" x2="117.73" y2="190.09"/><line class="cls-40" x1="89.21" y1="192.28" x2="91.03" y2="192.28"/><line class="cls-40" x1="93.44" y1="192.28" x2="95.26" y2="192.28"/><line class="cls-40" x1="97.67" y1="192.28" x2="99.49" y2="192.28"/><line class="cls-40" x1="101.9" y1="192.28" x2="103.72" y2="192.28"/><line class="cls-40" x1="106.13" y1="192.28" x2="107.95" y2="192.28"/><line class="cls-40" x1="110.36" y1="192.28" x2="112.18" y2="192.28"/><line class="cls-40" x1="114.59" y1="192.28" x2="116.41" y2="192.28"/><polyline class="cls-40" points="68.06 201.21 66.06 203.22 67.98 205.14"/><polyline class="cls-40" points="70.06 201.21 68.06 203.22 69.98 205.14"/><line class="cls-40" x1="75.02" y1="201.21" x2="117.73" y2="201.21"/><line class="cls-40" x1="75.02" y1="203.18" x2="100.9" y2="203.18"/><line class="cls-40" x1="75.02" y1="205.94" x2="100.9" y2="205.94"/><path class="cls-38" d="M253,186h56.27a0,0,0,0,1,0,0v21.06a7.52,7.52,0,0,1-7.52,7.52H260.51a7.52,7.52,0,0,1-7.52-7.52V186A0,0,0,0,1,253,186Z"/><rect class="cls-38" x="258.8" y="194.38" width="32.7" height="12.42"/><rect class="cls-38" x="253" y="186.05" width="56.27" height="6.48"/><circle class="cls-38" cx="255.61" cy="189.13" r="1.34"/><path class="cls-8" d="M255.61,190.47a1.35,1.35,0,0,1-1.35-1.33h0a1.35,1.35,0,1,0,2.69,0h0A1.34,1.34,0,0,1,255.61,190.47Z"/><circle class="cls-38" cx="258.8" cy="189.13" r="1.34"/><path class="cls-8" d="M258.8,190.47a1.34,1.34,0,0,1-1.34-1.33h0a1.35,1.35,0,1,0,2.69,0h0A1.33,1.33,0,0,1,258.8,190.47Z"/><circle class="cls-38" cx="261.97" cy="189.13" r="1.34"/><path class="cls-8" d="M262,190.47a1.34,1.34,0,0,1-1.34-1.33h0a1.35,1.35,0,1,0,2.69,0h0A1.35,1.35,0,0,1,262,190.47Z"/><rect class="cls-39" x="253" y="192.4" width="56.27" height="0.12"/><circle class="cls-8" cx="255.61" cy="189.13" r="1.07"/><circle class="cls-9" cx="258.8" cy="189.13" r="1.07"/><circle class="cls-11" cx="261.97" cy="189.13" r="1.07"/><rect class="cls-38" x="254.54" y="193.46" width="2.13" height="18.61" rx="1.07" ry="1.07"/><rect class="cls-8" x="255.11" y="194.38" width="0.85" height="7.78" rx="0.43" ry="0.43"/><path class="cls-41" d="M270.32,195.71H260a.18.18,0,0,1-.17-.18.18.18,0,0,1,.17-.17h10.3a.18.18,0,0,1,.17.17A.18.18,0,0,1,270.32,195.71Z"/><path class="cls-41" d="M272.51,195.71h-1.38a.18.18,0,0,1-.18-.18.18.18,0,0,1,.18-.17h1.38a.17.17,0,0,1,.17.17A.17.17,0,0,1,272.51,195.71Z"/><path class="cls-41" d="M286.52,195.71H274a.18.18,0,0,1-.18-.18.18.18,0,0,1,.18-.17h12.48a.18.18,0,0,1,.17.17A.18.18,0,0,1,286.52,195.71Z"/><path class="cls-41" d="M272.1,196.58H260a.18.18,0,0,1-.17-.17.18.18,0,0,1,.17-.18H272.1a.18.18,0,0,1,.17.18A.18.18,0,0,1,272.1,196.58Z"/><path class="cls-41" d="M283.74,196.42H273.11a.17.17,0,0,1-.17-.17.18.18,0,0,1,.17-.18h10.63a.17.17,0,0,1,.17.18A.16.16,0,0,1,283.74,196.42Z"/><path class="cls-41" d="M286.65,196.42h-2.13a.17.17,0,0,1-.18-.17.18.18,0,0,1,.18-.18h2.13a.18.18,0,0,1,.17.18A.17.17,0,0,1,286.65,196.42Z"/><path class="cls-41" d="M274.42,197.66H260.47a.17.17,0,0,1-.18-.17.18.18,0,0,1,.18-.18h13.95a.18.18,0,0,1,.17.18A.17.17,0,0,1,274.42,197.66Z"/><path class="cls-41" d="M285.58,197.66h-3.29a.17.17,0,0,1-.18-.17.18.18,0,0,1,.18-.18h3.29a.18.18,0,0,1,.18.18A.17.17,0,0,1,285.58,197.66Z"/><path class="cls-41" d="M286.65,198.63H270.79a.17.17,0,1,1,0-.34h15.86a.17.17,0,0,1,0,.34Z"/><path class="cls-41" d="M274.83,200H260a.18.18,0,0,1-.17-.17.18.18,0,0,1,.17-.18h14.81a.18.18,0,0,1,.18.18A.18.18,0,0,1,274.83,200Z"/><path class="cls-41" d="M286.87,200.78H270.79a.18.18,0,0,1-.17-.18.18.18,0,0,1,.17-.17h16.08a.18.18,0,0,1,.17.17A.18.18,0,0,1,286.87,200.78Z"/><path class="cls-41" d="M266.54,201.19h-4.43a.16.16,0,0,1-.17-.17.17.17,0,0,1,.17-.18h4.43a.18.18,0,0,1,.17.18A.17.17,0,0,1,266.54,201.19Z"/><path class="cls-41" d="M263.48,198.63H260a.17.17,0,0,1,0-.34h3.46a.17.17,0,1,1,0,.34Z"/><path class="cls-38" d="M230.11,25.53H330.44a0,0,0,0,1,0,0V163.62a7.52,7.52,0,0,1-7.52,7.52H237.63a7.52,7.52,0,0,1-7.52-7.52V25.53A0,0,0,0,1,230.11,25.53Z"/><rect class="cls-38" x="243.45" y="44.67" width="79.47" height="69.53"/><rect class="cls-38" x="243.45" y="133.06" width="27.94" height="8.85"/><rect class="cls-38" x="275.59" y="133.06" width="47.33" height="8.85"/><rect class="cls-38" x="243.45" y="147.23" width="79.47" height="12.35"/><rect class="cls-38" x="230.11" y="25.53" width="100.33" height="14.89"/><circle class="cls-38" cx="236.11" cy="32.6" r="3.09"/><path class="cls-8" d="M236.11,35.69A3.09,3.09,0,0,1,233,32.63v0a3.09,3.09,0,1,0,6.18,0v0A3.08,3.08,0,0,1,236.11,35.69Z"/><circle class="cls-38" cx="243.45" cy="32.6" r="3.09"/><path class="cls-8" d="M243.45,35.69a3.09,3.09,0,0,1-3.08-3.06v0a3.09,3.09,0,1,0,6.17,0v0A3.09,3.09,0,0,1,243.45,35.69Z"/><circle class="cls-38" cx="250.74" cy="32.6" r="3.09"/><path class="cls-8" d="M250.74,35.69a3.08,3.08,0,0,1-3.08-3.06v0a3.09,3.09,0,1,0,6.18,0,0,0,0,0,0,0,0A3.08,3.08,0,0,1,250.74,35.69Z"/><rect class="cls-39" x="230.11" y="40.13" width="100.33" height="0.29"/><circle class="cls-8" cx="236.11" cy="32.6" r="2.45"/><circle class="cls-9" cx="243.45" cy="32.6" r="2.45"/><circle class="cls-11" cx="250.74" cy="32.6" r="2.45"/><rect class="cls-38" x="233.66" y="42.55" width="4.9" height="122.7" rx="2.45" ry="2.45"/><rect class="cls-8" x="234.96" y="44.67" width="1.96" height="17.88" rx="0.98" ry="0.98"/><line class="cls-40" x1="246.54" y1="48.74" x2="280.01" y2="48.74"/><line class="cls-40" x1="283.19" y1="48.74" x2="288.63" y2="48.74"/><line class="cls-40" x1="294.63" y1="48.74" x2="318.38" y2="48.74"/><line class="cls-40" x1="246.54" y1="52.17" x2="287.01" y2="52.17"/><line class="cls-40" x1="291.01" y1="51.55" x2="307.45" y2="51.55"/><line class="cls-40" x1="310.51" y1="51.55" x2="318.88" y2="51.55"/><line class="cls-40" x1="248.29" y1="56.42" x2="296.13" y2="56.42"/><line class="cls-40" x1="301.76" y1="56.42" x2="314.69" y2="56.42"/><line class="cls-40" x1="318.88" y1="60.24" x2="281.88" y2="60.24"/><line class="cls-40" x1="297.76" y1="65.42" x2="246.54" y2="65.42"/><line class="cls-40" x1="281.88" y1="68.67" x2="319.76" y2="68.67"/><line class="cls-40" x1="278.85" y1="78.28" x2="247.7" y2="78.28"/><line class="cls-40" x1="246.54" y1="60.24" x2="260.13" y2="60.24"/><line class="cls-40" x1="268.38" y1="135.1" x2="259.01" y2="135.1"/><line class="cls-40" x1="267.51" y1="139.23" x2="245.88" y2="139.23"/><line class="cls-40" x1="278.01" y1="135.1" x2="281.88" y2="135.1"/><line class="cls-40" x1="285.07" y1="135.1" x2="288.94" y2="135.1"/><line class="cls-40" x1="292.13" y1="135.1" x2="296.01" y2="135.1"/><line class="cls-40" x1="299.19" y1="135.1" x2="303.07" y2="135.1"/><line class="cls-40" x1="306.26" y1="135.1" x2="310.13" y2="135.1"/><line class="cls-40" x1="313.32" y1="135.1" x2="317.19" y2="135.1"/><line class="cls-40" x1="278.01" y1="138.12" x2="280.51" y2="138.12"/><line class="cls-40" x1="283.82" y1="138.12" x2="286.32" y2="138.12"/><line class="cls-40" x1="289.63" y1="138.12" x2="292.13" y2="138.12"/><line class="cls-40" x1="295.44" y1="138.12" x2="297.94" y2="138.12"/><line class="cls-40" x1="301.26" y1="138.12" x2="303.76" y2="138.12"/><line class="cls-40" x1="307.07" y1="138.12" x2="309.57" y2="138.12"/><line class="cls-40" x1="312.88" y1="138.12" x2="315.38" y2="138.12"/><polyline class="cls-40" points="248.94 150.38 246.19 153.14 248.83 155.78"/><polyline class="cls-40" points="251.69 150.38 248.94 153.14 251.58 155.78"/><polyline class="cls-40" points="274.57 84.58 268.38 90.77 274.33 96.72"/><polyline class="cls-40" points="280.76 84.58 274.57 90.77 280.52 96.72"/><line class="cls-40" x1="258.51" y1="150.38" x2="317.19" y2="150.38"/><line class="cls-40" x1="258.51" y1="153.08" x2="294.07" y2="153.08"/><line class="cls-40" x1="258.51" y1="156.88" x2="294.07" y2="156.88"/><circle class="cls-40" cx="297.32" cy="87.55" r="12.25"/><path class="cls-40" d="M292.41,90.65a4.91,4.91,0,1,0,9.81,0Z"/><path class="cls-40" d="M290,85.55a2.38,2.38,0,0,1,4.76,0"/><path class="cls-40" d="M299.84,85.55a2.38,2.38,0,0,1,4.76,0"/><line class="cls-40" x1="307.65" y1="99.4" x2="317.75" y2="99.4"/><path class="cls-37" d="M330.44,193.85a6.07,6.07,0,1,1,6.07-6.07A6.07,6.07,0,0,1,330.44,193.85Zm0-11a5,5,0,1,0,5,5A5,5,0,0,0,330.44,182.8Z"/><path class="cls-37" d="M33.16,167.17a6.07,6.07,0,1,1,6.07-6.07A6.07,6.07,0,0,1,33.16,167.17Zm0-11a5,5,0,1,0,5,5A5,5,0,0,0,33.16,156.12Z"/><rect class="cls-37" x="159.73" y="33.58" width="2" height="17.92" transform="translate(17 126.12) rotate(-45)"/><rect class="cls-37" x="151.77" y="41.55" width="17.92" height="2" transform="translate(16.99 126.11) rotate(-45)"/><path class="cls-37" d="M84.4,302,70.16,287.77,84.4,273.53l14.25,14.24ZM73,287.77,84.4,299.19l11.42-11.42L84.4,276.36Z"/><path class="cls-37" d="M36.66,212.71,22.41,198.46l14.25-14.25L50.9,198.46ZM25.24,198.46l11.42,11.42,11.42-11.42L36.66,187Z"/><path class="cls-37" d="M328.3,223.84l-7.12-7.12,7.12-7.12,7.12,7.12Zm-5.71-7.12,5.71,5.71,5.71-5.71L328.3,211Z"/><polygon class="cls-37" points="357.56 153.25 349.18 144.87 357.56 136.49 358.43 137.37 350.93 144.87 358.43 152.37 357.56 153.25"/><polygon class="cls-37" points="364 153.25 355.63 144.87 364 136.49 364.88 137.37 357.38 144.87 364.88 152.37 364 153.25"/><polygon class="cls-37" points="209.44 89.24 201.06 80.86 209.44 72.48 210.31 73.36 202.81 80.86 210.31 88.36 209.44 89.24"/><polygon class="cls-37" points="215.89 89.24 207.51 80.86 215.89 72.48 216.76 73.36 209.26 80.86 216.76 88.36 215.89 89.24"/><path class="cls-37" d="M173.59,81.81h-5.83a1.52,1.52,0,0,1-1.53-1.53V76.85h-1.4a1.41,1.41,0,0,1-1-2.41l5.84-5.85a1.42,1.42,0,0,1,2,0l5.85,5.85a1.41,1.41,0,0,1-1,2.41h-1.4v3.43A1.53,1.53,0,0,1,173.59,81.81Zm-2.92-12.64a.43.43,0,0,0-.29.13l-5.85,5.84a.42.42,0,0,0-.09.45.42.42,0,0,0,.39.26h2.4v4.43a.53.53,0,0,0,.53.53h5.83a.53.53,0,0,0,.53-.53V75.85h2.4a.39.39,0,0,0,.38-.26.4.4,0,0,0-.09-.45L171,69.3A.43.43,0,0,0,170.67,69.17Z"/><path class="cls-37" d="M352.1,113.6h-5.84a1.54,1.54,0,0,1-1.53-1.53v-3.43h-1.4a1.41,1.41,0,0,1-1-2.41l5.85-5.85a1.42,1.42,0,0,1,2,0l5.85,5.85a1.41,1.41,0,0,1-1,2.41h-1.4v3.43A1.54,1.54,0,0,1,352.1,113.6ZM349.18,101a.4.4,0,0,0-.29.12L343,106.93a.4.4,0,0,0-.09.45.41.41,0,0,0,.38.26h2.4v4.43a.53.53,0,0,0,.53.53h5.84a.53.53,0,0,0,.53-.53v-4.43H355a.41.41,0,0,0,.38-.26.4.4,0,0,0-.09-.45l-5.85-5.85A.4.4,0,0,0,349.18,101Z"/></g></g></g></svg>